<?xml version="1.0" standalone="no"?>
<!DOCTYPE svg PUBLIC "-//W3C//DTD SVG 1.1//EN" "http://www.w3.org/Graphics/SVG/1.1/DTD/svg11.dtd" >
<svg xmlns="http://www.w3.org/2000/svg" xmlns:xlink="http://www.w3.org/1999/xlink" version="1.1">
<metadata>
Created by FontForge 20170731 at Thu Sep 29 15:03:28 2011
 By Aleksey,,,
Copyright (c) 2011 by typedepot. All rights reserved.
</metadata>
<defs>
<font id="CentraleSans-Bold" horiz-adv-x="670" >
  <font-face 
    font-family="Centrale Sans Bold"
    font-weight="700"
    font-stretch="normal"
    units-per-em="1000"
    panose-1="2 0 0 0 0 0 0 0 0 0"
    ascent="750"
    descent="-250"
    x-height="520"
    cap-height="700"
    bbox="-63 -220 1238 942"
    underline-thickness="50"
    underline-position="-200"
    unicode-range="U+0020-FB04"
  />
<missing-glyph horiz-adv-x="660" 
d="M442 -42l-140 249l-142 -249h282zM63 732h485v-852h-485v852zM155 653l144 -259l142 259h-286zM470 532l-126 -231l126 -225v456zM139 522v-438l119 217z" />
    <glyph glyph-name="f_f" unicode="ff" horiz-adv-x="646" 
d="M533 0h-134v418h-156v-418h-134v418h-85v81l85 21v29q0 90 37.5 138t128.5 48q31 0 66 -7l-14 -114q-26 2 -32 2q-28 0 -40 -16.5t-12 -35.5v-44h156v54q0 89 37.5 132.5t129.5 43.5q28 0 66 -7l-14 -114q-30 2 -42 2q-42 0 -42 -63v-48h90v-102h-91v-418z" />
    <glyph glyph-name="f_i" unicode="fi" horiz-adv-x="584" 
d="M492 706l-51 -90q-11 5 -47 12.5t-62 7.5q-46 0 -66 -24t-20 -51v-41h288v-520h-134v418h-154v-418h-137v418h-85v81l85 21v41q0 91 59.5 140t150.5 49q92 0 173 -44z" />
    <glyph glyph-name="f_l" unicode="fl" horiz-adv-x="631" 
d="M510 0q-44 0 -72 25t-28 74v470q0 32 -25 51.5t-57 19.5q-31 0 -57.5 -19t-26.5 -58v-43h74v-102h-74v-418h-135v418h-85v81l86 21v30q0 81 62.5 140.5t155.5 59.5q88 0 150.5 -54t62.5 -142v-413q0 -18 22 -18q13 0 44 3v-109q-2 -2 -17.5 -6t-39 -7.5t-40.5 -3.5z" />
    <glyph glyph-name="f_f_i" unicode="ffi" horiz-adv-x="890" 
d="M786 706l-51 -90q-11 5 -47 12.5t-62 7.5q-46 0 -66 -24t-20 -51v-41h288v-520h-134v418h-154v-418h-137v418h-159v-418h-135v418h-85v81l85 21v29q0 90 38 138t129 48q31 0 66 -7l-14 -114q-26 2 -32 2q-28 0 -40 -16.5t-12 -35.5v-44h159v41q0 91 59.5 140t150.5 49
q92 0 173 -44z" />
    <glyph glyph-name="f_f_l" unicode="ffl" horiz-adv-x="927" 
d="M342 728l-14 -114q-30 2 -40 2q-20 0 -30 -10.5t-12 -22t-2 -29.5v-34h159v30q0 81 63 140.5t158 59.5q86 0 149.5 -54.5t63.5 -141.5v-415q0 -18 22 -18q13 0 44 3v-108q-49 -16 -94 -16q-49 0 -76 27t-27 71v471q0 32 -25 51.5t-57 19.5q-31 0 -58.5 -19t-27.5 -58v-43
h76v-102h-76v-418h-135v418h-159v-418h-135v418h-85v81l85 21v29q0 89 37.5 137.5t124.5 48.5q36 0 71 -7z" />
    <glyph glyph-name=".notdef" horiz-adv-x="660" 
d="M442 -42l-140 249l-142 -249h282zM63 732h485v-852h-485v852zM155 653l144 -259l142 259h-286zM470 532l-126 -231l126 -225v456zM139 522v-438l119 217z" />
    <glyph glyph-name=".null" horiz-adv-x="0" 
 />
    <glyph glyph-name="nonmarkingreturn" horiz-adv-x="333" 
 />
    <glyph glyph-name="space" unicode=" " horiz-adv-x="245" 
 />
    <glyph glyph-name="exclam" unicode="!" horiz-adv-x="280" 
d="M58 700h163l-27 -470h-109zM141 148q34 0 56 -22.5t22 -56.5q0 -33 -22 -55.5t-56 -22.5q-35 0 -58.5 22t-23.5 56t23.5 56.5t58.5 22.5z" />
    <glyph glyph-name="quotedbl" unicode="&#x22;" horiz-adv-x="487" 
d="M61 700h153l-59 -307l-90 1zM298 700h153l-59 -307l-90 1z" />
    <glyph glyph-name="numbersign" unicode="#" horiz-adv-x="803" 
d="M271 700h115l-32 -159h167l32 159h115l-33 -159h122l-21 -113h-119l-30 -163h121l-21 -113h-120l-31 -152h-114l32 152h-171l-31 -152h-115l33 152h-124l22 113h121l30 163h-120l21 113h117zM334 428l-29 -163h167l30 163h-168z" />
    <glyph glyph-name="dollar" unicode="$" horiz-adv-x="574" 
d="M336 -106h-88v92q-121 8 -210 61l51 117q95 -50 190 -50q56 0 89 19t33 53q0 33 -36.5 55t-89 38t-105 38.5t-89 71t-36.5 120.5q0 89 53.5 141.5t149.5 63.5v92h88v-92q93 -9 179 -52l-48 -115q-87 40 -170 40q-52 0 -82.5 -20t-30.5 -53q0 -29 26.5 -50.5t66 -33.5
t85.5 -30.5t85.5 -40.5t66 -65.5t26.5 -102.5q0 -86 -53.5 -137.5t-150.5 -66.5v-93z" />
    <glyph glyph-name="percent" unicode="%" horiz-adv-x="846" 
d="M208 377q-72 0 -117.5 47t-45.5 120q0 75 46 123t120 48q72 0 117.5 -47t45.5 -122q0 -73 -46 -121t-120 -48zM165 0l402 700h111l-400 -700h-113zM636 -15q-73 0 -118.5 47t-45.5 120q0 74 47 122.5t120 48.5q72 0 117 -47.5t45 -121.5q0 -73 -46 -121t-119 -48z
M210 469q28 0 43.5 20t15.5 55q0 38 -17 58.5t-44 20.5t-42.5 -20t-15.5 -57q0 -36 17 -56.5t43 -20.5zM638 77q27 0 42.5 20t15.5 55q0 37 -17 58t-43 21q-57 0 -57 -77q0 -37 16.5 -57t42.5 -20z" />
    <glyph glyph-name="ampersand" unicode="&#x26;" horiz-adv-x="658" 
d="M277 700q65 0 121 -43.5t56 -117.5q0 -47 -27.5 -91.5t-83.5 -77.5l114 -135q25 45 27 96h104q-1 -47 -13.5 -93.5t-24.5 -69.5l-13 -24l126 -144h-151l-50 59q-76 -65 -183 -65q-94 0 -167 58.5t-73 158.5q0 64 33 109t90 83q-24 30 -33 43t-18.5 38.5t-9.5 54.5
q0 75 55 118t121 43zM234 318q-71 -41 -71 -103q0 -45 35 -70.5t83 -25.5q59 0 98 33zM278 583q-24 0 -39.5 -15.5t-15.5 -35.5q0 -7 1 -13.5t4 -13t5 -11t7.5 -11t8 -9.5t9.5 -11t10 -11q66 32 66 82q0 23 -16.5 36t-39.5 13z" />
    <glyph glyph-name="quotesingle" unicode="'" horiz-adv-x="250" 
d="M61 700h153l-59 -307l-90 1z" />
    <glyph glyph-name="parenleft" unicode="(" horiz-adv-x="361" 
d="M281 700l61 -80q-30 -25 -44.5 -38t-41.5 -46t-41 -64t-25.5 -81.5t-11.5 -108.5q-1 -60 10.5 -111t25.5 -83.5t40.5 -66t42.5 -48.5t45 -39l-61 -80q-40 24 -78 60t-77.5 88.5t-63.5 126t-24 154.5q0 77 24 148t63 122.5t78 87.5t78 59z" />
    <glyph glyph-name="parenright" unicode=")" horiz-adv-x="361" 
d="M80 700q39 -23 78 -59t78 -87.5t63 -122.5t24 -148q0 -81 -24 -154.5t-63.5 -126t-77.5 -88.5t-78 -60l-61 80q29 24 45 39t42.5 48.5t40.5 66t25.5 83.5t10.5 111q0 58 -11.5 108.5t-25.5 81.5t-41 64t-41.5 46t-44.5 38z" />
    <glyph glyph-name="asterisk" unicode="*" horiz-adv-x="438" 
d="M178 422l16 120l-97 -74l-42 72l112 47l-112 47l42 72l97 -74l-16 120h82l-16 -120l97 74l42 -72l-112 -47l112 -47l-42 -72l-97 74l16 -120h-82z" />
    <glyph glyph-name="plus" unicode="+" horiz-adv-x="495" 
d="M201 538h92v-153h153v-91h-153v-153h-92v153h-152v91h152v153z" />
    <glyph glyph-name="comma" unicode="," horiz-adv-x="268" 
d="M124 138q45 0 72 -33t27 -78q0 -113 -134 -179l-35 55q74 44 82 89q1 3 1 5q-10 -7 -24 -7q-31 0 -48.5 19t-17.5 52q0 32 22.5 54.5t54.5 22.5z" />
    <glyph glyph-name="hyphen" unicode="-" horiz-adv-x="491" 
d="M61 388h369v-90h-369v90z" />
    <glyph glyph-name="period" unicode="." horiz-adv-x="249" 
d="M124 142q32 0 54.5 -22t22.5 -54q0 -31 -22.5 -53.5t-54.5 -22.5t-54 22t-22 54t22 54t54 22z" />
    <glyph glyph-name="slash" unicode="/" horiz-adv-x="504" 
d="M360 732h112l-329 -768h-111z" />
    <glyph glyph-name="zero" unicode="0" horiz-adv-x="698" 
d="M349 -15q-133 0 -216.5 105t-83.5 258q0 154 84.5 260.5t217.5 106.5q131 0 214.5 -105.5t83.5 -257.5q0 -154 -84 -260.5t-216 -106.5zM351 108q69 0 112.5 70t43.5 170t-44.5 172t-113.5 72q-70 0 -114 -70.5t-44 -171.5t44.5 -171.5t115.5 -70.5z" />
    <glyph glyph-name="one" unicode="1" horiz-adv-x="372" 
d="M9 598l183 102h97v-700h-130v533l-2 3l-99 -38z" />
    <glyph glyph-name="two" unicode="2" horiz-adv-x="565" 
d="M47 658q111 57 217 57q104 0 170 -61t66 -161q0 -79 -42.5 -142.5t-109.5 -122.5l-132 -114h309v-114h-476v111l221 215q46 43 69.5 81t23.5 84q0 43 -31 70.5t-73 29.5q-73 2 -167 -31z" />
    <glyph glyph-name="three" unicode="3" horiz-adv-x="552" 
d="M85 566l-41 103q107 46 202 46q101 0 166 -56.5t65 -141.5q0 -52 -25 -91t-70 -52q122 -39 122 -169q0 -106 -74.5 -163t-188.5 -57q-66 0 -122.5 17.5t-90.5 41.5l45 96q67 -32 157 -32q63 -1 100.5 26t37.5 74q0 53 -44.5 82.5t-101.5 29.5h-71v100h76q51 0 85 19.5
t34 63.5q0 40 -32 63t-88 23q-67 0 -141 -23z" />
    <glyph glyph-name="four" unicode="4" horiz-adv-x="587" 
d="M358 700h107v-426h79v-114h-79v-160h-124v160h-318v97zM341 485l-166 -211h166v211z" />
    <glyph glyph-name="five" unicode="5" horiz-adv-x="569" 
d="M492 700v-113h-270l-15 -140q44 17 84 17q97 0 165 -65.5t68 -170.5q0 -109 -75.5 -176t-193.5 -67q-123 0 -221 60l45 100q71 -35 170 -35q57 0 98.5 34t41.5 90q0 50 -34.5 80.5t-88.5 30.5q-52 0 -90 -32l-110 55l46 332h380z" />
    <glyph glyph-name="six" unicode="6" horiz-adv-x="614" 
d="M527 673l-40 -103q-77 25 -130 25q-89 0 -134.5 -55.5t-45.5 -146.5h4q20 30 63.5 54.5t100.5 24.5q92 0 158 -66.5t66 -172.5q0 -111 -73 -179.5t-179 -68.5q-69 0 -122 31t-83.5 84t-45.5 114t-15 129q0 52 8.5 101t29.5 99t53.5 87.5t85 61t118.5 23.5q83 0 181 -42z
M314 349q-61 0 -94 -35t-33 -84q0 -51 36 -87t95 -36q58 0 92.5 35.5t34.5 85.5t-34.5 85.5t-96.5 35.5z" />
    <glyph glyph-name="seven" unicode="7" horiz-adv-x="518" 
d="M27 700h471v-118l-268 -582h-147l270 577h-326v123z" />
    <glyph glyph-name="eight" unicode="8" horiz-adv-x="595" 
d="M297 715q86 0 151 -55.5t65 -142.5q0 -48 -26.5 -84.5t-61.5 -53.5q54 -21 88.5 -69t34.5 -106q0 -101 -75 -160t-177 -59q-100 0 -174.5 59t-74.5 160q0 57 36.5 105t87.5 70q-34 17 -61.5 54t-27.5 84q0 87 64 142.5t151 55.5zM297 307q-54 0 -90.5 -26.5t-36.5 -75.5
q0 -55 38.5 -81t88.5 -26q51 0 89.5 26t38.5 81q0 48 -37.5 75t-90.5 27zM297 602q-38 0 -67.5 -24t-29.5 -65q0 -40 26.5 -66t70.5 -26q45 0 72.5 26t27.5 66q0 41 -30.5 65t-69.5 24z" />
    <glyph glyph-name="nine" unicode="9" horiz-adv-x="615" 
d="M88 27l40 103q79 -25 148 -25q72 0 117 55t45 142h-4q-53 -79 -159 -79q-96 0 -162.5 69t-66.5 176q0 112 72.5 179.5t178.5 67.5q69 0 122.5 -30.5t84 -81t45.5 -110.5t15 -126q0 -52 -8.5 -102.5t-30 -102t-52.5 -90t-81 -63t-111 -24.5q-93 0 -193 42zM301 346
q61 0 94 38.5t33 87.5q0 51 -36 86t-95 35t-93 -34.5t-34 -84.5q0 -51 35 -89.5t96 -38.5z" />
    <glyph glyph-name="colon" unicode=":" horiz-adv-x="275" 
d="M137 142q32 0 54.5 -22t22.5 -54q0 -31 -22.5 -53.5t-54.5 -22.5q-31 0 -53.5 22t-22.5 54t22.5 54t53.5 22zM137 472q32 0 54.5 -22t22.5 -54q0 -31 -22.5 -53.5t-54.5 -22.5q-31 0 -53.5 22t-22.5 54t22.5 54t53.5 22z" />
    <glyph glyph-name="semicolon" unicode=";" horiz-adv-x="288" 
d="M137 132q40 0 66 -32t26 -78q0 -57 -37.5 -101.5t-92.5 -70.5l-32 51l3 3q4 2 11.5 7t15.5 12t16.5 16t16 18t12 20.5t5.5 21.5q-8 -9 -26 -9q-26 0 -43 18.5t-17 48.5q0 33 21.5 54t54.5 21zM143 472q32 0 54.5 -22t22.5 -54q0 -31 -22.5 -53.5t-54.5 -22.5
q-31 0 -53.5 22t-22.5 54t22.5 54t53.5 22z" />
    <glyph glyph-name="less" unicode="&#x3c;" horiz-adv-x="429" 
d="M353 527v-100l-182 -88l183 -89v-103l-306 156v73z" />
    <glyph glyph-name="equal" unicode="=" horiz-adv-x="493" 
d="M70 465h355v-91h-355v91zM70 302h355v-92h-355v92z" />
    <glyph glyph-name="greater" unicode="&#x3e;" horiz-adv-x="429" 
d="M76 427v100l305 -151v-73l-306 -156v103l183 89z" />
    <glyph glyph-name="question" unicode="?" horiz-adv-x="513" 
d="M236 723q90 0 157 -51t67 -137q0 -37 -13.5 -66.5t-33.5 -47t-43.5 -34.5t-43.5 -29.5t-33.5 -32t-13.5 -42.5v-53h-112v63q0 38 16.5 67t40 47.5t47 35t40 38t16.5 48.5q0 33 -27.5 55.5t-66.5 22.5q-31 0 -70.5 -13t-61.5 -28l-60 94q37 27 90 45t105 18zM228 148
q34 0 56 -22.5t22 -56.5q0 -33 -22 -55.5t-56 -22.5q-35 0 -58.5 22t-23.5 56t23.5 56.5t58.5 22.5z" />
    <glyph glyph-name="at" unicode="@" horiz-adv-x="917" 
d="M691 65q-96 0 -113 70q-40 -70 -138 -70q-73 0 -118 35.5t-45 102.5q0 47 29 77t63.5 40t70.5 10q63 0 102 -12v26q0 79 -90 79q-22 0 -42.5 -2.5t-32.5 -5.5t-25.5 -6.5t-16.5 -4.5l-20 68q73 28 153 28q82 0 126.5 -40t44.5 -108v-157q0 -15 2 -24t13 -17.5t31 -8.5
q16 0 38 11q50 26 50 137q0 150 -93 232t-221 82q-130 0 -221 -93.5t-91 -223.5q0 -131 88.5 -222.5t218.5 -91.5q66 0 143 32l35 -84q-94 -41 -176 -41q-174 0 -288.5 118t-114.5 290q0 168 118.5 288.5t288.5 120.5t288.5 -112.5t118.5 -295.5q0 -105 -44 -166t-132 -61z
M439 145q40 0 71 21.5t32 55.5v28q-7 4 -36.5 10t-55.5 6q-34 0 -58.5 -16.5t-24.5 -47.5q0 -30 21.5 -43.5t50.5 -13.5z" />
    <glyph glyph-name="A" unicode="A" horiz-adv-x="658" 
d="M257 715h144l262 -715h-148l-60 177h-252l-60 -177h-148zM328 576l-91 -287h184z" />
    <glyph glyph-name="B" unicode="B" horiz-adv-x="654" 
d="M78 700h286q91 0 153 -53t62 -137q0 -68 -33.5 -105t-70.5 -45q54 -11 96.5 -52.5t42.5 -108.5q0 -95 -60 -147t-152 -52h-324v700zM218 130h184q29 0 50.5 25.5t21.5 55.5q0 35 -24 58t-60 23h-172v-162zM218 570v-158h149q33 0 53 21.5t20 54.5t-22 57.5t-54 24.5h-146
z" />
    <glyph glyph-name="C" unicode="C" horiz-adv-x="662" 
d="M423 -15q-162 0 -272.5 107.5t-110.5 257.5t110.5 257.5t272.5 107.5q61 -1 119.5 -18t94.5 -40l-51 -107q-73 40 -166 40q-102 0 -166.5 -68t-64.5 -172t64.5 -172t166.5 -68q41 0 82.5 10t62.5 20l21 10l51 -107q-36 -23 -94.5 -40t-119.5 -18z" />
    <glyph glyph-name="D" unicode="D" horiz-adv-x="693" 
d="M325 0h-247v700h247q92 0 167 -44q156 -92 158 -306q0 -97 -39.5 -179t-118.5 -127q-77 -44 -167 -44zM218 568v-436h80q75 0 132 31q80 45 80 188q0 137 -80 186q-51 31 -132 31h-80z" />
    <glyph glyph-name="E" unicode="E" horiz-adv-x="622" 
d="M78 700h495v-130h-355v-165h303v-126h-303v-149h362v-130h-502v700z" />
    <glyph glyph-name="F" unicode="F" horiz-adv-x="599" 
d="M78 700h496v-130h-356v-172h303v-126h-303v-272h-140v700z" />
    <glyph glyph-name="G" unicode="G" horiz-adv-x="730" 
d="M424 715q53 0 118 -17t109 -44l-54 -103q-85 39 -176 39q-102 0 -166.5 -68t-64.5 -172q0 -106 61.5 -173t169.5 -67q81 0 131 41v121h-177v114h306v-289q-111 -112 -257 -112q-167 0 -275 107t-108 258q0 150 110.5 257.5t272.5 107.5z" />
    <glyph glyph-name="H" unicode="H" horiz-adv-x="726" 
d="M78 700h140v-294h290v294h140v-700h-140v276h-290v-276h-140v700z" />
    <glyph glyph-name="I" unicode="I" horiz-adv-x="296" 
d="M78 700h140v-700h-140v700z" />
    <glyph glyph-name="J" unicode="J" horiz-adv-x="333" 
d="M33 -140l-47 94l4 3q127 83 127 164v449l-77 22v108h217v-579q0 -54 -21 -98q-10 -21 -26.5 -41.5t-35 -36t-38 -29t-37.5 -24t-32 -17t-24 -11.5z" />
    <glyph glyph-name="K" unicode="K" horiz-adv-x="642" 
d="M78 0v700h140v-188l-4 -106l65 87l177 207h168l-254 -290l276 -410h-162l-197 315l-69 -75v-240h-140z" />
    <glyph glyph-name="L" unicode="L" horiz-adv-x="560" 
d="M78 700h140v-570h328v-130h-468v700z" />
    <glyph glyph-name="M" unicode="M" horiz-adv-x="930" 
d="M78 700h189l197 -494h2l197 494h189v-700h-139v486h-3l-183 -445h-124l-183 445h-2v-486h-140v700z" />
    <glyph glyph-name="N" unicode="N" horiz-adv-x="732" 
d="M78 700h145l203 -317l92 -161h2l-6 191v287h140v-700h-144l-204 335l-92 153h-2l6 -164v-324h-140v700z" />
    <glyph glyph-name="O" unicode="O" horiz-adv-x="803" 
d="M40 352q0 155 108.5 259t255.5 104q150 0 254.5 -106t104.5 -257q0 -156 -107.5 -261.5t-251.5 -105.5q-151 0 -257.5 106.5t-106.5 260.5zM188 352q0 -106 60 -174t156 -68q94 0 152 68t58 174q0 104 -59 170.5t-156 66.5q-93 0 -152 -67t-59 -170z" />
    <glyph glyph-name="P" unicode="P" horiz-adv-x="623" 
d="M78 700h308q88 0 151.5 -67.5t63.5 -155.5t-63 -156.5t-149 -68.5h-171v-252h-140v700zM218 568v-186h168q30 0 52.5 30.5t22.5 64.5q0 91 -117 91h-126z" />
    <glyph glyph-name="Q" unicode="Q" horiz-adv-x="802" 
d="M39 352q0 102 51 186t134.5 130.5t178.5 46.5q151 0 255 -106.5t104 -255.5q0 -99 -51 -186.5t-140 -129.5v-3l13 -6q14 -5 65 -20.5t124 -34.5l-50 -119q-138 30 -273 120q-16 11 -51 11q-149 0 -254.5 108.5t-105.5 258.5zM188 351q0 -104 62 -173t153 -69t150.5 68.5
t59.5 172.5q0 105 -59 172.5t-151 67.5t-153.5 -68t-61.5 -171z" />
    <glyph glyph-name="R" unicode="R" horiz-adv-x="661" 
d="M78 700h318q88 0 151 -63.5t63 -151.5q0 -65 -36 -119.5t-96 -79.5l159 -286h-162l-140 270h-117v-270h-140v700zM218 570v-174h178q29 0 52.5 28.5t23.5 60.5q0 85 -120 85h-134z" />
    <glyph glyph-name="S" unicode="S" horiz-adv-x="600" 
d="M293 -15q-141 0 -253 62l51 112q103 -50 201 -50q62 0 97.5 20t35.5 56q0 30 -28 50.5t-70 31.5t-91.5 28.5t-91.5 38.5t-70 65t-28 105q0 98 68.5 154.5t187.5 56.5q125 0 236 -53l-49 -111q-91 40 -180 40q-56 0 -89.5 -20.5t-33.5 -55.5q0 -26 21 -45.5t54 -31.5
t73.5 -24t81 -28.5t73.5 -39t54 -61t21 -89.5q0 -99 -72.5 -155t-198.5 -56z" />
    <glyph glyph-name="T" unicode="T" horiz-adv-x="600" 
d="M15 700h570v-130h-215v-570h-139v570h-216v130z" />
    <glyph glyph-name="U" unicode="U" horiz-adv-x="717" 
d="M74 700h136v-438q0 -57 42.5 -93.5t106.5 -36.5t106 36.5t42 93.5v438h137v-435q0 -119 -75.5 -192t-209.5 -73t-209.5 73t-75.5 192v435z" />
    <glyph glyph-name="V" unicode="V" horiz-adv-x="623" 
d="M-5 700h147l169 -523h2l168 523h147l-250 -700h-133z" />
    <glyph glyph-name="W" unicode="W" horiz-adv-x="1000" 
d="M6 700h157l131 -489h2l132 489h144l130 -489h2l130 489h160l-221 -700h-141l-131 461l-133 -461h-140z" />
    <glyph glyph-name="X" unicode="X" horiz-adv-x="690" 
d="M7 700h165l170 -245h1l173 245h163l-253 -348l256 -352h-164l-175 246h-1l-168 -246h-164l253 352z" />
    <glyph glyph-name="Y" unicode="Y" horiz-adv-x="607" 
d="M-14 700h154l66 -112l96 -175h1l98 176l67 111h152l-249 -418v-282h-135v282z" />
    <glyph glyph-name="Z" unicode="Z" horiz-adv-x="626" 
d="M52 700h530v-98l-369 -481l1 -1l142 5h226v-125h-547v94l368 482l-1 1v1l-141 -3h-209v125z" />
    <glyph glyph-name="bracketleft" unicode="[" horiz-adv-x="307" 
d="M272 715v-104h-93v-679h93v-102h-203v885h203z" />
    <glyph glyph-name="backslash" unicode="\" horiz-adv-x="504" 
d="M360 -36l-328 768h112l328 -768h-112z" />
    <glyph glyph-name="bracketright" unicode="]" horiz-adv-x="307" 
d="M35 611v104h203v-885h-203v102h93v679h-93z" />
    <glyph glyph-name="underscore" unicode="_" horiz-adv-x="708" 
d="M121 -52h466v-95h-466v95z" />
    <glyph glyph-name="grave" unicode="`" horiz-adv-x="292" 
d="M43 714l103 56l78 -190h-76z" />
    <glyph glyph-name="a" unicode="a" horiz-adv-x="561" 
d="M71 496q100 34 204 34q97 0 149.5 -44.5t52.5 -128.5v-216q0 -18 22 -18q15 0 46 3v-109q-2 -2 -14.5 -6t-32 -7.5t-36.5 -3.5q-34 0 -61 15t-27 53v11q-22 -39 -65.5 -64t-96.5 -25q-76 0 -132 45.5t-56 123.5q0 81 60.5 123.5t154.5 42.5q50 0 108 -7v15q0 86 -94 86
q-70 0 -157 -20zM347 229q-52 8 -83 8q-27 0 -50 -4.5t-43.5 -22t-20.5 -45.5q0 -33 25 -52.5t60 -19.5q41 0 76.5 24.5t35.5 59.5v52z" />
    <glyph glyph-name="b" unicode="b" horiz-adv-x="626" 
d="M62 732h134v-264q48 62 155 62q105 0 172 -79.5t67 -189.5q0 -111 -69 -191t-178 -80q-107 0 -157 76l-17 -66h-107v732zM320 410q-63 0 -101 -43.5t-38 -106.5t38 -106.5t100 -43.5q59 0 97 40.5t38 110.5q0 69 -37 109t-97 40z" />
    <glyph glyph-name="c" unicode="c" horiz-adv-x="503" 
d="M317 -10q-121 0 -202 80t-81 190t81 190t202 80q82 0 164 -43l-48 -101q-56 24 -107 24q-42 0 -74 -15.5t-48 -40t-23.5 -48.5t-7.5 -46t7.5 -46t23.5 -48.5t48 -40t74 -15.5q51 0 107 24l48 -101q-82 -43 -164 -43z" />
    <glyph glyph-name="d" unicode="d" horiz-adv-x="626" 
d="M430 732h134v-732h-107l-17 66q-50 -76 -157 -76q-109 0 -178 80t-69 190t69 190t176 80q102 0 149 -62v264zM306 410q-60 0 -97 -40t-37 -109q0 -70 38 -110.5t97 -40.5q62 0 100 43.5t38 106.5t-38 106.5t-101 43.5z" />
    <glyph glyph-name="e" unicode="e" horiz-adv-x="563" 
d="M36 255q0 121 71.5 198t186.5 77t177 -76t62 -187l-5 -60h-349q4 -52 42 -77t90 -25q77 0 147 31l46 -101q-78 -45 -196 -45q-119 0 -195.5 73.5t-76.5 191.5zM177 303h226q-6 107 -101 107q-49 0 -82 -27.5t-43 -79.5z" />
    <glyph glyph-name="f" unicode="f" horiz-adv-x="358" 
d="M344 743l-14 -113q-30 2 -42 2q-42 0 -42 -63v-49h90v-102h-90v-418h-137v418h-85v81l85 21v54q0 88 38.5 132t130.5 44q28 0 66 -7z" />
    <glyph glyph-name="g" unicode="g" horiz-adv-x="555" 
d="M533 520v-99l-65 -16q19 -31 19 -72q0 -74 -55 -121t-155 -47q-64 0 -103 19q-18 -10 -18 -27q0 -11 5.5 -18.5t19 -12t25.5 -7t37 -4t40 -1.5h48h12q172 0 172 -133q0 -45 -23 -76.5t-61 -46.5t-73.5 -21t-72.5 -6q-39 0 -74 5t-75.5 18t-65 42t-24.5 72q0 27 11.5 48
t20 27.5t24.5 16.5q-56 26 -56 88q0 53 54 88q-47 50 -47 113q0 83 59 132t156 49q47 0 72 -10h193zM273 431q-43 0 -68.5 -24.5t-25.5 -61.5q0 -38 26 -63t67 -25q40 0 64.5 24.5t24.5 64.5q0 37 -23.5 61t-64.5 24zM351 14q-130 0 -166 7q-22 -11 -22 -39q0 -16 10 -26.5
t30.5 -15t38.5 -5.5t47 -1q108 0 108 47q0 33 -46 33z" />
    <glyph glyph-name="h" unicode="h" horiz-adv-x="597" 
d="M62 732h140v-265q49 63 141 63q83 0 139 -51.5t56 -165.5v-313h-139v306q0 44 -25.5 68.5t-66.5 24.5q-49 0 -77 -32.5t-28 -79.5v-287h-140v732z" />
    <glyph glyph-name="i" unicode="i" horiz-adv-x="285" 
d="M27 520h196v-520h-135v401l-61 22v97zM144 742q32 0 55 -23t23 -54t-23 -54t-55 -23t-53.5 22.5t-21.5 54.5q0 31 21.5 54t53.5 23z" />
    <glyph glyph-name="j" unicode="j" horiz-adv-x="292" 
d="M46 -170l-47 91l5 3q6 3 12 7t15 10.5t17 13t16 16t14 19t10 21.5t4 24v366l-67 21v98h205v-460q0 -38 -10 -70.5t-24 -55t-35.5 -41.5t-37 -29t-36.5 -19t-27 -11t-14 -4zM140 742q32 0 55 -23t23 -54t-23 -54t-55 -23t-53.5 22.5t-21.5 54.5q0 31 21.5 54t53.5 23z" />
    <glyph glyph-name="k" unicode="k" horiz-adv-x="542" 
d="M62 732h137v-292l-4 -143l90 124l80 99h174l-213 -246l201 -274h-158l-122 175l-48 -51v-124h-137v732z" />
    <glyph glyph-name="l" unicode="l" horiz-adv-x="291" 
d="M63 732h137v-591q0 -18 18 -18q16 0 48 3v-109q-2 -2 -17.5 -6t-39.5 -7.5t-43 -3.5q-50 0 -76.5 29t-26.5 77v626z" />
    <glyph glyph-name="m" unicode="m" horiz-adv-x="900" 
d="M63 520h107l22 -68v-1q16 33 57.5 56t84.5 23q44 0 87.5 -26t60.5 -67q21 41 64 67t104 26q85 0 138 -54.5t53 -162.5v-313h-140v310q0 37 -20 63t-64 26q-47 0 -71.5 -32t-24.5 -79v-288h-138v317q0 32 -20.5 57t-62.5 25q-47 0 -72 -32t-25 -78v-289h-140v520z" />
    <glyph glyph-name="n" unicode="n" horiz-adv-x="598" 
d="M63 520h107l22 -69q2 3 5.5 8.5t16.5 19t28.5 24t43 19t58.5 8.5q83 0 139 -51.5t56 -165.5v-313h-139v306q0 44 -25.5 68.5t-66.5 24.5q-49 0 -77 -32.5t-28 -79.5v-287h-140v520z" />
    <glyph glyph-name="o" unicode="o" horiz-adv-x="612" 
d="M35 260q0 118 78 194t193 76t193 -75.5t78 -194.5q0 -118 -78.5 -194t-192.5 -76t-192.5 76t-78.5 194zM306 410q-59 0 -96 -41.5t-37 -108.5q0 -65 37 -107.5t96 -42.5q57 0 95 43t38 107q0 66 -37.5 108t-95.5 42z" />
    <glyph glyph-name="p" unicode="p" horiz-adv-x="626" 
d="M320 410q-58 0 -98 -40.5t-40 -109.5q0 -67 37.5 -108.5t100.5 -41.5q56 0 95 42.5t39 107.5q0 67 -39 108.5t-95 41.5zM344 530q113 0 179.5 -76.5t66.5 -195.5q0 -113 -65.5 -190.5t-181.5 -77.5q-35 0 -79.5 19t-67.5 57v-236h-134v690h110l24 -71q26 38 67.5 59.5
t80.5 21.5z" />
    <glyph glyph-name="q" unicode="q" horiz-adv-x="626" 
d="M307 410q-57 0 -96 -41.5t-39 -108.5q0 -66 39 -108t99 -42q59 0 96.5 42t37.5 108q0 69 -40 109.5t-97 40.5zM276 530q104 0 154 -81l24 71h110v-690h-134v236q-22 -40 -65.5 -58t-90.5 -18q-103 0 -170.5 77t-67.5 194q0 115 67 192t173 77z" />
    <glyph glyph-name="r" unicode="r" horiz-adv-x="389" 
d="M62 515h110l18 -82q23 48 65 67.5t113 19.5v-142h-17q-151 0 -151 -146v-232h-138v515z" />
    <glyph glyph-name="s" unicode="s" horiz-adv-x="473" 
d="M226 -10q-98 0 -190 46l41 98q79 -35 143 -35q49 0 71.5 14t22.5 34q0 19 -20.5 32t-51 19.5t-66.5 18.5t-66.5 27.5t-51 48t-20.5 78.5q0 73 54 116t146 43q96 0 185 -41l-41 -97q-68 30 -135 30q-40 0 -60 -14.5t-20 -34.5q0 -18 20.5 -31t51 -19.5t66 -19t66 -28
t51 -48t20.5 -77.5q0 -75 -58 -117.5t-158 -42.5z" />
    <glyph glyph-name="t" unicode="t" horiz-adv-x="384" 
d="M116 670h116v-150h109v-102h-109v-252q0 -52 51 -52q13 0 61 6l20 -97q-50 -23 -103 -23q-91 0 -128.5 43.5t-37.5 141.5v233h-70v81l70 20z" />
    <glyph glyph-name="u" unicode="u" horiz-adv-x="597" 
d="M59 520h138v-305q0 -93 98 -93q44 0 72 23t28 68v307h140v-520h-107l-17 59q-52 -69 -148 -69q-100 0 -152 56.5t-52 161.5v312z" />
    <glyph glyph-name="v" unicode="v" horiz-adv-x="507" 
d="M3 520h141l106 -367h2l111 367h142l-189 -520h-132z" />
    <glyph glyph-name="w" unicode="w" horiz-adv-x="835" 
d="M5 520h146l95 -363h4l98 363h139l100 -363h3l93 363h146l-164 -520h-149l-97 340l-98 -340h-150z" />
    <glyph glyph-name="x" unicode="x" horiz-adv-x="551" 
d="M13 520h162l100 -169h2l100 169h161l-174 -261l175 -259h-161l-101 167h-2l-101 -167h-161l177 259z" />
    <glyph glyph-name="y" unicode="y" horiz-adv-x="552" 
d="M0 520h145l128 -375h3l132 375h145l-223 -553q-30 -75 -65 -106t-97 -31q-57 0 -112 17l24 125q60 -10 84 -9q24 0 38 40z" />
    <glyph glyph-name="z" unicode="z" horiz-adv-x="521" 
d="M50 520h429v-105l-282 -306q0 -1 0.5 -3l0.5 -2l144 4h137v-108h-444v103l286 309l-1 4l-145 -4h-125v108z" />
    <glyph glyph-name="braceleft" unicode="{" horiz-adv-x="333" 
d="M139 273q32 -5 45.5 -19.5t13.5 -43.5v-221q0 -59 41 -59h60v-100h-60q-89 0 -119.5 42t-30.5 116v201q0 13 -4.5 22t-12 12.5t-14 4.5t-15 1.5t-10.5 0.5v86q2 0 10.5 0.5t15 1.5t14 4.5t12 12.5t4.5 22v200q0 74 30.5 116t119.5 42h60v-100h-60q-41 0 -41 -59v-220
q0 -29 -13.5 -43.5t-45.5 -19.5z" />
    <glyph glyph-name="bar" unicode="|" horiz-adv-x="250" 
d="M69 789h112v-948h-112v948z" />
    <glyph glyph-name="braceright" unicode="}" horiz-adv-x="333" 
d="M194 273q-31 4 -43.5 18.5t-12.5 44.5v220q0 59 -44 59h-60v100h60q89 0 119.5 -42t30.5 -116v-200q0 -13 4.5 -22t12 -12.5t14 -4.5t15 -1.5t10.5 -0.5v-86q-2 0 -10.5 -0.5t-15 -1.5t-14 -4.5t-12 -12.5t-4.5 -22v-201q0 -74 -30.5 -116t-119.5 -42h-60v100h60
q44 0 44 59v221q0 30 12.5 44.5t43.5 18.5z" />
    <glyph glyph-name="exclamdown" unicode="&#xa1;" horiz-adv-x="281" 
d="M222 -17h-163l27 480h109zM143 558q-35 0 -58.5 22.5t-23.5 56.5t23.5 56t58.5 22q34 0 56 -22.5t22 -55.5q0 -34 -22 -56.5t-56 -22.5z" />
    <glyph glyph-name="cent" unicode="&#xa2;" horiz-adv-x="548" 
d="M359 -110h-72v106q-104 14 -170 88.5t-66 174.5q0 102 66 177.5t170 90.5v106h72v-103q69 -6 139 -43l-48 -102q-58 25 -109 25q-70 0 -109.5 -44.5t-39.5 -106.5q0 -54 37.5 -101.5t112.5 -47.5q54 0 108 24l43 -103q-50 -26 -134 -38v-103z" />
    <glyph glyph-name="sterling" unicode="&#xa3;" horiz-adv-x="557" 
d="M503 633l-89 -95q-34 38 -84 38q-38 0 -61 -25t-23 -63v-113h198v-77h-198v-82q0 -63 -51 -102h308v-114h-445v113q6 3 14 9.5t22 31.5t14 55v89h-48v77h48v113q0 97 60 162t162 65q47 0 93.5 -23t79.5 -59z" />
    <glyph glyph-name="yen" unicode="&#xa5;" horiz-adv-x="708" 
d="M38 700h157l111 -187l49 -90h1l50 90l111 187h156l-250 -418v-18h110v-73h-110v-30h110v-73h-110v-88h-135v88h-129v73h129v30h-129v73h129v18z" />
    <glyph glyph-name="section" unicode="&#xa7;" horiz-adv-x="619" 
d="M533 640l-72 -106q-62 37 -145 37q-40 0 -74 -12.5t-34 -37.5q0 -13 9.5 -23.5t31.5 -20.5t40 -16.5t53 -16.5q42 -13 68 -22t59 -24.5t52 -32t32.5 -41t13.5 -53.5q0 -51 -34 -88t-82 -52q99 -43 99 -131q0 -58 -40 -98t-96 -56t-121 -16q-58 0 -120 17.5t-102 44.5
l72 105q61 -37 161 -37q107 0 107 49q0 33 -125 70q-4 2 -6.5 2.5t-6 1.5t-6.5 2q-46 14 -79.5 27.5t-67.5 34.5t-51.5 50t-17.5 64q0 49 33 83.5t87 45.5q-52 20 -76 57.5t-24 79.5q0 80 74.5 126.5t175.5 46.5q116 0 212 -60zM315 322q-52 0 -87.5 -14.5t-35.5 -41.5
q0 -24 27.5 -40.5t79.5 -17.5q48 -1 88 14t40 43q0 23 -27.5 40t-84.5 17z" />
    <glyph glyph-name="dieresis" unicode="&#xa8;" horiz-adv-x="453" 
d="M205 660q0 -29 -20 -48t-53 -19q-29 0 -49 19t-20 48t20.5 49t48.5 20q33 0 53 -19t20 -50zM438 660q0 -29 -20 -48t-53 -19q-29 0 -49 19t-20 48t20.5 49t48.5 20q33 0 53 -19t20 -50z" />
    <glyph glyph-name="copyright" unicode="&#xa9;" horiz-adv-x="803" 
d="M537 487l-50 -68q-33 24 -78 24q-38 0 -65.5 -28.5t-27.5 -66.5t27 -66t66 -28q45 0 78 25l50 -69q-49 -54 -129 -54t-136.5 56.5t-56.5 137.5q0 80 56.5 136t136.5 56q76 0 129 -55zM401 700q144 0 246.5 -103t102.5 -246q0 -144 -103 -247.5t-246 -103.5t-245.5 103.5
t-102.5 247.5q0 143 102.5 246t245.5 103zM401 642q-119 0 -204.5 -86t-85.5 -205q0 -121 85 -207t205 -86q121 0 206 86t85 207q0 119 -85.5 205t-205.5 86z" />
    <glyph glyph-name="ordfeminine" unicode="&#xaa;" horiz-adv-x="505" 
d="M106 708q58 24 132 24q68 0 108.5 -36t40.5 -98v-147q0 -22 20 -22q7 0 27 4v-73q-22 -18 -55 -18q-29 0 -49 15.5t-22 35.5q-11 -18 -39 -34t-68 -16q-54 0 -93.5 33t-39.5 92q0 56 42 82.5t103 26.5q18 0 37.5 -2.5t30.5 -4.5l11 -2v14q0 31 -17.5 47t-63.5 16
q-35 0 -87 -13zM68 294h366v-82h-366v82zM292 508q-40 8 -66 8q-67 0 -67 -46q0 -24 17 -36t40 -12q29 0 52.5 18t23.5 50v18z" />
    <glyph glyph-name="guillemotleft" unicode="&#xab;" horiz-adv-x="641" 
d="M528 514l70 -71l-134 -183l133 -184l-69 -70l-215 239v29zM252 514l69 -71l-134 -183l133 -184l-68 -70l-216 239v29z" />
    <glyph glyph-name="registered" unicode="&#xae;" horiz-adv-x="579" 
d="M289 700q94 0 159.5 -66t65.5 -160q0 -92 -66 -158t-159 -66q-92 0 -158 66t-66 158q0 94 66 160t158 66zM289 650q-72 0 -123 -52t-51 -124q0 -73 51 -123.5t123 -50.5q71 0 123 50.5t52 123.5q0 72 -51.5 124t-123.5 52zM201 596h108q29 0 50 -22t21 -52
q0 -21 -12.5 -39t-32.5 -26l57 -97h-52l-53 92h-41v-92h-45v236zM246 551v-54h63q11 0 19 7.5t8 17.5q0 29 -40 29h-50z" />
    <glyph glyph-name="macron" unicode="&#xaf;" horiz-adv-x="436" 
d="M53 671h314v-82h-314v82z" />
    <glyph glyph-name="degree" unicode="&#xb0;" horiz-adv-x="297" 
d="M41 608q0 48 33 77.5t75 29.5q43 0 75 -29.5t32 -76.5q0 -48 -32 -78t-75 -30q-42 0 -75 30t-33 77zM95 608q0 -23 16.5 -36.5t37.5 -13.5t37.5 13.5t16.5 36.5t-16.5 36.5t-37.5 13.5t-37.5 -13.5t-16.5 -36.5z" />
    <glyph glyph-name="plusminus" unicode="&#xb1;" horiz-adv-x="522" 
d="M217 530h89v-141h154v-85h-154v-142h-89v142h-155v85h155v141zM63 100h397v-89h-397v89z" />
    <glyph glyph-name="acute" unicode="&#xb4;" horiz-adv-x="292" 
d="M141 770l103 -56l-105 -134h-76z" />
    <glyph glyph-name="paragraph" unicode="&#xb6;" horiz-adv-x="636" 
d="M544 -85h-100v684h-86v-684h-101v344h-19q-92 0 -143 63.5t-51 157.5q0 60 21.5 105t55.5 69t68 35t67 11h288v-785z" />
    <glyph glyph-name="periodcentered" unicode="&#xb7;" horiz-adv-x="280" 
d="M139 393q38 0 64.5 -26.5t26.5 -63.5t-26.5 -63.5t-64.5 -26.5q-36 0 -62.5 26.5t-26.5 63.5t26.5 63.5t62.5 26.5z" />
    <glyph glyph-name="cedilla" unicode="&#xb8;" horiz-adv-x="332" 
d="M135 14h36l-10 -62q7 1 12 1q43 0 68 -19t25 -57q0 -45 -34.5 -69.5t-83.5 -24.5q-43 0 -83 25l20 53q37 -12 56 -11q38 2 38 32q0 12 -10 22t-33 10l-14 -1l-23 23z" />
    <glyph glyph-name="ordmasculine" unicode="&#xba;" horiz-adv-x="518" 
d="M255 317q-85 0 -142 54.5t-57 135.5v2q0 80 58.5 135.5t144.5 55.5q85 0 142 -54.5t57 -135.5v-3q0 -79 -58.5 -134.5t-144.5 -55.5zM56 193v83h402v-83h-402zM259 411q41 0 66.5 28t25.5 68v2q0 40 -27 68.5t-69 28.5q-41 0 -66.5 -28t-25.5 -68v-3q0 -40 27 -68t69 -28
z" />
    <glyph glyph-name="guillemotright" unicode="&#xbb;" horiz-adv-x="641" 
d="M320 443l69 71l216 -240v-29l-216 -239l-68 70l133 184zM43 443l70 71l215 -240v-29l-215 -239l-69 70l133 184z" />
    <glyph glyph-name="questiondown" unicode="&#xbf;" horiz-adv-x="514" 
d="M278 -23q-90 0 -157 51t-67 137q0 37 13.5 66.5t33.5 47t43.5 34.5t43.5 29.5t33.5 32t13.5 42.5v53h112v-63q0 -38 -16.5 -67t-40 -47.5t-47 -35t-40 -38t-16.5 -48.5q0 -33 27.5 -55.5t66.5 -22.5q31 0 70.5 13t61.5 28l60 -94q-37 -27 -90 -45t-105 -18zM286 558
q-34 0 -56 22.5t-22 56.5q0 33 22 55.5t56 22.5q35 0 58.5 -22t23.5 -56t-23.5 -56.5t-58.5 -22.5z" />
    <glyph glyph-name="Agrave" unicode="&#xc0;" horiz-adv-x="658" 
d="M179 884l103 56l78 -190h-76zM257 715h144l262 -715h-148l-60 177h-252l-60 -177h-148zM328 576l-91 -287h184z" />
    <glyph glyph-name="Aacute" unicode="&#xc1;" horiz-adv-x="658" 
d="M375 940l103 -56l-105 -134h-76zM257 715h144l262 -715h-148l-60 177h-252l-60 -177h-148zM328 576l-91 -287h184z" />
    <glyph glyph-name="Acircumflex" unicode="&#xc2;" horiz-adv-x="658" 
d="M246 750h-99l134 145h92l139 -145h-103l-80 68zM257 715h144l262 -715h-148l-60 177h-252l-60 -177h-148zM328 576l-91 -287h184z" />
    <glyph glyph-name="Atilde" unicode="&#xc3;" horiz-adv-x="658" 
d="M199 757l-38 30q21 36 52 62t67 26q27 0 65.5 -21t60.5 -21q27 0 55 34l37 -28q-49 -89 -119 -89q-30 0 -65.5 20.5t-58.5 20.5q-25 0 -56 -34zM257 715h144l262 -715h-148l-60 177h-252l-60 -177h-148zM328 576l-91 -287h184z" />
    <glyph glyph-name="Adieresis" unicode="&#xc4;" horiz-adv-x="658" 
d="M284 817q0 -29 -20 -48t-53 -19q-29 0 -49 19t-20 48t20.5 49t48.5 20q33 0 53 -19t20 -50zM517 817q0 -29 -20 -48t-53 -19q-29 0 -49 19t-20 48t20.5 49t48.5 20q33 0 53 -19t20 -50zM257 715h144l262 -715h-148l-60 177h-252l-60 -177h-148zM328 576l-91 -287h184z
" />
    <glyph glyph-name="Aring" unicode="&#xc5;" horiz-adv-x="658" 
d="M330 751q-37 0 -67 26t-30 69t30 69t67 26t67 -26t30 -69t-30 -69t-67 -26zM330 886q-18 0 -31.5 -10.5t-13.5 -29.5t13.5 -29.5t31.5 -10.5t31.5 10.5t13.5 29.5t-13.5 29.5t-31.5 10.5zM257 715h144l262 -715h-148l-60 177h-252l-60 -177h-148zM328 576l-91 -287h184z
" />
    <glyph glyph-name="AE" unicode="&#xc6;" horiz-adv-x="964" 
d="M920 0h-462v177h-233l-83 -177h-154l334 700h591v-130h-315v-165h263v-126h-263v-149h322v-130zM458 570h-67l-122 -281h189v281z" />
    <glyph glyph-name="Ccedilla" unicode="&#xc7;" horiz-adv-x="665" 
d="M423 -15h-5l-6 -31q7 1 12 1q93 0 93 -76q0 -44 -34.5 -69t-83.5 -25q-43 0 -83 25l20 53q37 -12 56 -11q38 2 38 32q0 12 -10 22t-33 10l-14 -1l-23 23l24 50q-144 17 -239 121t-95 241q0 150 110.5 257.5t272.5 107.5q61 -1 119.5 -18t94.5 -40l-51 -107
q-73 40 -166 40q-102 0 -166.5 -68t-64.5 -172t64.5 -172t166.5 -68q41 0 82.5 10t62.5 20l21 10l51 -107q-36 -23 -94.5 -40t-119.5 -18z" />
    <glyph glyph-name="Egrave" unicode="&#xc8;" horiz-adv-x="622" 
d="M78 700h495v-130h-355v-165h303v-126h-303v-149h362v-130h-502v700zM198 884l103 56l78 -190h-76z" />
    <glyph glyph-name="Eacute" unicode="&#xc9;" horiz-adv-x="622" 
d="M78 700h495v-130h-355v-165h303v-126h-303v-149h362v-130h-502v700zM341 940l103 -56l-105 -134h-76z" />
    <glyph glyph-name="Ecircumflex" unicode="&#xca;" horiz-adv-x="622" 
d="M78 700h495v-130h-355v-165h303v-126h-303v-149h362v-130h-502v700zM234 750h-99l134 145h92l139 -145h-103l-80 68z" />
    <glyph glyph-name="Edieresis" unicode="&#xcb;" horiz-adv-x="622" 
d="M78 700h495v-130h-355v-165h303v-126h-303v-149h362v-130h-502v700zM273 817q0 -29 -20 -48t-53 -19q-29 0 -49 19t-20 48t20.5 49t48.5 20q33 0 53 -19t20 -50zM506 817q0 -29 -20 -48t-53 -19q-29 0 -49 19t-20 48t20.5 49t48.5 20q33 0 53 -19t20 -50z" />
    <glyph glyph-name="Igrave" unicode="&#xcc;" horiz-adv-x="296" 
d="M78 700h140v-700h-140v700zM4 884l103 56l78 -190h-76z" />
    <glyph glyph-name="Iacute" unicode="&#xcd;" horiz-adv-x="296" 
d="M78 700h140v-700h-140v700zM196 940l103 -56l-105 -134h-76z" />
    <glyph glyph-name="Icircumflex" unicode="&#xce;" horiz-adv-x="296" 
d="M78 700h140v-700h-140v700zM65 750h-99l134 145h92l139 -145h-103l-80 68z" />
    <glyph glyph-name="Idieresis" unicode="&#xcf;" horiz-adv-x="296" 
d="M78 700h140v-700h-140v700zM103 817q0 -29 -20 -48t-53 -19q-29 0 -49 19t-20 48t20.5 49t48.5 20q33 0 53 -19t20 -50zM336 817q0 -29 -20 -48t-53 -19q-29 0 -49 19t-20 48t20.5 49t48.5 20q33 0 53 -19t20 -50z" />
    <glyph glyph-name="Eth" unicode="&#xd0;" horiz-adv-x="708" 
d="M340 0h-247v319h-89v69h89v312h247q92 0 167 -44q156 -92 158 -306q0 -97 -39.5 -179t-118.5 -127q-77 -44 -167 -44zM233 568v-180h122v-69h-122v-187h80q75 0 132 31q80 45 80 188q0 137 -80 186q-51 31 -132 31h-80z" />
    <glyph glyph-name="Ntilde" unicode="&#xd1;" horiz-adv-x="732" 
d="M78 700h145l203 -317l92 -161h2l-6 191v287h140v-700h-144l-204 335l-92 153h-2l6 -164v-324h-140v700zM246 757l-38 30q21 36 52 62t67 26q27 0 65.5 -21t60.5 -21q27 0 55 34l37 -28q-49 -89 -119 -89q-30 0 -65.5 20.5t-58.5 20.5q-25 0 -56 -34z" />
    <glyph glyph-name="Ograve" unicode="&#xd2;" horiz-adv-x="803" 
d="M270 884l103 56l78 -190h-76zM40 352q0 155 108.5 259t255.5 104q150 0 254.5 -106t104.5 -257q0 -156 -107.5 -261.5t-251.5 -105.5q-151 0 -257.5 106.5t-106.5 260.5zM188 352q0 -106 60 -174t156 -68q94 0 152 68t58 174q0 104 -59 170.5t-156 66.5q-93 0 -152 -67
t-59 -170z" />
    <glyph glyph-name="Oacute" unicode="&#xd3;" horiz-adv-x="803" 
d="M434 940l103 -56l-105 -134h-76zM40 352q0 155 108.5 259t255.5 104q150 0 254.5 -106t104.5 -257q0 -156 -107.5 -261.5t-251.5 -105.5q-151 0 -257.5 106.5t-106.5 260.5zM188 352q0 -106 60 -174t156 -68q94 0 152 68t58 174q0 104 -59 170.5t-156 66.5
q-93 0 -152 -67t-59 -170z" />
    <glyph glyph-name="Ocircumflex" unicode="&#xd4;" horiz-adv-x="803" 
d="M322 750h-99l134 145h92l139 -145h-103l-80 68zM40 352q0 155 108.5 259t255.5 104q150 0 254.5 -106t104.5 -257q0 -156 -107.5 -261.5t-251.5 -105.5q-151 0 -257.5 106.5t-106.5 260.5zM188 352q0 -106 60 -174t156 -68q94 0 152 68t58 174q0 104 -59 170.5t-156 66.5
q-93 0 -152 -67t-59 -170z" />
    <glyph glyph-name="Otilde" unicode="&#xd5;" horiz-adv-x="803" 
d="M271 757l-38 30q21 36 52 62t67 26q27 0 65.5 -21t60.5 -21q27 0 55 34l37 -28q-49 -89 -119 -89q-30 0 -65.5 20.5t-58.5 20.5q-25 0 -56 -34zM40 352q0 155 108.5 259t255.5 104q150 0 254.5 -106t104.5 -257q0 -156 -107.5 -261.5t-251.5 -105.5q-151 0 -257.5 106.5
t-106.5 260.5zM188 352q0 -106 60 -174t156 -68q94 0 152 68t58 174q0 104 -59 170.5t-156 66.5q-93 0 -152 -67t-59 -170z" />
    <glyph glyph-name="Odieresis" unicode="&#xd6;" horiz-adv-x="803" 
d="M360 817q0 -29 -20 -48t-53 -19q-29 0 -49 19t-20 48t20.5 49t48.5 20q33 0 53 -19t20 -50zM593 817q0 -29 -20 -48t-53 -19q-29 0 -49 19t-20 48t20.5 49t48.5 20q33 0 53 -19t20 -50zM40 352q0 155 108.5 259t255.5 104q150 0 254.5 -106t104.5 -257
q0 -156 -107.5 -261.5t-251.5 -105.5q-151 0 -257.5 106.5t-106.5 260.5zM188 352q0 -106 60 -174t156 -68q94 0 152 68t58 174q0 104 -59 170.5t-156 66.5q-93 0 -152 -67t-59 -170z" />
    <glyph glyph-name="multiply" unicode="&#xd7;" horiz-adv-x="441" 
d="M116 478l104 -104l106 106l54 -54l-105 -105l104 -104l-54 -56l-105 105l-103 -105l-55 56l104 104l-104 104z" />
    <glyph glyph-name="Oslash" unicode="&#xd8;" horiz-adv-x="803" 
d="M697 732l-65 -99q61 -51 96 -124.5t35 -156.5q0 -156 -107.5 -261.5t-251.5 -105.5q-88 0 -168 40l-40 -62h-83l65 100q-64 51 -101 126.5t-37 162.5q0 155 108.5 259t255.5 104q89 0 170 -43l39 60h84zM188 352q0 -109 62 -177l253 388q-46 26 -104 26q-93 0 -152 -67
t-59 -170zM614 352q0 102 -56 167l-252 -387q44 -22 98 -22q94 0 152 68t58 174z" />
    <glyph glyph-name="Ugrave" unicode="&#xd9;" horiz-adv-x="717" 
d="M74 700h136v-438q0 -57 42.5 -93.5t106.5 -36.5t106 36.5t42 93.5v438h137v-435q0 -119 -75.5 -192t-209.5 -73t-209.5 73t-75.5 192v435zM235 884l103 56l78 -190h-76z" />
    <glyph glyph-name="Uacute" unicode="&#xda;" horiz-adv-x="717" 
d="M74 700h136v-438q0 -57 42.5 -93.5t106.5 -36.5t106 36.5t42 93.5v438h137v-435q0 -119 -75.5 -192t-209.5 -73t-209.5 73t-75.5 192v435zM364 940l103 -56l-105 -134h-76z" />
    <glyph glyph-name="Ucircumflex" unicode="&#xdb;" horiz-adv-x="716" 
d="M73 700h136v-438q0 -57 42.5 -93.5t106.5 -36.5t106 36.5t42 93.5v438h137v-435q0 -119 -75.5 -192t-209.5 -73t-209.5 73t-75.5 192v435zM275 750h-99l134 145h92l139 -145h-103l-80 68z" />
    <glyph glyph-name="Udieresis" unicode="&#xdc;" horiz-adv-x="716" 
d="M73 700h136v-438q0 -57 42.5 -93.5t106.5 -36.5t106 36.5t42 93.5v438h137v-435q0 -119 -75.5 -192t-209.5 -73t-209.5 73t-75.5 192v435zM313 817q0 -29 -20 -48t-53 -19q-29 0 -49 19t-20 48t20.5 49t48.5 20q33 0 53 -19t20 -50zM546 817q0 -29 -20 -48t-53 -19
q-29 0 -49 19t-20 48t20.5 49t48.5 20q33 0 53 -19t20 -50z" />
    <glyph glyph-name="Yacute" unicode="&#xdd;" horiz-adv-x="607" 
d="M-14 700h154l66 -112l96 -175h1l98 176l67 111h152l-249 -418v-282h-135v282zM313 940l103 -56l-105 -134h-76z" />
    <glyph glyph-name="Thorn" unicode="&#xde;" horiz-adv-x="623" 
d="M78 700h140v-120h168q88 0 151.5 -67.5t63.5 -155.5t-63 -156.5t-149 -68.5h-171v-132h-140v700zM218 448v-186h168q30 0 52.5 30.5t22.5 64.5q0 91 -117 91h-126z" />
    <glyph glyph-name="germandbls" unicode="&#xdf;" horiz-adv-x="633" 
d="M310 715q91 0 156.5 -60.5t65.5 -148.5q0 -41 -17 -67t-34 -46t-17 -46q0 -16 21.5 -35.5t48 -38t48 -52.5t21.5 -74q0 -87 -58 -140t-148 -53q-73 0 -126 32l43 123q50 -18 83 -18q66 0 66 59q0 24 -14.5 42.5t-35 32t-41 27.5t-35 36t-14.5 51q0 24 11 43.5t23.5 31.5
t23.5 33t11 47q0 36 -25.5 59.5t-61.5 23.5q-35 0 -57.5 -11.5t-32 -34t-12.5 -42t-3 -49.5v-440h-138v485q0 96 68.5 163t179.5 67z" />
    <glyph glyph-name="agrave" unicode="&#xe0;" horiz-adv-x="561" 
d="M149 724l103 56l78 -190h-76zM71 496q100 34 204 34q97 0 149.5 -44.5t52.5 -128.5v-216q0 -18 22 -18q15 0 46 3v-109q-2 -2 -14.5 -6t-32 -7.5t-36.5 -3.5q-34 0 -61 15t-27 53v11q-22 -39 -65.5 -64t-96.5 -25q-76 0 -132 45.5t-56 123.5q0 81 60.5 123.5t154.5 42.5
q50 0 108 -7v15q0 86 -94 86q-70 0 -157 -20zM347 229q-52 8 -83 8q-27 0 -50 -4.5t-43.5 -22t-20.5 -45.5q0 -33 25 -52.5t60 -19.5q41 0 76.5 24.5t35.5 59.5v52z" />
    <glyph glyph-name="aacute" unicode="&#xe1;" horiz-adv-x="561" 
d="M291 780l103 -56l-105 -134h-76zM71 496q100 34 204 34q97 0 149.5 -44.5t52.5 -128.5v-216q0 -18 22 -18q15 0 46 3v-109q-2 -2 -14.5 -6t-32 -7.5t-36.5 -3.5q-34 0 -61 15t-27 53v11q-22 -39 -65.5 -64t-96.5 -25q-76 0 -132 45.5t-56 123.5q0 81 60.5 123.5
t154.5 42.5q50 0 108 -7v15q0 86 -94 86q-70 0 -157 -20zM347 229q-52 8 -83 8q-27 0 -50 -4.5t-43.5 -22t-20.5 -45.5q0 -33 25 -52.5t60 -19.5q41 0 76.5 24.5t35.5 59.5v52z" />
    <glyph glyph-name="acircumflex" unicode="&#xe2;" horiz-adv-x="561" 
d="M196 590h-99l134 145h92l139 -145h-103l-80 68zM71 496q100 34 204 34q97 0 149.5 -44.5t52.5 -128.5v-216q0 -18 22 -18q15 0 46 3v-109q-2 -2 -14.5 -6t-32 -7.5t-36.5 -3.5q-34 0 -61 15t-27 53v11q-22 -39 -65.5 -64t-96.5 -25q-76 0 -132 45.5t-56 123.5
q0 81 60.5 123.5t154.5 42.5q50 0 108 -7v15q0 86 -94 86q-70 0 -157 -20zM347 229q-52 8 -83 8q-27 0 -50 -4.5t-43.5 -22t-20.5 -45.5q0 -33 25 -52.5t60 -19.5q41 0 76.5 24.5t35.5 59.5v52z" />
    <glyph glyph-name="atilde" unicode="&#xe3;" horiz-adv-x="561" 
d="M115 597l-38 30q21 36 52 62t67 26q27 0 65.5 -21t60.5 -21q27 0 55 34l37 -28q-49 -89 -119 -89q-30 0 -65.5 20.5t-58.5 20.5q-25 0 -56 -34zM71 496q100 34 204 34q97 0 149.5 -44.5t52.5 -128.5v-216q0 -18 22 -18q15 0 46 3v-109q-2 -2 -14.5 -6t-32 -7.5
t-36.5 -3.5q-34 0 -61 15t-27 53v11q-22 -39 -65.5 -64t-96.5 -25q-76 0 -132 45.5t-56 123.5q0 81 60.5 123.5t154.5 42.5q50 0 108 -7v15q0 86 -94 86q-70 0 -157 -20zM347 229q-52 8 -83 8q-27 0 -50 -4.5t-43.5 -22t-20.5 -45.5q0 -33 25 -52.5t60 -19.5q41 0 76.5 24.5
t35.5 59.5v52z" />
    <glyph glyph-name="adieresis" unicode="&#xe4;" horiz-adv-x="561" 
d="M218 657q0 -29 -20 -48t-53 -19q-29 0 -49 19t-20 48t20.5 49t48.5 20q33 0 53 -19t20 -50zM451 657q0 -29 -20 -48t-53 -19q-29 0 -49 19t-20 48t20.5 49t48.5 20q33 0 53 -19t20 -50zM71 496q100 34 204 34q97 0 149.5 -44.5t52.5 -128.5v-216q0 -18 22 -18q15 0 46 3
v-109q-2 -2 -14.5 -6t-32 -7.5t-36.5 -3.5q-34 0 -61 15t-27 53v11q-22 -39 -65.5 -64t-96.5 -25q-76 0 -132 45.5t-56 123.5q0 81 60.5 123.5t154.5 42.5q50 0 108 -7v15q0 86 -94 86q-70 0 -157 -20zM347 229q-52 8 -83 8q-27 0 -50 -4.5t-43.5 -22t-20.5 -45.5
q0 -33 25 -52.5t60 -19.5q41 0 76.5 24.5t35.5 59.5v52z" />
    <glyph glyph-name="aring" unicode="&#xe5;" horiz-adv-x="561" 
d="M277 591q-37 0 -67 26t-30 69t30 69t67 26t67 -26t30 -69t-30 -69t-67 -26zM277 726q-18 0 -31.5 -10.5t-13.5 -29.5t13.5 -29.5t31.5 -10.5t31.5 10.5t13.5 29.5t-13.5 29.5t-31.5 10.5zM71 496q100 34 204 34q97 0 149.5 -44.5t52.5 -128.5v-216q0 -18 22 -18
q15 0 46 3v-109q-2 -2 -14.5 -6t-32 -7.5t-36.5 -3.5q-34 0 -61 15t-27 53v11q-22 -39 -65.5 -64t-96.5 -25q-76 0 -132 45.5t-56 123.5q0 81 60.5 123.5t154.5 42.5q50 0 108 -7v15q0 86 -94 86q-70 0 -157 -20zM347 229q-52 8 -83 8q-27 0 -50 -4.5t-43.5 -22t-20.5 -45.5
q0 -33 25 -52.5t60 -19.5q41 0 76.5 24.5t35.5 59.5v52z" />
    <glyph glyph-name="ae" unicode="&#xe6;" horiz-adv-x="861" 
d="M69 496q100 34 204 34q106 0 159 -53q65 53 160 53q115 0 177 -76t62 -187l-5 -60h-349q4 -51 41 -76.5t95 -25.5q73 0 143 31l46 -101q-78 -45 -192 -45q-136 0 -213 86q-76 -86 -187 -86q-77 0 -132.5 45t-55.5 124q0 83 60 124.5t154 41.5q48 0 104 -7l5 22
q-3 79 -95 79q-69 0 -156 -20zM345 173q-7 24 -10 57q-40 7 -73 7q-27 0 -50 -4.5t-43.5 -22t-20.5 -45.5q0 -33 25 -52.5t60 -19.5q40 0 75 23.5t37 56.5zM475 303h226q-6 107 -101 107q-49 0 -82 -27.5t-43 -79.5z" />
    <glyph glyph-name="ccedilla" unicode="&#xe7;" horiz-adv-x="503" 
d="M311 -10l-6 -38q7 1 12 1q43 0 68 -19t25 -57q0 -45 -34.5 -69.5t-83.5 -24.5q-43 0 -83 25l20 53q37 -12 56 -11q38 2 38 32q0 12 -10 22t-33 10l-14 -1l-23 23l27 58q-104 16 -170 92t-66 174q0 110 81 190t202 80q82 0 164 -43l-48 -101q-56 24 -107 24
q-42 0 -74 -15.5t-48 -40t-23.5 -48.5t-7.5 -46t7.5 -46t23.5 -48.5t48 -40t74 -15.5q51 0 107 24l48 -101q-82 -43 -170 -43z" />
    <glyph glyph-name="egrave" unicode="&#xe8;" horiz-adv-x="563" 
d="M183 724l103 56l78 -190h-76zM36 255q0 121 71.5 198t186.5 77t177 -76t62 -187l-5 -60h-349q4 -52 42 -77t90 -25q77 0 147 31l46 -101q-78 -45 -196 -45q-119 0 -195.5 73.5t-76.5 191.5zM177 303h226q-6 107 -101 107q-49 0 -82 -27.5t-43 -79.5z" />
    <glyph glyph-name="eacute" unicode="&#xe9;" horiz-adv-x="563" 
d="M323 780l103 -56l-105 -134h-76zM36 255q0 121 71.5 198t186.5 77t177 -76t62 -187l-5 -60h-349q4 -52 42 -77t90 -25q77 0 147 31l46 -101q-78 -45 -196 -45q-119 0 -195.5 73.5t-76.5 191.5zM177 303h226q-6 107 -101 107q-49 0 -82 -27.5t-43 -79.5z" />
    <glyph glyph-name="ecircumflex" unicode="&#xea;" horiz-adv-x="563" 
d="M213 590h-99l134 145h92l139 -145h-103l-80 68zM36 255q0 121 71.5 198t186.5 77t177 -76t62 -187l-5 -60h-349q4 -52 42 -77t90 -25q77 0 147 31l46 -101q-78 -45 -196 -45q-119 0 -195.5 73.5t-76.5 191.5zM177 303h226q-6 107 -101 107q-49 0 -82 -27.5t-43 -79.5z
" />
    <glyph glyph-name="edieresis" unicode="&#xeb;" horiz-adv-x="563" 
d="M247 657q0 -29 -20 -48t-53 -19q-29 0 -49 19t-20 48t20.5 49t48.5 20q33 0 53 -19t20 -50zM480 657q0 -29 -20 -48t-53 -19q-29 0 -49 19t-20 48t20.5 49t48.5 20q33 0 53 -19t20 -50zM36 255q0 121 71.5 198t186.5 77t177 -76t62 -187l-5 -60h-349q4 -52 42 -77t90 -25
q77 0 147 31l46 -101q-78 -45 -196 -45q-119 0 -195.5 73.5t-76.5 191.5zM177 303h226q-6 107 -101 107q-49 0 -82 -27.5t-43 -79.5z" />
    <glyph glyph-name="igrave" unicode="&#xec;" horiz-adv-x="285" 
d="M27 520h196v-520h-135v401l-61 22v97zM1 724l103 56l78 -190h-76z" />
    <glyph glyph-name="iacute" unicode="&#xed;" horiz-adv-x="285" 
d="M27 520h196v-520h-135v401l-61 22v97zM169 780l103 -56l-105 -134h-76z" />
    <glyph glyph-name="icircumflex" unicode="&#xee;" horiz-adv-x="285" 
d="M27 520h196v-520h-135v401l-61 22v97zM36 590h-99l134 145h92l139 -145h-103l-80 68z" />
    <glyph glyph-name="idieresis" unicode="&#xef;" horiz-adv-x="285" 
d="M27 520h196v-520h-135v401l-61 22v97zM83 657q0 -29 -20 -48t-53 -19q-29 0 -49 19t-20 48t20.5 49t48.5 20q33 0 53 -19t20 -50zM316 657q0 -29 -20 -48t-53 -19q-29 0 -49 19t-20 48t20.5 49t48.5 20q33 0 53 -19t20 -50z" />
    <glyph glyph-name="eth" unicode="&#xf0;" horiz-adv-x="575" 
d="M242 732h1q73 -32 124 -71l83 56l31 -43l-74 -49q55 -59 87.5 -148t32.5 -177q0 -136 -68 -218t-182 -82q-103 0 -171 66.5t-68 173.5q0 106 71 169t160 63q84 0 119 -41q-4 69 -62 140l-80 -54l-30 43l75 50q-36 34 -86 60zM278 367q-59 0 -91.5 -38.5t-32.5 -87.5
q0 -50 32.5 -87.5t88.5 -37.5q54 0 89 36.5t35 89.5q0 49 -30.5 87t-90.5 38z" />
    <glyph glyph-name="ntilde" unicode="&#xf1;" horiz-adv-x="598" 
d="M184 597l-38 30q21 36 52 62t67 26q27 0 65.5 -21t60.5 -21q27 0 55 34l37 -28q-49 -89 -119 -89q-30 0 -65.5 20.5t-58.5 20.5q-25 0 -56 -34zM63 520h107l22 -69q2 3 5.5 8.5t16.5 19t28.5 24t43 19t58.5 8.5q83 0 139 -51.5t56 -165.5v-313h-139v306q0 44 -25.5 68.5
t-66.5 24.5q-49 0 -77 -32.5t-28 -79.5v-287h-140v520z" />
    <glyph glyph-name="ograve" unicode="&#xf2;" horiz-adv-x="612" 
d="M171 724l103 56l78 -190h-76zM35 260q0 118 78 194t193 76t193 -75.5t78 -194.5q0 -118 -78.5 -194t-192.5 -76t-192.5 76t-78.5 194zM306 410q-59 0 -96 -41.5t-37 -108.5q0 -65 37 -107.5t96 -42.5q57 0 95 43t38 107q0 66 -37.5 108t-95.5 42z" />
    <glyph glyph-name="oacute" unicode="&#xf3;" horiz-adv-x="612" 
d="M318 780l103 -56l-105 -134h-76zM35 260q0 118 78 194t193 76t193 -75.5t78 -194.5q0 -118 -78.5 -194t-192.5 -76t-192.5 76t-78.5 194zM306 410q-59 0 -96 -41.5t-37 -108.5q0 -65 37 -107.5t96 -42.5q57 0 95 43t38 107q0 66 -37.5 108t-95.5 42z" />
    <glyph glyph-name="ocircumflex" unicode="&#xf4;" horiz-adv-x="612" 
d="M223 590h-99l134 145h92l139 -145h-103l-80 68zM35 260q0 118 78 194t193 76t193 -75.5t78 -194.5q0 -118 -78.5 -194t-192.5 -76t-192.5 76t-78.5 194zM306 410q-59 0 -96 -41.5t-37 -108.5q0 -65 37 -107.5t96 -42.5q57 0 95 43t38 107q0 66 -37.5 108t-95.5 42z" />
    <glyph glyph-name="otilde" unicode="&#xf5;" horiz-adv-x="612" 
d="M176 597l-38 30q21 36 52 62t67 26q27 0 65.5 -21t60.5 -21q27 0 55 34l37 -28q-49 -89 -119 -89q-30 0 -65.5 20.5t-58.5 20.5q-25 0 -56 -34zM35 260q0 118 78 194t193 76t193 -75.5t78 -194.5q0 -118 -78.5 -194t-192.5 -76t-192.5 76t-78.5 194zM306 410
q-59 0 -96 -41.5t-37 -108.5q0 -65 37 -107.5t96 -42.5q57 0 95 43t38 107q0 66 -37.5 108t-95.5 42z" />
    <glyph glyph-name="odieresis" unicode="&#xf6;" horiz-adv-x="612" 
d="M261 657q0 -29 -20 -48t-53 -19q-29 0 -49 19t-20 48t20.5 49t48.5 20q33 0 53 -19t20 -50zM494 657q0 -29 -20 -48t-53 -19q-29 0 -49 19t-20 48t20.5 49t48.5 20q33 0 53 -19t20 -50zM35 260q0 118 78 194t193 76t193 -75.5t78 -194.5q0 -118 -78.5 -194t-192.5 -76
t-192.5 76t-78.5 194zM306 410q-59 0 -96 -41.5t-37 -108.5q0 -65 37 -107.5t96 -42.5q57 0 95 43t38 107q0 66 -37.5 108t-95.5 42z" />
    <glyph glyph-name="divide" unicode="&#xf7;" horiz-adv-x="575" 
d="M288 573q27 0 47 -19.5t20 -46.5q0 -28 -20 -48t-47 -20q-28 0 -47.5 20t-19.5 48q0 27 20 46.5t47 19.5zM57 374h461v-89h-461v89zM288 220q27 0 47 -19.5t20 -46.5q0 -28 -20 -47.5t-47 -19.5q-28 0 -47.5 19.5t-19.5 47.5q0 27 20 46.5t47 19.5z" />
    <glyph glyph-name="oslash" unicode="&#xf8;" horiz-adv-x="612" 
d="M35 260q0 118 78 194t193 76q64 0 123 -27l42 65h64l-61 -93q103 -77 103 -215q0 -118 -78.5 -194t-192.5 -76q-71 0 -128 30l-37 -57h-63l55 85q-98 78 -98 212zM439 260q0 65 -36 106l-157 -242q26 -14 60 -14q57 0 95 43t38 107zM306 410q-59 0 -96 -41.5t-37 -108.5
q0 -61 32 -102l156 240q-25 12 -55 12z" />
    <glyph glyph-name="ugrave" unicode="&#xf9;" horiz-adv-x="597" 
d="M160 724l103 56l78 -190h-76zM59 520h138v-305q0 -93 98 -93q44 0 72 23t28 68v307h140v-520h-107l-17 59q-52 -69 -148 -69q-100 0 -152 56.5t-52 161.5v312z" />
    <glyph glyph-name="uacute" unicode="&#xfa;" horiz-adv-x="597" 
d="M322 780l103 -56l-105 -134h-76zM59 520h138v-305q0 -93 98 -93q44 0 72 23t28 68v307h140v-520h-107l-17 59q-52 -69 -148 -69q-100 0 -152 56.5t-52 161.5v312z" />
    <glyph glyph-name="ucircumflex" unicode="&#xfb;" horiz-adv-x="597" 
d="M220 590h-99l134 145h92l139 -145h-103l-80 68zM59 520h138v-305q0 -93 98 -93q44 0 72 23t28 68v307h140v-520h-107l-17 59q-52 -69 -148 -69q-100 0 -152 56.5t-52 161.5v312z" />
    <glyph glyph-name="udieresis" unicode="&#xfc;" horiz-adv-x="597" 
d="M242 657q0 -29 -20 -48t-53 -19q-29 0 -49 19t-20 48t20.5 49t48.5 20q33 0 53 -19t20 -50zM475 657q0 -29 -20 -48t-53 -19q-29 0 -49 19t-20 48t20.5 49t48.5 20q33 0 53 -19t20 -50zM59 520h138v-305q0 -93 98 -93q44 0 72 23t28 68v307h140v-520h-107l-17 59
q-52 -69 -148 -69q-100 0 -152 56.5t-52 161.5v312z" />
    <glyph glyph-name="yacute" unicode="&#xfd;" horiz-adv-x="552" 
d="M0 520h145l128 -375h3l132 375h145l-223 -553q-30 -75 -65 -106t-97 -31q-57 0 -112 17l24 125q60 -10 84 -9q24 0 38 40zM288 780l103 -56l-105 -134h-76z" />
    <glyph glyph-name="thorn" unicode="&#xfe;" horiz-adv-x="626" 
d="M320 410q-58 0 -98 -40.5t-40 -109.5q0 -67 37.5 -108.5t100.5 -41.5q56 0 95 42.5t39 107.5q0 67 -39 108.5t-95 41.5zM344 530q113 0 179.5 -76.5t66.5 -195.5q0 -113 -65.5 -190.5t-181.5 -77.5q-35 0 -79.5 19t-67.5 57v-236h-134v870h134v-251q26 38 67.5 59.5
t80.5 21.5z" />
    <glyph glyph-name="ydieresis" unicode="&#xff;" horiz-adv-x="552" 
d="M0 520h145l128 -375h3l132 375h145l-223 -553q-30 -75 -65 -106t-97 -31q-57 0 -112 17l24 125q60 -10 84 -9q24 0 38 40zM233 657q0 -29 -20 -48t-53 -19q-29 0 -49 19t-20 48t20.5 49t48.5 20q33 0 53 -19t20 -50zM466 657q0 -29 -20 -48t-53 -19q-29 0 -49 19t-20 48
t20.5 49t48.5 20q33 0 53 -19t20 -50z" />
    <glyph glyph-name="Amacron" unicode="&#x100;" horiz-adv-x="658" 
d="M172 832h314v-82h-314v82zM257 715h144l262 -715h-148l-60 177h-252l-60 -177h-148zM328 576l-91 -287h184z" />
    <glyph glyph-name="amacron" unicode="&#x101;" horiz-adv-x="561" 
d="M120 672h314v-82h-314v82zM71 496q100 34 204 34q97 0 149.5 -44.5t52.5 -128.5v-216q0 -18 22 -18q15 0 46 3v-109q-2 -2 -14.5 -6t-32 -7.5t-36.5 -3.5q-34 0 -61 15t-27 53v11q-22 -39 -65.5 -64t-96.5 -25q-76 0 -132 45.5t-56 123.5q0 81 60.5 123.5t154.5 42.5
q50 0 108 -7v15q0 86 -94 86q-70 0 -157 -20zM347 229q-52 8 -83 8q-27 0 -50 -4.5t-43.5 -22t-20.5 -45.5q0 -33 25 -52.5t60 -19.5q41 0 76.5 24.5t35.5 59.5v52z" />
    <glyph glyph-name="Abreve" unicode="&#x102;" horiz-adv-x="658" 
d="M185 890h66q10 -32 26.5 -47t51.5 -15t51.5 15t26.5 47h66q-11 -140 -144 -140q-131 0 -144 140zM257 715h144l262 -715h-148l-60 177h-252l-60 -177h-148zM328 576l-91 -287h184z" />
    <glyph glyph-name="abreve" unicode="&#x103;" horiz-adv-x="561" 
d="M128 730h66q10 -32 26.5 -47t51.5 -15t51.5 15t26.5 47h66q-11 -140 -144 -140q-131 0 -144 140zM71 496q100 34 204 34q97 0 149.5 -44.5t52.5 -128.5v-216q0 -18 22 -18q15 0 46 3v-109q-2 -2 -14.5 -6t-32 -7.5t-36.5 -3.5q-34 0 -61 15t-27 53v11q-22 -39 -65.5 -64
t-96.5 -25q-76 0 -132 45.5t-56 123.5q0 81 60.5 123.5t154.5 42.5q50 0 108 -7v15q0 86 -94 86q-70 0 -157 -20zM347 229q-52 8 -83 8q-27 0 -50 -4.5t-43.5 -22t-20.5 -45.5q0 -33 25 -52.5t60 -19.5q41 0 76.5 24.5t35.5 59.5v52z" />
    <glyph glyph-name="Aogonek" unicode="&#x104;" horiz-adv-x="658" 
d="M257 715h144l262 -715h-38l-5 -2q-5 -1 -10.5 -4t-13 -7t-14.5 -10t-13 -13.5t-9.5 -17.5t-3.5 -22q0 -42 46 -42q15 0 46 7l18 -57q-32 -20 -74 -20q-62 0 -88 47q-12 21 -12 46q0 60 61 95h-38l-60 177h-252l-60 -177h-148zM328 576l-91 -287h184z" />
    <glyph glyph-name="aogonek" unicode="&#x105;" horiz-adv-x="561" 
d="M71 496q100 34 204 34q97 0 149.5 -44.5t52.5 -128.5v-216q0 -18 22 -18q15 0 46 3v-109q-2 -2 -14.5 -6t-32 -7.5t-36.5 -3.5h-4l-12 -6q-12 -5 -24 -12t-22.5 -22.5t-10.5 -35.5q0 -42 46 -42q15 0 46 7l18 -57q-33 -20 -76 -20q-44 0 -71 27.5t-27 65.5q0 35 22.5 63
t60.5 43q-34 16 -34 57v11q-22 -39 -65.5 -64t-96.5 -25q-76 0 -132 45.5t-56 123.5q0 81 60.5 123.5t154.5 42.5q50 0 108 -7v15q0 86 -94 86q-70 0 -157 -20zM347 229q-52 8 -83 8q-27 0 -50 -4.5t-43.5 -22t-20.5 -45.5q0 -33 25 -52.5t60 -19.5q41 0 76.5 24.5
t35.5 59.5v52z" />
    <glyph glyph-name="Cacute" unicode="&#x106;" horiz-adv-x="662" 
d="M435 940l103 -56l-105 -134h-76zM423 -15q-162 0 -272.5 107.5t-110.5 257.5t110.5 257.5t272.5 107.5q61 -1 119.5 -18t94.5 -40l-51 -107q-73 40 -166 40q-102 0 -166.5 -68t-64.5 -172t64.5 -172t166.5 -68q41 0 82.5 10t62.5 20l21 10l51 -107q-36 -23 -94.5 -40
t-119.5 -18z" />
    <glyph glyph-name="cacute" unicode="&#x107;" horiz-adv-x="503" 
d="M328 780l103 -56l-105 -134h-76zM317 -10q-121 0 -202 80t-81 190t81 190t202 80q82 0 164 -43l-48 -101q-56 24 -107 24q-42 0 -74 -15.5t-48 -40t-23.5 -48.5t-7.5 -46t7.5 -46t23.5 -48.5t48 -40t74 -15.5q51 0 107 24l48 -101q-82 -43 -164 -43z" />
    <glyph glyph-name="Ccircumflex" unicode="&#x108;" horiz-adv-x="662" 
d="M319 750h-99l134 145h92l139 -145h-103l-80 68zM423 -15q-162 0 -272.5 107.5t-110.5 257.5t110.5 257.5t272.5 107.5q61 -1 119.5 -18t94.5 -40l-51 -107q-73 40 -166 40q-102 0 -166.5 -68t-64.5 -172t64.5 -172t166.5 -68q41 0 82.5 10t62.5 20l21 10l51 -107
q-36 -23 -94.5 -40t-119.5 -18z" />
    <glyph glyph-name="ccircumflex" unicode="&#x109;" horiz-adv-x="503" 
d="M220 590h-99l134 145h92l139 -145h-103l-80 68zM317 -10q-121 0 -202 80t-81 190t81 190t202 80q82 0 164 -43l-48 -101q-56 24 -107 24q-42 0 -74 -15.5t-48 -40t-23.5 -48.5t-7.5 -46t7.5 -46t23.5 -48.5t48 -40t74 -15.5q51 0 107 24l48 -101q-82 -43 -164 -43z" />
    <glyph glyph-name="Cdotaccent" unicode="&#x10a;" horiz-adv-x="662" 
d="M473 812q0 -27 -18.5 -44.5t-48.5 -17.5q-27 0 -45.5 17.5t-18.5 44.5t19 45t45 18q30 0 48.5 -17.5t18.5 -45.5zM423 -15q-162 0 -272.5 107.5t-110.5 257.5t110.5 257.5t272.5 107.5q61 -1 119.5 -18t94.5 -40l-51 -107q-73 40 -166 40q-102 0 -166.5 -68t-64.5 -172
t64.5 -172t166.5 -68q41 0 82.5 10t62.5 20l21 10l51 -107q-36 -23 -94.5 -40t-119.5 -18z" />
    <glyph glyph-name="cdotaccent" unicode="&#x10b;" horiz-adv-x="503" 
d="M381 652q0 -27 -18.5 -44.5t-48.5 -17.5q-27 0 -45.5 17.5t-18.5 44.5t19 45t45 18q30 0 48.5 -17.5t18.5 -45.5zM317 -10q-121 0 -202 80t-81 190t81 190t202 80q82 0 164 -43l-48 -101q-56 24 -107 24q-42 0 -74 -15.5t-48 -40t-23.5 -48.5t-7.5 -46t7.5 -46
t23.5 -48.5t48 -40t74 -15.5q51 0 107 24l48 -101q-82 -43 -164 -43z" />
    <glyph glyph-name="Ccaron" unicode="&#x10c;" horiz-adv-x="662" 
d="M220 895h99l83 -68l80 68h103l-139 -145h-92zM423 -15q-162 0 -272.5 107.5t-110.5 257.5t110.5 257.5t272.5 107.5q61 -1 119.5 -18t94.5 -40l-51 -107q-73 40 -166 40q-102 0 -166.5 -68t-64.5 -172t64.5 -172t166.5 -68q41 0 82.5 10t62.5 20l21 10l51 -107
q-36 -23 -94.5 -40t-119.5 -18z" />
    <glyph glyph-name="ccaron" unicode="&#x10d;" horiz-adv-x="503" 
d="M126 735h99l83 -68l80 68h103l-139 -145h-92zM317 -10q-121 0 -202 80t-81 190t81 190t202 80q82 0 164 -43l-48 -101q-56 24 -107 24q-42 0 -74 -15.5t-48 -40t-23.5 -48.5t-7.5 -46t7.5 -46t23.5 -48.5t48 -40t74 -15.5q51 0 107 24l48 -101q-82 -43 -164 -43z" />
    <glyph glyph-name="Dcaron" unicode="&#x10e;" horiz-adv-x="693" 
d="M325 0h-247v700h247q92 0 167 -44q156 -92 158 -306q0 -97 -39.5 -179t-118.5 -127q-77 -44 -167 -44zM218 568v-436h80q75 0 132 31q80 45 80 188q0 137 -80 186q-51 31 -132 31h-80zM139 895h99l83 -68l80 68h103l-139 -145h-92z" />
    <glyph glyph-name="dcaron" unicode="&#x10f;" horiz-adv-x="666" 
d="M709 760q28 0 44.5 -19.5t16.5 -46.5q0 -68 -81 -111l-22 33q40 30 47 60q-6 -8 -19 -8q-17 0 -28 12.5t-11 31.5q0 21 16.5 34.5t36.5 13.5zM430 732h134v-732h-107l-17 66q-24 -38 -65.5 -57t-87.5 -19q-113 0 -182 79.5t-69 190.5t69 190.5t182 79.5q39 0 80 -18.5
t63 -57.5v278zM306 410q-60 0 -97 -40t-37 -110q0 -68 38 -109t96 -41q63 0 101 43.5t38 106.5t-38 106.5t-101 43.5z" />
    <glyph glyph-name="Dcroat" unicode="&#x110;" horiz-adv-x="708" 
d="M340 0h-247v319h-89v69h89v312h247q92 0 167 -44q156 -92 158 -306q0 -97 -39.5 -179t-118.5 -127q-77 -44 -167 -44zM233 568v-180h122v-69h-122v-187h80q75 0 132 31q80 45 80 188q0 137 -80 186q-51 31 -132 31h-80z" />
    <glyph glyph-name="dcroat" unicode="&#x111;" horiz-adv-x="626" 
d="M430 732h134v-88h65v-49h-65v-595h-107l-17 66q-24 -38 -65.5 -57t-87.5 -19q-113 0 -182 79.5t-69 190.5t69 190.5t182 79.5q39 0 80 -18.5t63 -57.5v141h-132v49h132v88zM306 410q-60 0 -97 -40t-37 -110q0 -68 38 -109t96 -41q63 0 101 43.5t38 106.5t-38 106.5
t-101 43.5z" />
    <glyph glyph-name="Emacron" unicode="&#x112;" horiz-adv-x="622" 
d="M78 700h495v-130h-355v-165h303v-126h-303v-149h362v-130h-502v700zM167 832h314v-82h-314v82z" />
    <glyph glyph-name="emacron" unicode="&#x113;" horiz-adv-x="563" 
d="M140 672h314v-82h-314v82zM36 255q0 121 71.5 198t186.5 77t177 -76t62 -187l-5 -60h-349q4 -52 42 -77t90 -25q77 0 147 31l46 -101q-78 -45 -196 -45q-119 0 -195.5 73.5t-76.5 191.5zM177 303h226q-6 107 -101 107q-49 0 -82 -27.5t-43 -79.5z" />
    <glyph glyph-name="Ebreve" unicode="&#x114;" horiz-adv-x="622" 
d="M78 700h495v-130h-355v-165h303v-126h-303v-149h362v-130h-502v700zM182 890h66q10 -32 26.5 -47t51.5 -15t51.5 15t26.5 47h66q-11 -140 -144 -140q-131 0 -144 140z" />
    <glyph glyph-name="ebreve" unicode="&#x115;" horiz-adv-x="563" 
d="M154 730h66q10 -32 26.5 -47t51.5 -15t51.5 15t26.5 47h66q-11 -140 -144 -140q-131 0 -144 140zM36 255q0 121 71.5 198t186.5 77t177 -76t62 -187l-5 -60h-349q4 -52 42 -77t90 -25q77 0 147 31l46 -101q-78 -45 -196 -45q-119 0 -195.5 73.5t-76.5 191.5zM177 303h226
q-6 107 -101 107q-49 0 -82 -27.5t-43 -79.5z" />
    <glyph glyph-name="Edotaccent" unicode="&#x116;" horiz-adv-x="622" 
d="M78 700h495v-130h-355v-165h303v-126h-303v-149h362v-130h-502v700zM390 812q0 -27 -18.5 -44.5t-48.5 -17.5q-27 0 -45.5 17.5t-18.5 44.5t19 45t45 18q30 0 48.5 -17.5t18.5 -45.5z" />
    <glyph glyph-name="edotaccent" unicode="&#x117;" horiz-adv-x="563" 
d="M360 652q0 -27 -18.5 -44.5t-48.5 -17.5q-27 0 -45.5 17.5t-18.5 44.5t19 45t45 18q30 0 48.5 -17.5t18.5 -45.5zM36 255q0 121 71.5 198t186.5 77t177 -76t62 -187l-5 -60h-349q4 -52 42 -77t90 -25q77 0 147 31l46 -101q-78 -45 -196 -45q-119 0 -195.5 73.5
t-76.5 191.5zM177 303h226q-6 107 -101 107q-49 0 -82 -27.5t-43 -79.5z" />
    <glyph glyph-name="Eogonek" unicode="&#x118;" horiz-adv-x="627" 
d="M78 700h495v-130h-355v-165h303v-126h-303v-149h362v-130h-36q-64 -21 -64 -70q0 -42 41 -42q15 0 46 7l18 -57q-33 -20 -76 -20q-45 1 -72.5 26.5t-27.5 64.5q0 59 58 91h-389v700z" />
    <glyph glyph-name="eogonek" unicode="&#x119;" horiz-adv-x="564" 
d="M36 255q0 121 71.5 198t186.5 77t177 -76t62 -187l-5 -60h-349q4 -52 42 -77t90 -25q77 0 147 31l46 -101q-43 -25 -104 -36q-52 -22 -52 -66q0 -42 46 -42q15 0 46 7l18 -57q-33 -20 -76 -20q-44 0 -71 27.5t-27 65.5q0 44 40 76h-16q-119 0 -195.5 73.5t-76.5 191.5z
M177 303h226q-6 107 -101 107q-49 0 -82 -27.5t-43 -79.5z" />
    <glyph glyph-name="Ecaron" unicode="&#x11a;" horiz-adv-x="622" 
d="M78 700h495v-130h-355v-165h303v-126h-303v-149h362v-130h-502v700zM135 895h99l83 -68l80 68h103l-139 -145h-92z" />
    <glyph glyph-name="ecaron" unicode="&#x11b;" horiz-adv-x="563" 
d="M120 735h99l83 -68l80 68h103l-139 -145h-92zM36 255q0 121 71.5 198t186.5 77t177 -76t62 -187l-5 -60h-349q4 -52 42 -77t90 -25q77 0 147 31l46 -101q-78 -45 -196 -45q-119 0 -195.5 73.5t-76.5 191.5zM177 303h226q-6 107 -101 107q-49 0 -82 -27.5t-43 -79.5z" />
    <glyph glyph-name="Gcircumflex" unicode="&#x11c;" horiz-adv-x="730" 
d="M329 750h-99l134 145h92l139 -145h-103l-80 68zM424 715q53 0 118 -17t109 -44l-54 -103q-85 39 -176 39q-102 0 -166.5 -68t-64.5 -172q0 -106 61.5 -173t169.5 -67q81 0 131 41v121h-177v114h306v-289q-111 -112 -257 -112q-167 0 -275 107t-108 258q0 150 110.5 257.5
t272.5 107.5z" />
    <glyph glyph-name="gcircumflex" unicode="&#x11d;" horiz-adv-x="555" 
d="M185 588h-103l136 146h93l141 -146h-107l-78 66zM533 520v-99l-65 -16q19 -31 19 -72q0 -74 -55 -121t-155 -47q-64 0 -103 19q-18 -10 -18 -27q0 -11 5.5 -18.5t19 -12t25.5 -7t37 -4t40 -1.5h48h12q172 0 172 -133q0 -45 -23 -76.5t-61 -46.5t-73.5 -21t-72.5 -6
q-39 0 -74 5t-75.5 18t-65 42t-24.5 72q0 27 11.5 48t20 27.5t24.5 16.5q-56 26 -56 88q0 53 54 88q-47 50 -47 113q0 83 59 132t156 49q47 0 72 -10h193zM273 431q-43 0 -68.5 -24.5t-25.5 -61.5q0 -38 26 -63t67 -25q40 0 64.5 24.5t24.5 64.5q0 37 -23.5 61t-64.5 24z
M351 14q-130 0 -166 7q-22 -11 -22 -39q0 -16 10 -26.5t30.5 -15t38.5 -5.5t47 -1q108 0 108 47q0 33 -46 33z" />
    <glyph glyph-name="Gbreve" unicode="&#x11e;" horiz-adv-x="730" 
d="M275 890h66q10 -32 26.5 -47t51.5 -15t51.5 15t26.5 47h66q-11 -140 -144 -140q-131 0 -144 140zM424 715q53 0 118 -17t109 -44l-54 -103q-85 39 -176 39q-102 0 -166.5 -68t-64.5 -172q0 -106 61.5 -173t169.5 -67q81 0 131 41v121h-177v114h306v-289
q-111 -112 -257 -112q-167 0 -275 107t-108 258q0 150 110.5 257.5t272.5 107.5z" />
    <glyph glyph-name="gbreve" unicode="&#x11f;" horiz-adv-x="555" 
d="M130 729h68q10 -32 26 -47t51 -15q34 0 50 15t26 47h68q-11 -141 -144 -141q-132 0 -145 141zM533 520v-99l-65 -16q19 -31 19 -72q0 -74 -55 -121t-155 -47q-64 0 -103 19q-18 -10 -18 -27q0 -11 5.5 -18.5t19 -12t25.5 -7t37 -4t40 -1.5h48h12q172 0 172 -133
q0 -45 -23 -76.5t-61 -46.5t-73.5 -21t-72.5 -6q-39 0 -74 5t-75.5 18t-65 42t-24.5 72q0 27 11.5 48t20 27.5t24.5 16.5q-56 26 -56 88q0 53 54 88q-47 50 -47 113q0 83 59 132t156 49q47 0 72 -10h193zM273 431q-43 0 -68.5 -24.5t-25.5 -61.5q0 -38 26 -63t67 -25
q40 0 64.5 24.5t24.5 64.5q0 37 -23.5 61t-64.5 24zM351 14q-130 0 -166 7q-22 -11 -22 -39q0 -16 10 -26.5t30.5 -15t38.5 -5.5t47 -1q108 0 108 47q0 33 -46 33z" />
    <glyph glyph-name="Gdotaccent" unicode="&#x120;" horiz-adv-x="730" 
d="M487 812q0 -27 -18.5 -44.5t-48.5 -17.5q-27 0 -45.5 17.5t-18.5 44.5t19 45t45 18q30 0 48.5 -17.5t18.5 -45.5zM424 715q53 0 118 -17t109 -44l-54 -103q-85 39 -176 39q-102 0 -166.5 -68t-64.5 -172q0 -106 61.5 -173t169.5 -67q81 0 131 41v121h-177v114h306v-289
q-111 -112 -257 -112q-167 0 -275 107t-108 258q0 150 110.5 257.5t272.5 107.5z" />
    <glyph glyph-name="gdotaccent" unicode="&#x121;" horiz-adv-x="555" 
d="M533 520v-99l-65 -16q19 -31 19 -72q0 -74 -55 -121t-155 -47q-64 0 -103 19q-18 -10 -18 -27q0 -11 5.5 -18.5t19 -12t25.5 -7t37 -4t40 -1.5h48h12q172 0 172 -133q0 -45 -23 -76.5t-61 -46.5t-73.5 -21t-72.5 -6q-39 0 -74 5t-75.5 18t-65 42t-24.5 72q0 27 11.5 48
t20 27.5t24.5 16.5q-56 26 -56 88q0 53 54 88q-47 50 -47 113q0 83 59 132t156 49q47 0 72 -10h193zM273 431q-43 0 -68.5 -24.5t-25.5 -61.5q0 -38 26 -63t67 -25q40 0 64.5 24.5t24.5 64.5q0 37 -23.5 61t-64.5 24zM351 14q-130 0 -166 7q-22 -11 -22 -39q0 -16 10 -26.5
t30.5 -15t38.5 -5.5t47 -1q108 0 108 47q0 33 -46 33zM204 650q0 27 19 45.5t46 18.5q30 0 48.5 -17.5t18.5 -46.5t-18.5 -46.5t-48.5 -17.5q-27 0 -46 18.5t-19 45.5z" />
    <glyph glyph-name="Gcommaaccent" unicode="&#x122;" horiz-adv-x="730" 
d="M395 -40q28 0 44.5 -19.5t16.5 -46.5q0 -68 -81 -111l-22 33q40 30 47 60q-6 -8 -19 -8q-17 0 -28 12.5t-11 31.5q0 21 16.5 34.5t36.5 13.5zM424 715q53 0 118 -17t109 -44l-54 -103q-85 39 -176 39q-102 0 -166.5 -68t-64.5 -172q0 -106 61.5 -173t169.5 -67
q81 0 131 41v121h-177v114h306v-289q-111 -112 -257 -112q-167 0 -275 107t-108 258q0 150 110.5 257.5t272.5 107.5z" />
    <glyph glyph-name="gcommaaccent" unicode="&#x123;" horiz-adv-x="555" 
d="M272 588q-29 0 -45.5 19.5t-16.5 46.5q0 70 82 115l24 -34q-38 -27 -47 -60q12 6 16 6q18 0 29 -12.5t11 -31.5q0 -21 -16.5 -35t-36.5 -14zM533 520v-99l-65 -16q19 -31 19 -72q0 -74 -55 -121t-155 -47q-64 0 -103 19q-18 -10 -18 -27q0 -29 38 -36t127 -7h12
q98 0 140 -39t42 -96q0 -36 -16 -64t-40 -43.5t-56.5 -25t-60.5 -12.5t-57 -3q-39 0 -74 5t-75.5 18t-65 42t-24.5 72q0 27 11.5 48t20 27.5t24.5 16.5q-56 26 -56 88q0 53 54 88q-47 50 -47 113q0 83 59 132t156 49q47 0 72 -10h193zM273 431q-43 0 -68.5 -24.5
t-25.5 -61.5q0 -38 26 -63t67 -25q40 0 64.5 24.5t24.5 64.5q0 37 -23.5 61t-64.5 24zM351 14q-130 0 -166 7q-22 -11 -22 -39q0 -16 10 -26.5t30.5 -15t38.5 -5.5t47 -1q108 0 108 47q0 33 -46 33z" />
    <glyph glyph-name="Hcircumflex" unicode="&#x124;" horiz-adv-x="726" 
d="M78 700h140v-294h290v294h140v-700h-140v276h-290v-276h-140v700zM280 750h-99l134 145h92l139 -145h-103l-80 68z" />
    <glyph glyph-name="hcircumflex" unicode="&#x125;" horiz-adv-x="597" 
d="M43 752h-99l134 145h92l139 -145h-103l-80 68zM62 732h140v-265q49 63 141 63q83 0 139 -51.5t56 -165.5v-313h-139v306q0 44 -25.5 68.5t-66.5 24.5q-49 0 -77 -32.5t-28 -79.5v-287h-140v732z" />
    <glyph glyph-name="Hbar" unicode="&#x126;" horiz-adv-x="728" 
d="M79 700h140v-115h290v115h140v-115h61v-65h-61v-520h-140v276h-290v-276h-140v520h-60v65h60v115zM219 406h290v114h-290v-114z" />
    <glyph glyph-name="hbar" unicode="&#x127;" horiz-adv-x="597" 
d="M62 732h140v-88h125v-49h-125v-128q49 63 141 63q83 0 139 -51.5t56 -165.5v-313h-139v306q0 44 -25.5 68.5t-66.5 24.5q-49 0 -77 -32.5t-28 -79.5v-287h-140v595h-66v49h66v88z" />
    <glyph glyph-name="Itilde" unicode="&#x128;" horiz-adv-x="296" 
d="M78 700h140v-700h-140v700zM14 757l-38 30q21 36 52 62t67 26q27 0 65.5 -21t60.5 -21q27 0 55 34l37 -28q-49 -89 -119 -89q-30 0 -65.5 20.5t-58.5 20.5q-25 0 -56 -34z" />
    <glyph glyph-name="itilde" unicode="&#x129;" horiz-adv-x="285" 
d="M27 520h196v-520h-135v401l-61 22v97zM-5 597l-38 30q21 36 52 62t67 26q27 0 65.5 -21t60.5 -21q27 0 55 34l37 -28q-49 -89 -119 -89q-30 0 -65.5 20.5t-58.5 20.5q-25 0 -56 -34z" />
    <glyph glyph-name="Imacron" unicode="&#x12a;" horiz-adv-x="296" 
d="M78 700h140v-700h-140v700zM-9 832h314v-82h-314v82z" />
    <glyph glyph-name="imacron" unicode="&#x12b;" horiz-adv-x="285" 
d="M27 520h196v-520h-135v401l-61 22v97zM-36 672h314v-82h-314v82z" />
    <glyph glyph-name="Ibreve" unicode="&#x12c;" horiz-adv-x="296" 
d="M78 700h140v-700h-140v700zM8 890h66q10 -32 26.5 -47t51.5 -15t51.5 15t26.5 47h66q-11 -140 -144 -140q-131 0 -144 140z" />
    <glyph glyph-name="ibreve" unicode="&#x12d;" horiz-adv-x="285" 
d="M27 520h196v-520h-135v401l-61 22v97zM-17 730h66q10 -32 26.5 -47t51.5 -15t51.5 15t26.5 47h66q-11 -140 -144 -140q-131 0 -144 140z" />
    <glyph glyph-name="Iogonek" unicode="&#x12e;" horiz-adv-x="296" 
d="M78 700h140v-700h-34l-5 -2q-5 -1 -10.5 -4t-13 -7t-14.5 -10t-13 -13.5t-9.5 -17.5t-3.5 -22q0 -42 46 -42q15 0 46 7l18 -57q-33 -20 -76 -20q-44 0 -71 27.5t-27 65.5q0 60 61 95h-34v700z" />
    <glyph glyph-name="iogonek" unicode="&#x12f;" horiz-adv-x="285" 
d="M27 520h196v-520h-31l-5 -2q-5 -1 -10.5 -4t-13 -7t-14.5 -10t-13 -13.5t-9.5 -17.5t-3.5 -22q0 -42 46 -42q15 0 46 7l18 -57q-33 -20 -76 -20q-44 0 -71 27.5t-27 65.5q0 60 61 95h-32v401l-61 22v97zM145 742q32 0 55 -23t23 -54t-23 -54t-55 -23t-53.5 22.5
t-21.5 54.5q0 31 21.5 54t53.5 23z" />
    <glyph glyph-name="Idotaccent" unicode="&#x130;" horiz-adv-x="296" 
d="M78 700h140v-700h-140v700zM214 812q0 -27 -18.5 -44.5t-48.5 -17.5q-27 0 -45.5 17.5t-18.5 44.5t19 45t45 18q30 0 48.5 -17.5t18.5 -45.5z" />
    <glyph glyph-name="dotlessi" unicode="&#x131;" horiz-adv-x="284" 
d="M26 520h196v-520h-135v401l-61 22v97z" />
    <glyph glyph-name="Jcircumflex" unicode="&#x134;" horiz-adv-x="334" 
d="M33 -140l-47 94l4 3q127 83 127 164v449l-77 22v108h217v-579q0 -54 -21 -98q-10 -21 -26.5 -41.5t-35 -36t-38 -29t-37.5 -24t-32 -17t-24 -11.5zM78 750h-99l134 145h92l139 -145h-103l-80 68z" />
    <glyph glyph-name="jcircumflex" unicode="&#x135;" horiz-adv-x="292" 
d="M46 -170l-47 91q15 6 45 31q48 41 48 83v366l-67 21v98h205v-460q0 -52 -19.5 -95t-43 -66t-55.5 -41t-44.5 -22t-21.5 -6zM50 590h-99l134 145h92l139 -145h-103l-80 68z" />
    <glyph glyph-name="Kcommaaccent" unicode="&#x136;" horiz-adv-x="642" 
d="M335 -40q28 0 44.5 -19.5t16.5 -46.5q0 -68 -81 -111l-22 33q40 30 47 60q-6 -8 -19 -8q-17 0 -28 12.5t-11 31.5q0 21 16.5 34.5t36.5 13.5zM78 0v700h140v-188l-4 -106l65 87l177 207h168l-254 -290l276 -410h-162l-197 315l-69 -75v-240h-140z" />
    <glyph glyph-name="kcommaaccent" unicode="&#x137;" horiz-adv-x="541" 
d="M277 -40q28 0 44.5 -19.5t16.5 -46.5q0 -68 -81 -111l-22 33q40 30 47 60q-6 -8 -19 -8q-17 0 -28 12.5t-11 31.5q0 21 16.5 34.5t36.5 13.5zM63 732h137v-292l-4 -143l90 124l80 99h174l-213 -246l201 -274h-158l-122 175l-48 -51v-124h-137v732z" />
    <glyph glyph-name="kgreenlandic" unicode="&#x138;" horiz-adv-x="542" 
d="M63 520h137v-80l-4 -143l90 124l80 99h174l-213 -246l201 -274h-158l-122 175l-48 -51v-124h-137v520z" />
    <glyph glyph-name="Lacute" unicode="&#x139;" horiz-adv-x="560" 
d="M78 700h140v-570h328v-130h-468v700zM189 940l103 -56l-105 -134h-76z" />
    <glyph glyph-name="lacute" unicode="&#x13a;" horiz-adv-x="290" 
d="M63 732h137v-591q0 -18 18 -18q16 0 48 3v-109q-2 -2 -17.5 -6t-39.5 -7.5t-43 -3.5q-50 0 -76.5 29t-26.5 77v626zM173 942l103 -56l-105 -134h-76z" />
    <glyph glyph-name="Lcommaaccent" unicode="&#x13b;" horiz-adv-x="559" 
d="M78 700h140v-570h328v-130h-468v700zM321 -40q28 0 44.5 -19.5t16.5 -46.5q0 -68 -81 -111l-22 33q40 30 47 60q-6 -8 -19 -8q-17 0 -28 12.5t-11 31.5q0 21 16.5 34.5t36.5 13.5z" />
    <glyph glyph-name="lcommaaccent" unicode="&#x13c;" horiz-adv-x="290" 
d="M63 732h137v-591q0 -18 18 -18q16 0 48 3v-109q-2 -2 -17.5 -6t-39.5 -7.5t-43 -3.5q-50 0 -76.5 29t-26.5 77v626zM155 -40q28 0 44.5 -19.5t16.5 -46.5q0 -68 -81 -111l-22 33q40 30 47 60q-6 -8 -19 -8q-17 0 -28 12.5t-11 31.5q0 21 16.5 34.5t36.5 13.5z" />
    <glyph glyph-name="Lcaron" unicode="&#x13d;" horiz-adv-x="561" 
d="M78 700h140v-570h328v-130h-468v700zM400 700q28 0 44.5 -19.5t16.5 -46.5q0 -68 -81 -111l-22 33q40 30 47 60q-6 -8 -19 -8q-17 0 -28 12.5t-11 31.5q0 21 16.5 34.5t36.5 13.5z" />
    <glyph glyph-name="lcaron" unicode="&#x13e;" horiz-adv-x="330" 
d="M63 732h137v-591q0 -18 18 -18q16 0 48 3v-109q-2 -2 -17.5 -6t-39.5 -7.5t-43 -3.5q-50 0 -76.5 29t-26.5 77v626zM343 760q28 0 44.5 -19.5t16.5 -46.5q0 -68 -81 -111l-22 33q40 30 47 60q-6 -8 -19 -8q-17 0 -28 12.5t-11 31.5q0 21 16.5 34.5t36.5 13.5z" />
    <glyph glyph-name="Lslash" unicode="&#x141;" horiz-adv-x="583" 
d="M-12 253l113 68v379h140v-289l122 72l35 -63l-157 -95v-205h328v-120h-468v241l-79 -48z" />
    <glyph glyph-name="lslash" unicode="&#x142;" horiz-adv-x="387" 
d="M121 732h137v-329l94 57l35 -62l-129 -78v-179q0 -18 18 -18q16 0 48 3v-109q-2 -2 -17.5 -6t-39.5 -7.5t-43 -3.5q-43 0 -73 26.5t-30 79.5v132l-86 -52l-35 63l121 72v411z" />
    <glyph glyph-name="Nacute" unicode="&#x143;" horiz-adv-x="732" 
d="M78 700h145l203 -317l92 -161h2l-6 191v287h140v-700h-144l-204 335l-92 153h-2l6 -164v-324h-140v700zM402 940l103 -56l-105 -134h-76z" />
    <glyph glyph-name="nacute" unicode="&#x144;" horiz-adv-x="598" 
d="M325 780l103 -56l-105 -134h-76zM63 520h107l22 -69q2 3 5.5 8.5t16.5 19t28.5 24t43 19t58.5 8.5q83 0 139 -51.5t56 -165.5v-313h-139v306q0 44 -25.5 68.5t-66.5 24.5q-49 0 -77 -32.5t-28 -79.5v-287h-140v520z" />
    <glyph glyph-name="Ncommaaccent" unicode="&#x145;" horiz-adv-x="732" 
d="M78 700h145l203 -317l92 -161h2l-6 191v287h140v-700h-144l-204 335l-92 153h-2l6 -164v-324h-140v700zM368 -40q28 0 44.5 -19.5t16.5 -46.5q0 -68 -81 -111l-22 33q40 30 47 60q-6 -8 -19 -8q-17 0 -28 12.5t-11 31.5q0 21 16.5 34.5t36.5 13.5z" />
    <glyph glyph-name="ncommaaccent" unicode="&#x146;" horiz-adv-x="598" 
d="M294 -40q28 0 44.5 -19.5t16.5 -46.5q0 -68 -81 -111l-22 33q40 30 47 60q-6 -8 -19 -8q-17 0 -28 12.5t-11 31.5q0 21 16.5 34.5t36.5 13.5zM63 520h107l22 -69q2 3 5.5 8.5t16.5 19t28.5 24t43 19t58.5 8.5q83 0 139 -51.5t56 -165.5v-313h-139v306q0 44 -25.5 68.5
t-66.5 24.5q-49 0 -77 -32.5t-28 -79.5v-287h-140v520z" />
    <glyph glyph-name="Ncaron" unicode="&#x147;" horiz-adv-x="732" 
d="M78 700h145l203 -317l92 -161h2l-6 191v287h140v-700h-144l-204 335l-92 153h-2l6 -164v-324h-140v700zM186 895h99l83 -68l80 68h103l-139 -145h-92z" />
    <glyph glyph-name="ncaron" unicode="&#x148;" horiz-adv-x="598" 
d="M107 735h99l83 -68l80 68h103l-139 -145h-92zM63 520h107l22 -69q2 3 5.5 8.5t16.5 19t28.5 24t43 19t58.5 8.5q83 0 139 -51.5t56 -165.5v-313h-139v306q0 44 -25.5 68.5t-66.5 24.5q-49 0 -77 -32.5t-28 -79.5v-287h-140v520z" />
    <glyph glyph-name="Eng" unicode="&#x14a;" horiz-adv-x="732" 
d="M451 -180l-28 97q4 1 19 5t20 6t17 6.5t17 8.5t12 10.5t9.5 14t2.5 17.5v15l-302 478v-478h-140v700h140l296 -457v457h140v-716q0 -76 -57.5 -116t-145.5 -48z" />
    <glyph glyph-name="eng" unicode="&#x14b;" horiz-adv-x="594" 
d="M330 -180l-26 87q4 1 16.5 4.5t17.5 5t15.5 5.5t15 7t11.5 8t10.5 10t6 12.5t2.5 15.5v326q0 44 -25.5 68.5t-66.5 24.5q-49 0 -77 -32.5t-28 -79.5v-282h-140v520h107l17 -74q2 3 5.5 8.5t17.5 19t30.5 24t44.5 19t59 8.5q82 0 137 -51.5t55 -165.5v-324q0 -76 -58 -116
t-147 -48z" />
    <glyph glyph-name="Omacron" unicode="&#x14c;" horiz-adv-x="803" 
d="M244 832h314v-82h-314v82zM40 352q0 155 108.5 259t255.5 104q150 0 254.5 -106t104.5 -257q0 -156 -107.5 -261.5t-251.5 -105.5q-151 0 -257.5 106.5t-106.5 260.5zM188 352q0 -106 60 -174t156 -68q94 0 152 68t58 174q0 104 -59 170.5t-156 66.5q-93 0 -152 -67
t-59 -170z" />
    <glyph glyph-name="omacron" unicode="&#x14d;" horiz-adv-x="612" 
d="M149 672h314v-82h-314v82zM35 260q0 118 78 194t193 76t193 -75.5t78 -194.5q0 -118 -78.5 -194t-192.5 -76t-192.5 76t-78.5 194zM306 410q-59 0 -96 -41.5t-37 -108.5q0 -65 37 -107.5t96 -42.5q57 0 95 43t38 107q0 66 -37.5 108t-95.5 42z" />
    <glyph glyph-name="Obreve" unicode="&#x14e;" horiz-adv-x="803" 
d="M261 890h66q10 -32 26.5 -47t51.5 -15t51.5 15t26.5 47h66q-11 -140 -144 -140q-131 0 -144 140zM40 352q0 155 108.5 259t255.5 104q150 0 254.5 -106t104.5 -257q0 -156 -107.5 -261.5t-251.5 -105.5q-151 0 -257.5 106.5t-106.5 260.5zM188 352q0 -106 60 -174
t156 -68q94 0 152 68t58 174q0 104 -59 170.5t-156 66.5q-93 0 -152 -67t-59 -170z" />
    <glyph glyph-name="obreve" unicode="&#x14f;" horiz-adv-x="612" 
d="M162 730h66q10 -32 26.5 -47t51.5 -15t51.5 15t26.5 47h66q-11 -140 -144 -140q-131 0 -144 140zM35 260q0 118 78 194t193 76t193 -75.5t78 -194.5q0 -118 -78.5 -194t-192.5 -76t-192.5 76t-78.5 194zM306 410q-59 0 -96 -41.5t-37 -108.5q0 -65 37 -107.5t96 -42.5
q57 0 95 43t38 107q0 66 -37.5 108t-95.5 42z" />
    <glyph glyph-name="Ohungarumlaut" unicode="&#x150;" horiz-adv-x="803" 
d="M343 922l97 -56l-84 -116h-76zM495 922l96 -56l-83 -116h-77zM40 352q0 155 108.5 259t255.5 104q150 0 254.5 -106t104.5 -257q0 -156 -107.5 -261.5t-251.5 -105.5q-151 0 -257.5 106.5t-106.5 260.5zM188 352q0 -106 60 -174t156 -68q94 0 152 68t58 174
q0 104 -59 170.5t-156 66.5q-93 0 -152 -67t-59 -170z" />
    <glyph glyph-name="ohungarumlaut" unicode="&#x151;" horiz-adv-x="612" 
d="M227 762l97 -56l-84 -116h-76zM379 762l96 -56l-83 -116h-77zM35 260q0 118 78 194t193 76t193 -75.5t78 -194.5q0 -118 -78.5 -194t-192.5 -76t-192.5 76t-78.5 194zM306 410q-59 0 -96 -41.5t-37 -108.5q0 -65 37 -107.5t96 -42.5q57 0 95 43t38 107q0 66 -37.5 108
t-95.5 42z" />
    <glyph glyph-name="OE" unicode="&#x152;" horiz-adv-x="934" 
d="M408 0q-152 0 -259.5 104t-107.5 251t109 245.5t257 99.5h476v-138h-335v-152h283v-136h-283v-135h342v-139h-482zM189 355q0 -93 63 -154.5t157 -61.5h19v423h-24q-91 0 -153 -59t-62 -148z" />
    <glyph glyph-name="oe" unicode="&#x153;" horiz-adv-x="970" 
d="M34 258q0 119 79 195.5t195 76.5q126 0 204 -96q66 96 187 96q115 0 178 -77t63 -191q0 -31 -5 -56h-352q6 -52 45 -78.5t81 -26.5q80 0 159 31l34 -98q-85 -49 -191 -49q-133 0 -201 95q-77 -95 -202 -95q-116 0 -195 77t-79 196zM308 410q-58 0 -97.5 -43.5
t-39.5 -108.5q0 -64 40 -108t97 -44q55 0 94 44t39 108q0 66 -38.5 109t-94.5 43zM582 301h226q-3 48 -30 78.5t-77 30.5q-48 0 -79 -31.5t-40 -77.5z" />
    <glyph glyph-name="Racute" unicode="&#x154;" horiz-adv-x="661" 
d="M78 700h318q88 0 151 -63.5t63 -151.5q0 -65 -36 -119.5t-96 -79.5l159 -286h-162l-140 270h-117v-270h-140v700zM218 570v-174h178q29 0 52.5 28.5t23.5 60.5q0 85 -120 85h-134zM323 940l103 -56l-105 -134h-76z" />
    <glyph glyph-name="racute" unicode="&#x155;" horiz-adv-x="389" 
d="M245 780l103 -56l-105 -134h-76zM62 515h110l18 -82q23 48 65 67.5t113 19.5v-142h-17q-151 0 -151 -146v-232h-138v515z" />
    <glyph glyph-name="Rcommaaccent" unicode="&#x156;" horiz-adv-x="660" 
d="M78 700h318q88 0 151 -63.5t63 -151.5q0 -65 -36 -119.5t-96 -79.5l159 -286h-162l-140 270h-117v-270h-140v700zM218 570v-174h178q29 0 52.5 28.5t23.5 60.5q0 85 -120 85h-134zM323 -40q28 0 44.5 -19.5t16.5 -46.5q0 -68 -81 -111l-22 33q40 30 47 60q-6 -8 -19 -8
q-17 0 -28 12.5t-11 31.5q0 21 16.5 34.5t36.5 13.5z" />
    <glyph glyph-name="rcommaaccent" unicode="&#x157;" horiz-adv-x="391" 
d="M128 -40q28 0 44.5 -19.5t16.5 -46.5q0 -68 -81 -111l-22 33q40 30 47 60q-6 -8 -19 -8q-17 0 -28 12.5t-11 31.5q0 21 16.5 34.5t36.5 13.5zM62 515h110l18 -82q23 48 65 67.5t113 19.5v-142h-17q-151 0 -151 -146v-232h-138v515z" />
    <glyph glyph-name="Rcaron" unicode="&#x158;" horiz-adv-x="661" 
d="M78 700h318q88 0 151 -63.5t63 -151.5q0 -65 -36 -119.5t-96 -79.5l159 -286h-162l-140 270h-117v-270h-140v700zM218 570v-174h178q29 0 52.5 28.5t23.5 60.5q0 85 -120 85h-134zM128 895h99l83 -68l80 68h103l-139 -145h-92z" />
    <glyph glyph-name="rcaron" unicode="&#x159;" horiz-adv-x="389" 
d="M39 735h99l83 -68l80 68h103l-139 -145h-92zM62 515h110l18 -82q23 48 65 67.5t113 19.5v-142h-17q-151 0 -151 -146v-232h-138v515z" />
    <glyph glyph-name="Sacute" unicode="&#x15a;" horiz-adv-x="600" 
d="M320 940l103 -56l-105 -134h-76zM293 -15q-141 0 -253 62l51 112q103 -50 201 -50q62 0 97.5 20t35.5 56q0 30 -28 50.5t-70 31.5t-91.5 28.5t-91.5 38.5t-70 65t-28 105q0 98 68.5 154.5t187.5 56.5q125 0 236 -53l-49 -111q-91 40 -180 40q-56 0 -89.5 -20.5
t-33.5 -55.5q0 -26 21 -45.5t54 -31.5t73.5 -24t81 -28.5t73.5 -39t54 -61t21 -89.5q0 -99 -72.5 -155t-198.5 -56z" />
    <glyph glyph-name="sacute" unicode="&#x15b;" horiz-adv-x="473" 
d="M250 780l103 -56l-105 -134h-76zM226 -10q-98 0 -190 46l41 98q79 -35 143 -35q49 0 71.5 14t22.5 34q0 19 -20.5 32t-51 19.5t-66.5 18.5t-66.5 27.5t-51 48t-20.5 78.5q0 73 54 116t146 43q96 0 185 -41l-41 -97q-68 30 -135 30q-40 0 -60 -14.5t-20 -34.5
q0 -18 20.5 -31t51 -19.5t66 -19t66 -28t51 -48t20.5 -77.5q0 -75 -58 -117.5t-158 -42.5z" />
    <glyph glyph-name="Scircumflex" unicode="&#x15c;" horiz-adv-x="600" 
d="M221 750h-99l134 145h92l139 -145h-103l-80 68zM293 -15q-141 0 -253 62l51 112q103 -50 201 -50q62 0 97.5 20t35.5 56q0 30 -28 50.5t-70 31.5t-91.5 28.5t-91.5 38.5t-70 65t-28 105q0 98 68.5 154.5t187.5 56.5q125 0 236 -53l-49 -111q-91 40 -180 40
q-56 0 -89.5 -20.5t-33.5 -55.5q0 -26 21 -45.5t54 -31.5t73.5 -24t81 -28.5t73.5 -39t54 -61t21 -89.5q0 -99 -72.5 -155t-198.5 -56z" />
    <glyph glyph-name="scircumflex" unicode="&#x15d;" horiz-adv-x="473" 
d="M149 590h-99l134 145h92l139 -145h-103l-80 68zM226 -10q-98 0 -190 46l41 98q79 -35 143 -35q49 0 71.5 14t22.5 34q0 19 -20.5 32t-51 19.5t-66.5 18.5t-66.5 27.5t-51 48t-20.5 78.5q0 73 54 116t146 43q96 0 185 -41l-41 -97q-68 30 -135 30q-40 0 -60 -14.5
t-20 -34.5q0 -18 20.5 -31t51 -19.5t66 -19t66 -28t51 -48t20.5 -77.5q0 -75 -58 -117.5t-158 -42.5z" />
    <glyph glyph-name="Scedilla" unicode="&#x15e;" horiz-adv-x="601" 
d="M226 -64l22 51q-124 11 -208 60l51 112q103 -50 201 -50q62 0 97.5 20t35.5 56q0 30 -28 50.5t-70 31.5t-91.5 28.5t-91.5 38.5t-70 65t-28 105q0 98 68.5 154.5t187.5 56.5q125 0 236 -53l-49 -111q-91 40 -180 40q-56 0 -89.5 -20.5t-33.5 -55.5q0 -26 21 -45.5
t54 -31.5t73.5 -24t81 -28.5t73.5 -39t54 -61t21 -89.5q0 -99 -72 -154t-199 -57l-5 -33q14 2 20 2q35 0 60 -21t25 -56q0 -44 -34.5 -69t-83.5 -25q-43 0 -83 25l20 53q37 -12 56 -11q38 2 38 32q0 12 -10 22t-33 10l-14 -1z" />
    <glyph glyph-name="scedilla" unicode="&#x15f;" horiz-adv-x="473" 
d="M204 -87l-23 23l24 55q-90 4 -169 45l41 98q79 -35 143 -35q49 0 71.5 14t22.5 34q0 19 -20.5 32t-51 19.5t-66.5 18.5t-66.5 27.5t-51 48t-20.5 78.5q0 73 54 116t146 43q96 0 185 -41l-41 -97q-68 30 -135 30q-40 0 -60 -14.5t-20 -34.5q0 -18 20.5 -31t51 -19.5
t66 -19t66 -28t51 -48t20.5 -77.5q0 -71 -52 -112.5t-141 -46.5l-6 -39q7 1 12 1q43 0 68 -19t25 -57q0 -45 -34.5 -69.5t-83.5 -24.5q-43 0 -83 25l20 53q37 -12 56 -11q38 2 38 32q0 12 -10 22t-33 10z" />
    <glyph glyph-name="Scaron" unicode="&#x160;" horiz-adv-x="600" 
d="M116 895h99l83 -68l80 68h103l-139 -145h-92zM293 -15q-141 0 -253 62l51 112q103 -50 201 -50q62 0 97.5 20t35.5 56q0 30 -28 50.5t-70 31.5t-91.5 28.5t-91.5 38.5t-70 65t-28 105q0 98 68.5 154.5t187.5 56.5q125 0 236 -53l-49 -111q-91 40 -180 40
q-56 0 -89.5 -20.5t-33.5 -55.5q0 -26 21 -45.5t54 -31.5t73.5 -24t81 -28.5t73.5 -39t54 -61t21 -89.5q0 -99 -72.5 -155t-198.5 -56z" />
    <glyph glyph-name="scaron" unicode="&#x161;" horiz-adv-x="473" 
d="M58 735h99l83 -68l80 68h103l-139 -145h-92zM226 -10q-98 0 -190 46l41 98q79 -35 143 -35q49 0 71.5 14t22.5 34q0 19 -20.5 32t-51 19.5t-66.5 18.5t-66.5 27.5t-51 48t-20.5 78.5q0 73 54 116t146 43q96 0 185 -41l-41 -97q-68 30 -135 30q-40 0 -60 -14.5t-20 -34.5
q0 -18 20.5 -31t51 -19.5t66 -19t66 -28t51 -48t20.5 -77.5q0 -75 -58 -117.5t-158 -42.5z" />
    <glyph glyph-name="Tcommaaccent" unicode="&#x162;" horiz-adv-x="601" 
d="M15 700h570v-130h-215v-570h-139v570h-216v130zM296 -40q28 0 44.5 -19.5t16.5 -46.5q0 -68 -81 -111l-22 33q40 30 47 60q-6 -8 -19 -8q-17 0 -28 12.5t-11 31.5q0 21 16.5 34.5t36.5 13.5z" />
    <glyph glyph-name="tcommaaccent" unicode="&#x163;" horiz-adv-x="384" 
d="M116 670h116v-150h109v-102h-109v-252q0 -52 51 -52q13 0 61 6l20 -97q-50 -23 -103 -23q-91 0 -128.5 43.5t-37.5 141.5v233h-70v81l70 20zM211 -40q28 0 44.5 -19.5t16.5 -46.5q0 -68 -81 -111l-22 33q40 30 47 60q-6 -8 -19 -8q-17 0 -28 12.5t-11 31.5
q0 21 16.5 34.5t36.5 13.5z" />
    <glyph glyph-name="Tcaron" unicode="&#x164;" horiz-adv-x="600" 
d="M15 700h570v-130h-215v-570h-139v570h-216v130zM118 895h99l83 -68l80 68h103l-139 -145h-92z" />
    <glyph glyph-name="tcaron" unicode="&#x165;" horiz-adv-x="384" 
d="M116 670h116v-150h109v-102h-109v-252q0 -52 51 -52q13 0 61 6l20 -97q-50 -23 -103 -23q-91 0 -128.5 43.5t-37.5 141.5v233h-70v81l70 20zM352 760q28 0 44.5 -19.5t16.5 -46.5q0 -68 -81 -111l-22 33q40 30 47 60q-6 -8 -19 -8q-17 0 -28 12.5t-11 31.5
q0 21 16.5 34.5t36.5 13.5z" />
    <glyph glyph-name="Tbar" unicode="&#x166;" horiz-adv-x="618" 
d="M522 315h-143v-315h-139v315h-143v68h143v187h-216v130h570v-130h-215v-187h143v-68z" />
    <glyph glyph-name="tbar" unicode="&#x167;" horiz-adv-x="386" 
d="M26 314h70v104h-70v81l70 20l21 151h116v-150h109v-102h-109v-104h109v-50h-109v-98q0 -52 51 -52q13 0 61 6l20 -97q-50 -23 -103 -23q-91 0 -128.5 43.5t-37.5 141.5v79h-70v50z" />
    <glyph glyph-name="Utilde" unicode="&#x168;" horiz-adv-x="716" 
d="M73 700h136v-438q0 -57 42.5 -93.5t106.5 -36.5t106 36.5t42 93.5v438h137v-435q0 -119 -75.5 -192t-209.5 -73t-209.5 73t-75.5 192v435zM224 757l-38 30q21 36 52 62t67 26q27 0 65.5 -21t60.5 -21q27 0 55 34l37 -28q-49 -89 -119 -89q-30 0 -65.5 20.5t-58.5 20.5
q-25 0 -56 -34z" />
    <glyph glyph-name="utilde" unicode="&#x169;" horiz-adv-x="597" 
d="M176 597l-38 30q21 36 52 62t67 26q27 0 65.5 -21t60.5 -21q27 0 55 34l37 -28q-49 -89 -119 -89q-30 0 -65.5 20.5t-58.5 20.5q-25 0 -56 -34zM59 520h138v-305q0 -93 98 -93q44 0 72 23t28 68v307h140v-520h-107l-17 59q-52 -69 -148 -69q-100 0 -152 56.5t-52 161.5
v312z" />
    <glyph glyph-name="Umacron" unicode="&#x16a;" horiz-adv-x="717" 
d="M74 700h136v-438q0 -57 42.5 -93.5t106.5 -36.5t106 36.5t42 93.5v438h137v-435q0 -119 -75.5 -192t-209.5 -73t-209.5 73t-75.5 192v435zM201 832h314v-82h-314v82z" />
    <glyph glyph-name="umacron" unicode="&#x16b;" horiz-adv-x="597" 
d="M141 672h314v-82h-314v82zM59 520h138v-305q0 -93 98 -93q44 0 72 23t28 68v307h140v-520h-107l-17 59q-52 -69 -148 -69q-100 0 -152 56.5t-52 161.5v312z" />
    <glyph glyph-name="Ubreve" unicode="&#x16c;" horiz-adv-x="717" 
d="M74 700h136v-438q0 -57 42.5 -93.5t106.5 -36.5t106 36.5t42 93.5v438h137v-435q0 -119 -75.5 -192t-209.5 -73t-209.5 73t-75.5 192v435zM215 890h66q10 -32 26.5 -47t51.5 -15t51.5 15t26.5 47h66q-11 -140 -144 -140q-131 0 -144 140z" />
    <glyph glyph-name="ubreve" unicode="&#x16d;" horiz-adv-x="597" 
d="M150 730h66q10 -32 26.5 -47t51.5 -15t51.5 15t26.5 47h66q-11 -140 -144 -140q-131 0 -144 140zM59 520h138v-305q0 -93 98 -93q44 0 72 23t28 68v307h140v-520h-107l-17 59q-52 -69 -148 -69q-100 0 -152 56.5t-52 161.5v312z" />
    <glyph glyph-name="Uring" unicode="&#x16e;" horiz-adv-x="717" 
d="M74 700h136v-438q0 -57 42.5 -93.5t106.5 -36.5t106 36.5t42 93.5v438h137v-435q0 -119 -75.5 -192t-209.5 -73t-209.5 73t-75.5 192v435zM359 751q-37 0 -67 26t-30 69t30 69t67 26t67 -26t30 -69t-30 -69t-67 -26zM359 886q-18 0 -31.5 -10.5t-13.5 -29.5t13.5 -29.5
t31.5 -10.5t31.5 10.5t13.5 29.5t-13.5 29.5t-31.5 10.5z" />
    <glyph glyph-name="uring" unicode="&#x16f;" horiz-adv-x="597" 
d="M297 591q-37 0 -67 26t-30 69t30 69t67 26t67 -26t30 -69t-30 -69t-67 -26zM297 726q-18 0 -31.5 -10.5t-13.5 -29.5t13.5 -29.5t31.5 -10.5t31.5 10.5t13.5 29.5t-13.5 29.5t-31.5 10.5zM59 520h138v-305q0 -93 98 -93q44 0 72 23t28 68v307h140v-520h-107l-17 59
q-52 -69 -148 -69q-100 0 -152 56.5t-52 161.5v312z" />
    <glyph glyph-name="Uhungarumlaut" unicode="&#x170;" horiz-adv-x="717" 
d="M74 700h136v-438q0 -57 42.5 -93.5t106.5 -36.5t106 36.5t42 93.5v438h137v-435q0 -119 -75.5 -192t-209.5 -73t-209.5 73t-75.5 192v435zM296 922l97 -56l-84 -116h-76zM448 922l96 -56l-83 -116h-77z" />
    <glyph glyph-name="uhungarumlaut" unicode="&#x171;" horiz-adv-x="597" 
d="M245 762l97 -56l-84 -116h-76zM397 762l96 -56l-83 -116h-77zM59 520h138v-305q0 -93 98 -93q44 0 72 23t28 68v307h140v-520h-107l-17 59q-52 -69 -148 -69q-100 0 -152 56.5t-52 161.5v312z" />
    <glyph glyph-name="Uogonek" unicode="&#x172;" horiz-adv-x="717" 
d="M73 700h136v-438q0 -57 42.5 -93.5t106.5 -36.5t106 36.5t42 93.5v438h137v-435q0 -119 -75 -189t-203 -76l-5 -2q-5 -1 -10.5 -4t-13 -7t-14.5 -10t-13 -13.5t-9.5 -17.5t-3.5 -22q0 -42 46 -42q15 0 46 7l18 -57q-33 -20 -76 -20q-45 1 -71.5 27.5t-26.5 65.5
q0 64 68 99q-105 17 -165 85.5t-62 175.5v435z" />
    <glyph glyph-name="uogonek" unicode="&#x173;" horiz-adv-x="597" 
d="M59 520h138v-305q0 -93 98 -93q44 0 72 23t28 68v307h140v-520h-19q-7 -2 -15.5 -6t-21 -12.5t-21 -23.5t-8.5 -34q0 -42 46 -42q15 0 46 7l18 -57q-33 -20 -76 -20q-44 0 -71 27.5t-27 65.5q0 60 61 95h-19l-17 59q-52 -69 -148 -69q-100 0 -152 56.5t-52 161.5v312z
" />
    <glyph glyph-name="Wcircumflex" unicode="&#x174;" horiz-adv-x="1000" 
d="M418 750h-99l134 145h92l139 -145h-103l-80 68zM6 700h157l131 -489h2l132 489h144l130 -489h2l130 489h160l-221 -700h-141l-131 461l-133 -461h-140z" />
    <glyph glyph-name="wcircumflex" unicode="&#x175;" horiz-adv-x="835" 
d="M5 520h146l95 -363h4l98 363h139l100 -363h3l93 363h146l-164 -520h-149l-97 340l-98 -340h-150zM334 590h-99l134 145h92l139 -145h-103l-80 68z" />
    <glyph glyph-name="Ycircumflex" unicode="&#x176;" horiz-adv-x="607" 
d="M-14 700h154l66 -112l96 -175h1l98 176l67 111h152l-249 -418v-282h-135v282zM220 750h-99l134 145h92l139 -145h-103l-80 68z" />
    <glyph glyph-name="ycircumflex" unicode="&#x177;" horiz-adv-x="552" 
d="M0 520h145l128 -375h3l132 375h145l-223 -553q-30 -75 -65 -106t-97 -31q-57 0 -112 17l24 125q60 -10 84 -9q24 0 38 40zM194 590h-99l134 145h92l139 -145h-103l-80 68z" />
    <glyph glyph-name="Ydieresis" unicode="&#x178;" horiz-adv-x="607" 
d="M-14 700h154l66 -112l96 -175h1l98 176l67 111h152l-249 -418v-282h-135v282zM491 817q0 -29 -20 -48t-53 -19q-29 0 -49 19t-20 48t20.5 49t48.5 20q33 0 53 -19t20 -50zM258 817q0 -29 -20 -48t-53 -19q-29 0 -49 19t-20 48t20.5 49t48.5 20q33 0 53 -19t20 -50z" />
    <glyph glyph-name="Zacute" unicode="&#x179;" horiz-adv-x="626" 
d="M52 700h530v-98l-369 -481l1 -1l142 5h226v-125h-547v94l368 482l-1 1v1l-141 -3h-209v125zM335 940l103 -56l-105 -134h-76z" />
    <glyph glyph-name="zacute" unicode="&#x17a;" horiz-adv-x="521" 
d="M50 520h429v-105l-282 -306q0 -1 0.5 -3l0.5 -2l144 4h137v-108h-444v103l286 309l-1 4l-145 -4h-125v108zM272 780l103 -56l-105 -134h-76z" />
    <glyph glyph-name="Zdotaccent" unicode="&#x17b;" horiz-adv-x="626" 
d="M52 700h530v-98l-369 -481l1 -1l142 5h226v-125h-547v94l368 482l-1 1v1l-141 -3h-209v125zM376 812q0 -27 -18.5 -44.5t-48.5 -17.5q-27 0 -45.5 17.5t-18.5 44.5t19 45t45 18q30 0 48.5 -17.5t18.5 -45.5z" />
    <glyph glyph-name="zdotaccent" unicode="&#x17c;" horiz-adv-x="521" 
d="M50 520h429v-105l-282 -306q0 -1 0.5 -3l0.5 -2l144 4h137v-108h-444v103l286 309l-1 4l-145 -4h-125v108zM332 652q0 -27 -18.5 -44.5t-48.5 -17.5q-27 0 -45.5 17.5t-18.5 44.5t19 45t45 18q30 0 48.5 -17.5t18.5 -45.5z" />
    <glyph glyph-name="Zcaron" unicode="&#x17d;" horiz-adv-x="626" 
d="M52 700h530v-98l-369 -481l1 -1l142 5h226v-125h-547v94l368 482l-1 1v1l-141 -3h-209v125zM127 895h99l83 -68l80 68h103l-139 -145h-92z" />
    <glyph glyph-name="zcaron" unicode="&#x17e;" horiz-adv-x="521" 
d="M50 520h429v-105l-282 -306q0 -1 0.5 -3l0.5 -2l144 4h137v-108h-444v103l286 309l-1 4l-145 -4h-125v108zM79 735h99l83 -68l80 68h103l-139 -145h-92z" />
    <glyph glyph-name="AEacute" unicode="&#x1fc;" horiz-adv-x="964" 
d="M618 940l103 -56l-105 -134h-76zM920 0h-462v177h-233l-83 -177h-154l334 700h591v-130h-315v-165h263v-126h-263v-149h322v-130zM458 570h-67l-122 -281h189v281z" />
    <glyph glyph-name="aeacute" unicode="&#x1fd;" horiz-adv-x="867" 
d="M464 780l103 -56l-105 -134h-76zM69 496q100 34 204 34q106 0 159 -53q65 53 160 53q115 0 177 -76t62 -187l-5 -60h-349q4 -51 41 -76.5t95 -25.5q73 0 143 31l46 -101q-78 -45 -192 -45q-136 0 -213 86q-76 -86 -187 -86q-77 0 -132.5 45t-55.5 124q0 83 60 124.5
t154 41.5q48 0 104 -7l5 22q-3 79 -95 79q-69 0 -156 -20zM345 173q-7 24 -10 57q-40 7 -73 7q-27 0 -50 -4.5t-43.5 -22t-20.5 -45.5q0 -33 25 -52.5t60 -19.5q40 0 75 23.5t37 56.5zM475 303h226q-6 107 -101 107q-49 0 -82 -27.5t-43 -79.5z" />
    <glyph glyph-name="Oslashacute" unicode="&#x1fe;" horiz-adv-x="803" 
d="M697 732l-65 -99q61 -51 96 -124.5t35 -156.5q0 -156 -107.5 -261.5t-251.5 -105.5q-88 0 -168 40l-40 -62h-83l65 100q-64 51 -101 126.5t-37 162.5q0 155 108.5 259t255.5 104q89 0 170 -43l39 60h84zM188 352q0 -109 62 -177l253 388q-46 26 -104 26q-93 0 -152 -67
t-59 -170zM614 352q0 102 -56 167l-252 -387q44 -22 98 -22q94 0 152 68t58 174zM434 940l103 -56l-105 -134h-76z" />
    <glyph glyph-name="oslashacute" unicode="&#x1ff;" horiz-adv-x="612" 
d="M35 260q0 118 78 194t193 76q64 0 123 -27l42 65h64l-61 -93q103 -77 103 -215q0 -118 -78.5 -194t-192.5 -76q-71 0 -128 30l-37 -57h-63l55 85q-98 78 -98 212zM439 260q0 65 -36 106l-157 -242q26 -14 60 -14q57 0 95 43t38 107zM306 410q-59 0 -96 -41.5t-37 -108.5
q0 -61 32 -102l156 240q-25 12 -55 12zM317 780l103 -56l-105 -134h-76z" />
    <glyph glyph-name="Scommaaccent" unicode="&#x218;" horiz-adv-x="601" 
d="M283 -40q28 0 44.5 -19.5t16.5 -46.5q0 -71 -81 -114l-24 39q33 30 42 51q-4 -2 -8 -2q-17 0 -28.5 14t-11.5 31q0 19 15.5 33t34.5 14zM293 -15q-141 0 -253 62l51 112q103 -50 201 -50q62 0 97.5 20t35.5 56q0 30 -28 50.5t-70 31.5t-91.5 28.5t-91.5 38.5t-70 65
t-28 105q0 98 68.5 154.5t187.5 56.5q125 0 236 -53l-49 -111q-91 40 -180 40q-56 0 -89.5 -20.5t-33.5 -55.5q0 -26 21 -45.5t54 -31.5t73.5 -24t81 -28.5t73.5 -39t54 -61t21 -89.5q0 -99 -72.5 -155t-198.5 -56z" />
    <glyph glyph-name="scommaaccent" unicode="&#x219;" horiz-adv-x="473" 
d="M229 -40q28 0 44.5 -19.5t16.5 -46.5q0 -68 -81 -111l-22 33q40 30 47 60q-6 -8 -19 -8q-17 0 -28 12.5t-11 31.5q0 21 16.5 34.5t36.5 13.5zM226 -10q-98 0 -190 46l41 98q79 -35 143 -35q49 0 71.5 14t22.5 34q0 19 -20.5 32t-51 19.5t-66.5 18.5t-66.5 27.5t-51 48
t-20.5 78.5q0 73 54 116t146 43q96 0 185 -41l-41 -97q-68 30 -135 30q-40 0 -60 -14.5t-20 -34.5q0 -18 20.5 -31t51 -19.5t66 -19t66 -28t51 -48t20.5 -77.5q0 -75 -58 -117.5t-158 -42.5z" />
    <glyph glyph-name="circumflex" unicode="&#x2c6;" horiz-adv-x="451" 
d="M84 603h-99l134 145h92l139 -145h-103l-80 68z" />
    <glyph glyph-name="caron" unicode="&#x2c7;" horiz-adv-x="451" 
d="M34 748h99l83 -68l80 68h103l-139 -145h-92z" />
    <glyph glyph-name="breve" unicode="&#x2d8;" horiz-adv-x="414" 
d="M63 710h66q10 -32 26.5 -47t51.5 -15t51.5 15t26.5 47h66q-11 -140 -144 -140q-131 0 -144 140z" />
    <glyph glyph-name="dotaccent" unicode="&#x2d9;" horiz-adv-x="247" 
d="M164 738q0 -27 -18.5 -44.5t-48.5 -17.5q-27 0 -45.5 17.5t-18.5 44.5t19 45t45 18q30 0 48.5 -17.5t18.5 -45.5z" />
    <glyph glyph-name="ring" unicode="&#x2da;" horiz-adv-x="322" 
d="M162 551q-37 0 -67 26t-30 69t30 69t67 26t67 -26t30 -69t-30 -69t-67 -26zM162 686q-18 0 -31.5 -10.5t-13.5 -29.5t13.5 -29.5t31.5 -10.5t31.5 10.5t13.5 29.5t-13.5 29.5t-31.5 10.5z" />
    <glyph glyph-name="ogonek" unicode="&#x2db;" horiz-adv-x="813" 
d="M136 24l6 -24l-5 -2q-5 -1 -10.5 -4t-13 -7t-14.5 -10t-13 -13.5t-9.5 -17.5t-3.5 -22q0 -42 46 -42q15 0 46 7l18 -57q-33 -20 -76 -20q-45 1 -71.5 27.5t-26.5 65.5q0 44 35 75.5t92 43.5z" />
    <glyph glyph-name="tilde" unicode="&#x2dc;" horiz-adv-x="427" 
d="M48 586l-38 30q21 36 52 62t67 26q27 0 65.5 -21t60.5 -21q27 0 55 34l37 -28q-49 -89 -119 -89q-30 0 -65.5 20.5t-58.5 20.5q-25 0 -56 -34z" />
    <glyph glyph-name="hungarumlaut" unicode="&#x2dd;" horiz-adv-x="457" 
d="M126 752l97 -56l-84 -116h-76zM278 752l96 -56l-83 -116h-77z" />
    <glyph glyph-name="Pi" unicode="&#x3a0;" horiz-adv-x="599" 
d="M78 700h496v-130h-356v-172h303v-126h-303v-272h-140v700zM229 700h140v-700h-140v700z" />
    <glyph glyph-name="mu" unicode="&#x3bc;" horiz-adv-x="607" 
d="M62 520h125v-293q0 -48 31 -73.5t85 -25.5q43 0 80 28t37 71v293h125v-520h-94l-21 61q-47 -61 -131 -61q-33 0 -64.5 17t-47.5 44v-231h-125v690z" />
    <glyph glyph-name="Wgrave" unicode="&#x1e80;" horiz-adv-x="1000" 
d="M354 884l103 56l78 -190h-76zM6 700h157l131 -489h2l132 489h144l130 -489h2l130 489h160l-221 -700h-141l-131 461l-133 -461h-140z" />
    <glyph glyph-name="wgrave" unicode="&#x1e81;" horiz-adv-x="835" 
d="M5 520h146l95 -363h4l98 363h139l100 -363h3l93 363h146l-164 -520h-149l-97 340l-98 -340h-150zM277 724l103 56l78 -190h-76z" />
    <glyph glyph-name="Wacute" unicode="&#x1e82;" horiz-adv-x="1000" 
d="M543 940l103 -56l-105 -134h-76zM6 700h157l131 -489h2l132 489h144l130 -489h2l130 489h160l-221 -700h-141l-131 461l-133 -461h-140z" />
    <glyph glyph-name="wacute" unicode="&#x1e83;" horiz-adv-x="835" 
d="M5 520h146l95 -363h4l98 363h139l100 -363h3l93 363h146l-164 -520h-149l-97 340l-98 -340h-150zM464 780l103 -56l-105 -134h-76z" />
    <glyph glyph-name="Wdieresis" unicode="&#x1e84;" horiz-adv-x="1000" 
d="M687 817q0 -29 -20 -48t-53 -19q-29 0 -49 19t-20 48t20.5 49t48.5 20q33 0 53 -19t20 -50zM454 817q0 -29 -20 -48t-53 -19q-29 0 -49 19t-20 48t20.5 49t48.5 20q33 0 53 -19t20 -50zM6 700h157l131 -489h2l132 489h144l130 -489h2l130 489h160l-221 -700h-141
l-131 461l-133 -461h-140z" />
    <glyph glyph-name="wdieresis" unicode="&#x1e85;" horiz-adv-x="835" 
d="M5 520h146l95 -363h4l98 363h139l100 -363h3l93 363h146l-164 -520h-149l-97 340l-98 -340h-150zM372 657q0 -29 -20 -48t-53 -19q-29 0 -49 19t-20 48t20.5 49t48.5 20q33 0 53 -19t20 -50zM605 657q0 -29 -20 -48t-53 -19q-29 0 -49 19t-20 48t20.5 49t48.5 20
q33 0 53 -19t20 -50z" />
    <glyph glyph-name="germandbls.case" unicode="&#x1e9e;" horiz-adv-x="709" 
d="M78 443q0 127 68.5 199.5t193.5 72.5q158 0 256 -133l-106 -181q77 -13 128 -66.5t51 -137.5q0 -95 -66.5 -156.5t-173.5 -61.5q-70 0 -132 31l41 116l6 -2q5 -1 13.5 -3.5t19 -5t23.5 -4t24 -1.5q47 0 79 26.5t32 69.5q0 50 -43 78t-106 26l-37 73l99 172q-1 0 -10 9.5
t-32.5 18.5t-57.5 9q-132 0 -132 -146v-446h-138v443z" />
    <glyph glyph-name="Ygrave" unicode="&#x1ef2;" horiz-adv-x="607" 
d="M-14 700h154l66 -112l96 -175h1l98 176l67 111h152l-249 -418v-282h-135v282zM164 884l103 56l78 -190h-76z" />
    <glyph glyph-name="ygrave" unicode="&#x1ef3;" horiz-adv-x="552" 
d="M0 520h145l128 -375h3l132 375h145l-223 -553q-30 -75 -65 -106t-97 -31q-57 0 -112 17l24 125q60 -10 84 -9q24 0 38 40zM132 724l103 56l78 -190h-76z" />
    <glyph glyph-name="endash" unicode="&#x2013;" horiz-adv-x="700" 
d="M61 388h578v-90h-578v90z" />
    <glyph glyph-name="emdash" unicode="&#x2014;" horiz-adv-x="901" 
d="M61 388h779v-90h-779v90z" />
    <glyph glyph-name="quoteleft" unicode="&#x2018;" horiz-adv-x="263" 
d="M139 423q-45 0 -71.5 33t-26.5 79q0 111 134 180l35 -55q-80 -54 -83 -96q10 7 27 7q29 0 46 -20t17 -51q0 -33 -22.5 -55t-55.5 -22z" />
    <glyph glyph-name="quoteright" unicode="&#x2019;" horiz-adv-x="260" 
d="M125 715q45 0 71.5 -33t26.5 -79q0 -111 -134 -180l-35 55q17 8 48.5 37t34.5 59q-10 -7 -27 -7q-29 0 -46 20t-17 51q0 33 22.5 55t55.5 22z" />
    <glyph glyph-name="quotesinglbase" unicode="&#x201a;" horiz-adv-x="268" 
d="M125 148q45 0 71.5 -33t26.5 -79q0 -111 -134 -180l-35 55q79 53 83 96q-10 -7 -27 -7q-29 0 -46 20t-17 51q0 33 22.5 55t55.5 22z" />
    <glyph glyph-name="quotedblleft" unicode="&#x201c;" horiz-adv-x="535" 
d="M400 423q-45 0 -71.5 33t-26.5 79q0 111 134 180l35 -55q-80 -54 -83 -96q10 7 27 7q29 0 46 -20t17 -51q0 -33 -22.5 -55t-55.5 -22zM156 423q-45 0 -71.5 33t-26.5 79q0 111 134 180l35 -55q-80 -54 -83 -96q10 7 27 7q29 0 46 -20t17 -51q0 -33 -22.5 -55t-55.5 -22z
" />
    <glyph glyph-name="quotedblright" unicode="&#x201d;" horiz-adv-x="538" 
d="M142 715q45 0 71.5 -33t26.5 -79q0 -111 -134 -180l-35 55q17 8 48.5 37t34.5 59q-10 -7 -27 -7q-29 0 -46 20t-17 51q0 33 22.5 55t55.5 22zM386 715q45 0 71.5 -33t26.5 -79q0 -111 -134 -180l-35 55q17 8 48.5 37t34.5 59q-10 -7 -27 -7q-29 0 -46 20t-17 51
q0 33 22.5 55t55.5 22z" />
    <glyph glyph-name="quotedblbase" unicode="&#x201e;" horiz-adv-x="540" 
d="M138 148q45 0 71.5 -33t26.5 -79q0 -111 -134 -180l-35 55q79 53 83 96q-10 -7 -27 -7q-29 0 -46 20t-17 51q0 33 22.5 55t55.5 22zM382 148q45 0 71.5 -33t26.5 -79q0 -111 -134 -180l-35 55q79 53 83 96q-10 -7 -27 -7q-29 0 -46 20t-17 51q0 33 22.5 55t55.5 22z" />
    <glyph glyph-name="dagger" unicode="&#x2020;" horiz-adv-x="624" 
d="M254 700h115l-15 -599h-84zM46 559l172 -20v-60l-172 -17v97zM578 559v-97l-172 17v60z" />
    <glyph glyph-name="daggerdbl" unicode="&#x2021;" horiz-adv-x="645" 
d="M265 700h115l-15 -700h-84zM589 559v-97l-172 17v60zM56 559l172 -20v-60l-172 -17v97zM589 306v-98l-172 17v61zM56 306l172 -20v-61l-172 -17v98z" />
    <glyph glyph-name="bullet" unicode="&#x2022;" horiz-adv-x="340" 
d="M171 472q51 0 88 -37.5t37 -89.5q0 -51 -37 -87.5t-88 -36.5q-52 0 -90 37t-38 89q0 51 38.5 88t89.5 37z" />
    <glyph glyph-name="ellipsis" unicode="&#x2026;" horiz-adv-x="717" 
d="M124 142q32 0 54.5 -22t22.5 -54q0 -31 -22.5 -53.5t-54.5 -22.5t-54 22t-22 54t22 54t54 22zM349 142q32 0 54.5 -22t22.5 -54q0 -31 -22.5 -53.5t-54.5 -22.5q-31 0 -53.5 22t-22.5 54t22.5 54t53.5 22zM593 142q32 0 54.5 -22t22.5 -54q0 -31 -22.5 -53.5t-54.5 -22.5
q-31 0 -53.5 22t-22.5 54t22.5 54t53.5 22z" />
    <glyph glyph-name="perthousand" unicode="&#x2030;" horiz-adv-x="1250" 
d="M208 377q-72 0 -117.5 47t-45.5 120q0 75 46 123t120 48q72 0 117.5 -47t45.5 -122q0 -73 -46 -121t-120 -48zM165 0l402 700h111l-400 -700h-113zM636 -15q-73 0 -118.5 47t-45.5 120q0 74 47 122.5t120 48.5q72 0 117 -47.5t45 -121.5q0 -73 -46 -121t-119 -48z
M210 469q28 0 43.5 20t15.5 55q0 38 -17 58.5t-44 20.5t-42.5 -20t-15.5 -57q0 -36 17 -56.5t43 -20.5zM638 77q27 0 42.5 20t15.5 55q0 37 -17 58t-43 21q-57 0 -57 -77q0 -37 16.5 -57t42.5 -20zM1042 -15q-73 0 -118.5 47t-45.5 120q0 74 47 122.5t120 48.5
q72 0 117 -47.5t45 -121.5q0 -73 -46 -121t-119 -48zM1044 77q27 0 42.5 20t15.5 55q0 37 -17 58t-43 21q-57 0 -57 -77q0 -37 16.5 -57t42.5 -20z" />
    <glyph glyph-name="guilsinglleft" unicode="&#x2039;" horiz-adv-x="365" 
d="M252 513l69 -71l-134 -183l133 -185l-68 -69l-216 239v29z" />
    <glyph glyph-name="guilsinglright" unicode="&#x203a;" horiz-adv-x="365" 
d="M113 513l216 -240v-29l-216 -239l-68 69l133 185l-134 183z" />
    <glyph glyph-name="fraction" unicode="&#x2044;" horiz-adv-x="395" 
d="M291 700h110l-296 -700h-110z" />
    <glyph glyph-name="Euro" unicode="&#x20ac;" horiz-adv-x="775" 
d="M525 386h-230q-2 -12 -2 -35q0 -20 1 -29h231v-71h-214q27 -65 84 -103t132 -38q41 0 81.5 10t61.5 20l20 10l51 -105q-38 -24 -96.5 -42t-120.5 -18q-127 0 -230 72.5t-137 193.5h-106v71h94q0 4 -0.5 14t-0.5 15q0 23 1 35h-94v73h109q36 112 134.5 184t228.5 72
q61 -1 122 -18.5t96 -39.5l-51 -103q-73 35 -166 35q-72 0 -126.5 -35t-82.5 -95h210v-73z" />
    <glyph glyph-name="trademark" unicode="&#x2122;" horiz-adv-x="797" 
d="M70 700h289v-77h-105v-239h-81v239h-103v77zM387 700h62l103 -173l100 173h63v-316h-77v155l-62 -126h-51l-62 120v-149h-76v316z" />
    <glyph glyph-name="commaaccent" unicode="&#xf6c3;" horiz-adv-x="271" 
d="M138 -41q28 0 44.5 -19.5t16.5 -46.5q0 -68 -81 -111l-22 33q40 30 47 60q-6 -8 -19 -8q-17 0 -28 12.5t-11 31.5q0 21 16.5 34.5t36.5 13.5z" />
    <glyph glyph-name="CR" horiz-adv-x="304" 
 />
    <glyph glyph-name="a.alt" horiz-adv-x="626" 
d="M282 530q107 0 154 -81l18 71h110v-520h-134v63q-24 -40 -67 -56.5t-80 -16.5q-116 0 -181.5 77.5t-65.5 190.5q0 119 66.5 195.5t179.5 76.5zM306 410q-56 0 -95 -41.5t-39 -108.5q0 -65 39 -107.5t95 -42.5q63 0 100.5 41.5t37.5 108.5q0 69 -40 109.5t-98 40.5z" />
    <glyph glyph-name="g.alt" horiz-adv-x="632" 
d="M75 -115l39 103q81 -39 171 -39q72 0 113.5 33.5t41.5 93.5v22q-56 -66 -164 -66q-43 0 -84 15t-76.5 44t-57.5 78.5t-22 111.5t22 111.5t57.5 78.5t76.5 44t84 15q53 0 99.5 -19t69.5 -53l20 62h105v-427q-1 -128 -72 -195.5t-194 -67.5q-129 0 -229 55zM311 151
q63 0 98 37.5t35 92.5t-35 92.5t-99 37.5q-60 0 -97.5 -38.5t-37.5 -91.5t37.5 -91.5t98.5 -38.5z" />
    <glyph glyph-name="f_b" horiz-adv-x="973" 
d="M541 554v-100q44 76 153 76q105 0 174 -80.5t69 -190.5t-69 -189.5t-178 -79.5q-107 0 -157 76l-17 -66h-107v564q0 32 -25 54t-57 22q-30 0 -57 -19.5t-27 -57.5v-43h75v-102h-75v-418h-134v418h-85v81l85 21v34q0 80 62.5 138t156.5 58q89 0 151 -54t62 -142zM667 410
q-63 0 -101 -43.5t-38 -106.5t38 -106.5t100 -43.5q59 0 97 40.5t38 110.5q0 69 -37 109t-97 40z" />
    <glyph glyph-name="f_f_b" horiz-adv-x="1274" 
d="M842 554v-100q22 39 64 57.5t81 18.5q113 0 182 -79.5t69 -190.5t-69 -190.5t-182 -79.5q-46 0 -87.5 19t-65.5 57l-17 -66h-107v569q0 32 -24.5 51.5t-56.5 19.5q-31 0 -58 -19t-27 -58v-43h75v-102h-75v-418h-134v418h-167v-418h-134v418h-85v81l85 21v29q0 146 98 177
q27 9 64 9q36 0 71 -7l-14 -114q-30 2 -40 2q-20 0 -30.5 -10.5t-12.5 -22t-2 -29.5v-34h167v30q0 81 62.5 140.5t156.5 59.5q89 0 151 -54t62 -142zM968 410q-63 0 -101 -43.5t-38 -106.5t38 -106.5t101 -43.5q58 0 96 41t38 109q0 70 -37 110t-97 40z" />
    <glyph glyph-name="f_h" horiz-adv-x="944" 
d="M549 554v-103q40 79 138 79q90 0 144 -53.5t54 -164.5v-312h-139v305q0 44 -26 68.5t-65 24.5q-46 0 -76 -31t-30 -78v-289h-140v569q0 32 -24.5 51.5t-56.5 19.5q-31 0 -58 -19t-27 -58v-43h75v-102h-75v-418h-134v418h-85v81l85 21v30q0 80 64 140t155 60
q90 0 155.5 -54t65.5 -142z" />
    <glyph glyph-name="f_f_h" horiz-adv-x="1248" 
d="M411 520v21q0 94 59 151.5t154 57.5q94 0 161 -54t67 -142v-103q41 79 142 79q88 0 141.5 -54t53.5 -164v-312h-139v254q0 74 -18 109t-69 35q-50 0 -80.5 -31t-30.5 -78v-289h-139v569q0 32 -25.5 52t-56.5 20t-57.5 -19.5t-26.5 -58.5v-43h73v-102h-73v-418h-137v418
h-167v-418h-133v418h-86v81l86 21v29q0 186 162 186q35 0 70 -7l-14 -114q-30 2 -35 2q-32 0 -41 -14.5t-9 -47.5v-34h168z" />
    <glyph glyph-name="f_k" horiz-adv-x="888" 
d="M545 0h-137v569q0 32 -24.5 51.5t-56.5 19.5q-31 0 -57.5 -19t-26.5 -58v-43h75v-102h-75v-418h-134v418h-85v81l85 21v30q0 80 63.5 140t154.5 60q90 0 154 -54t64 -142v-114l-3 -143l89 124l80 99h174l-213 -246l201 -274h-158l-122 175l-48 -51v-124z" />
    <glyph glyph-name="f_f_k" horiz-adv-x="1191" 
d="M848 0h-137v569q0 32 -24.5 51.5t-56.5 19.5q-31 0 -57.5 -19t-26.5 -58v-43h75v-102h-75v-418h-134v418h-168v-418h-135v418h-85v81l85 21v29q0 186 163 186q36 0 71 -7l-14 -114q-30 2 -40 2q-20 0 -30.5 -10.5t-12.5 -22t-2 -29.5v-34h168v30q0 80 63.5 140t154.5 60
q90 0 154 -54t64 -142v-114l-3 -143l89 124l80 99h174l-213 -246l201 -274h-158l-122 175l-48 -51v-124z" />
    <glyph glyph-name="dollar.tnum" 
d="M384 806v-92q96 -9 190 -52l-51 -115q-87 40 -178 40q-55 0 -88.5 -20t-33.5 -53q0 -25 21 -44t54 -31.5t73 -24.5t80.5 -29.5t73.5 -40.5t54 -62t21 -90q0 -87 -56.5 -139t-159.5 -66v-85h-86v84q-128 8 -225 61l54 117q100 -50 198 -50q60 0 96 19t36 53q0 33 -39 55.5
t-94 39t-110.5 39t-94.5 71.5t-39 121q0 90 57 141.5t161 60.5v92h86z" />
    <glyph glyph-name="percent.tnum" 
d="M131 377q-68 0 -110.5 47t-42.5 120v2q0 74 43.5 121.5t112.5 47.5t111.5 -47t42.5 -120v-2q0 -73 -44 -121t-113 -48zM90 0l377 700h110l-375 -700h-112zM537 -15q-69 0 -112 47t-43 120v2q0 73 44.5 121t113.5 48q67 0 109.5 -47t42.5 -120v-2q0 -73 -43.5 -121
t-111.5 -48zM133 469q50 0 50 75v2q0 37 -14.5 57t-37.5 20t-36 -20t-13 -55v-2q0 -36 14.5 -56.5t36.5 -20.5zM539 77q23 0 36 20t13 55v2q0 36 -14.5 56.5t-36.5 20.5q-48 0 -48 -75v-2q0 -37 14 -57t36 -20z" />
    <glyph glyph-name="plus.tnum" 
d="M288 538h93v-153h172v-91h-172v-153h-93v153h-171v91h171v153z" />
    <glyph glyph-name="hyphen.tnum" 
d="M132 388h406v-90h-406v90z" />
    <glyph glyph-name="zero.tnum" 
d="M335 -15q-131 0 -214 105t-83 258q0 154 84 260.5t215 106.5q130 0 212.5 -105.5t82.5 -257.5q0 -154 -83 -260.5t-214 -106.5zM337 108q68 0 110.5 70t42.5 170t-43.5 172t-111.5 72t-111.5 -70.5t-43.5 -171.5t43.5 -171.5t113.5 -70.5z" />
    <glyph glyph-name="one.tnum" 
d="M151 0v114h160v419l-2 3l-123 -38l-49 100l207 102h98v-586h158v-114h-449z" />
    <glyph glyph-name="two.tnum" horiz-adv-x="690" 
d="M97 658q113 57 227 57q110 0 180 -63.5t70 -163.5q0 -79 -44.5 -140t-116.5 -119l-147 -115h324v-114h-494v111l238 215q50 45 76.5 82.5t26.5 82.5q0 43 -35 70.5t-83 29.5q-79 2 -177 -31z" />
    <glyph glyph-name="three.tnum" 
d="M132 567l-44 103q113 45 214 45q107 0 176 -56t69 -141q0 -52 -27.5 -91t-75.5 -53q133 -40 133 -170q0 -104 -80 -161.5t-200 -57.5q-117 0 -226 59l48 95q78 -33 167 -33q67 -1 111 27t44 77q0 54 -51 82t-114 28h-74v100h80q52 0 90 20t38 64q0 41 -34.5 63.5
t-93.5 22.5q-69 0 -150 -23z" />
    <glyph glyph-name="four.tnum" 
d="M406 700h107v-424h83v-116h-83v-160h-124v160h-335v97zM389 485l-181 -208h181v208z" />
    <glyph glyph-name="five.tnum" 
d="M552 700v-113h-287l-17 -140q47 17 92 17q104 0 175 -64t71 -168q0 -110 -79.5 -178.5t-204.5 -68.5q-127 0 -229 60l45 100q74 -35 172 -35q70 0 115.5 33.5t45.5 90.5q0 51 -38 81t-100 30q-55 0 -96 -32l-110 55l48 332h397z" />
    <glyph glyph-name="six.tnum" 
d="M561 673l-40 -103q-79 25 -137 25q-91 0 -138 -55.5t-47 -146.5h4q21 30 67 54.5t104 24.5q95 0 162 -66.5t67 -172.5q0 -111 -74.5 -179.5t-184.5 -68.5q-70 0 -123.5 29.5t-85 80t-47 111.5t-15.5 129q0 51 8 100.5t30 101.5t55.5 90.5t88.5 63t125 24.5q22 0 43 -2.5
t35 -5t33.5 -8.5t26 -8.5t24.5 -10.5zM345 349q-64 0 -98.5 -35t-34.5 -84q0 -51 37.5 -87t98.5 -36t96 35t35 86q0 50 -35 85.5t-99 35.5z" />
    <glyph glyph-name="seven.tnum" 
d="M85 700h508v-118l-295 -582h-147l297 577h-363v123z" />
    <glyph glyph-name="eight.tnum" 
d="M334 715q89 0 156.5 -55.5t67.5 -138.5q0 -51 -26.5 -88t-62.5 -54q55 -18 90 -66.5t35 -110.5q0 -96 -75.5 -156.5t-183.5 -60.5t-183.5 60.5t-75.5 155.5q0 63 36.5 110.5t89.5 67.5q-34 16 -62 53t-28 90q0 82 67 137.5t155 55.5zM334 307q-56 0 -95.5 -26.5
t-39.5 -77.5q0 -53 42 -79t94 -26q53 0 94.5 26.5t41.5 78.5q0 50 -40 77t-97 27zM335 602q-41 0 -72.5 -24t-31.5 -66q0 -40 28.5 -65.5t75.5 -25.5t76.5 26t29.5 65q0 41 -32.5 65.5t-73.5 24.5z" />
    <glyph glyph-name="nine.tnum" 
d="M88 27l40 103q79 -25 148 -25q72 0 117 55t45 142h-4q-53 -79 -159 -79q-97 0 -163 67t-66 174q0 112 72.5 181.5t178.5 69.5q69 0 122.5 -32t84 -84.5t45.5 -114t15 -127.5t-15 -128t-46 -118.5t-88.5 -91t-133.5 -34.5q-93 0 -193 42zM301 346q61 0 94 36.5t33 85.5
q0 52 -36 88.5t-95 36.5q-58 0 -92.5 -36t-34.5 -87q0 -50 34.5 -87t96.5 -37z" />
    <glyph glyph-name="equal.tnum" 
d="M140 465h390v-91h-390v91zM140 302h390v-92h-390v92z" />
    <glyph glyph-name="cent.tnum" 
d="M420 -110h-76v106q-110 14 -178.5 88.5t-68.5 175.5q0 100 67.5 176t179.5 91v106h76v-103q78 -6 152 -43l-46 -102q-58 25 -123 25q-77 0 -121 -44.5t-44 -103.5q0 -57 41 -104.5t123 -47.5q66 0 120 24l45 -103q-51 -25 -147 -38v-103z" />
    <glyph glyph-name="sterling.tnum" 
d="M570 633l-89 -95q-37 38 -93 38q-41 0 -68 -26.5t-27 -61.5v-113h215v-77h-215v-82q0 -32 -14 -60.5t-40 -41.5h334v-114h-472v113q6 3 15 9.5t24 31.5t15 55v89h-52v77h52v113q0 95 67 161t166 66q50 0 99 -22.5t83 -59.5z" />
    <glyph glyph-name="yen.tnum" 
d="M23 700h157l156 -287h1l157 287h156l-246 -418v-18h108v-73h-108v-30h108v-73h-108v-88h-135v88h-127v73h127v30h-127v73h127v18z" />
    <glyph glyph-name="multiply.tnum" 
d="M212 480l124 -111l123 111l50 -54l-118 -105l117 -104l-49 -56l-123 111l-123 -111l-51 56l117 104l-117 104z" />
    <glyph glyph-name="divide.tnum" 
d="M336 573q27 0 47.5 -19.5t20.5 -46.5q0 -28 -20.5 -48t-47.5 -20q-29 0 -49 20t-20 48q0 27 20.5 46.5t48.5 19.5zM95 374h480v-89h-480v89zM336 220q27 0 47.5 -19.5t20.5 -46.5t-20.5 -47t-47.5 -20q-29 0 -49 19.5t-20 47.5q0 27 20.5 46.5t48.5 19.5z" />
    <glyph glyph-name="Euro.tnum" 
d="M457 386h-207q-4 -16 -4 -33t3 -31h208v-71h-192q25 -66 74.5 -103t119.5 -37q38 0 76.5 9t57.5 18l19 8l48 -103q-38 -22 -97 -40t-108 -18q-118 0 -215 72.5t-129 193.5h-100v71h88q-2 17 -2 32l2 32h-88v73h103q34 112 126.5 184t214.5 72q95 0 205 -58l-48 -103
q-71 35 -153 35q-134 0 -191 -130h189v-73z" />
    <glyph glyph-name="agrave.alt" horiz-adv-x="626" 
d="M153 724l103 56l78 -190h-76zM282 530q102 0 154 -81l18 71h110v-520h-134v63q-24 -40 -67 -56.5t-80 -16.5q-116 0 -181.5 77.5t-65.5 190.5q0 119 66.5 195.5t179.5 76.5zM306 410q-56 0 -95 -41.5t-39 -108.5q0 -65 39 -107.5t95 -42.5q63 0 100.5 41.5t37.5 108.5
q0 69 -40 109.5t-98 40.5z" />
    <glyph glyph-name="acircumflex.alt" horiz-adv-x="626" 
d="M210 590h-99l134 145h92l139 -145h-103l-80 68zM282 530q102 0 154 -81l18 71h110v-520h-134v63q-24 -40 -67 -56.5t-80 -16.5q-116 0 -181.5 77.5t-65.5 190.5q0 119 66.5 195.5t179.5 76.5zM306 410q-56 0 -95 -41.5t-39 -108.5q0 -65 39 -107.5t95 -42.5
q63 0 100.5 41.5t37.5 108.5q0 69 -40 109.5t-98 40.5z" />
    <glyph glyph-name="aacute.alt" horiz-adv-x="626" 
d="M324 780l103 -56l-105 -134h-76zM282 530q102 0 154 -81l18 71h110v-520h-134v63q-24 -40 -67 -56.5t-80 -16.5q-116 0 -181.5 77.5t-65.5 190.5q0 119 66.5 195.5t179.5 76.5zM306 410q-56 0 -95 -41.5t-39 -108.5q0 -65 39 -107.5t95 -42.5q63 0 100.5 41.5t37.5 108.5
q0 69 -40 109.5t-98 40.5z" />
    <glyph glyph-name="adieresis.alt" horiz-adv-x="626" 
d="M239 657q0 -29 -20 -48t-53 -19q-29 0 -49 19t-20 48t20.5 49t48.5 20q33 0 53 -19t20 -50zM472 657q0 -29 -20 -48t-53 -19q-29 0 -49 19t-20 48t20.5 49t48.5 20q33 0 53 -19t20 -50zM282 530q102 0 154 -81l18 71h110v-520h-134v63q-24 -40 -67 -56.5t-80 -16.5
q-116 0 -181.5 77.5t-65.5 190.5q0 119 66.5 195.5t179.5 76.5zM306 410q-56 0 -95 -41.5t-39 -108.5q0 -65 39 -107.5t95 -42.5q63 0 100.5 41.5t37.5 108.5q0 69 -40 109.5t-98 40.5z" />
    <glyph glyph-name="aring.alt" horiz-adv-x="626" 
d="M283 591q-37 0 -67 26t-30 69t30 69t67 26t67 -26t30 -69t-30 -69t-67 -26zM283 726q-18 0 -31.5 -10.5t-13.5 -29.5t13.5 -29.5t31.5 -10.5t31.5 10.5t13.5 29.5t-13.5 29.5t-31.5 10.5zM282 530q102 0 154 -81l18 71h110v-520h-134v63q-24 -40 -67 -56.5t-80 -16.5
q-116 0 -181.5 77.5t-65.5 190.5q0 119 66.5 195.5t179.5 76.5zM306 410q-56 0 -95 -41.5t-39 -108.5q0 -65 39 -107.5t95 -42.5q63 0 100.5 41.5t37.5 108.5q0 69 -40 109.5t-98 40.5z" />
    <glyph glyph-name="aogonek.alt" horiz-adv-x="638" 
d="M282 530q102 0 154 -81l18 71h110v-520h-37q-25 -2 -43 -20t-18 -56q0 -42 46 -42q15 0 46 7l18 -57q-19 -12 -38 -16q-17 -4 -38 -4q-44 0 -71 27.5t-27 65.5q0 61 59 95h-31v63q-24 -40 -67 -56.5t-80 -16.5q-116 0 -181.5 77.5t-65.5 190.5q0 119 66.5 195.5
t179.5 76.5zM306 410q-56 0 -95 -41.5t-39 -108.5q0 -65 39 -107.5t95 -42.5q63 0 100.5 41.5t37.5 108.5q0 69 -40 109.5t-98 40.5z" />
    <glyph glyph-name="amacron.alt" horiz-adv-x="626" 
d="M130 672h314v-82h-314v82zM282 530q102 0 154 -81l18 71h110v-520h-134v63q-24 -40 -67 -56.5t-80 -16.5q-116 0 -181.5 77.5t-65.5 190.5q0 119 66.5 195.5t179.5 76.5zM306 410q-56 0 -95 -41.5t-39 -108.5q0 -65 39 -107.5t95 -42.5q63 0 100.5 41.5t37.5 108.5
q0 69 -40 109.5t-98 40.5z" />
    <glyph glyph-name="atilde.alt" horiz-adv-x="626" 
d="M161 597l-38 30q21 36 52 62t67 26q27 0 65.5 -21t60.5 -21q27 0 55 34l37 -28q-49 -89 -119 -89q-30 0 -65.5 20.5t-58.5 20.5q-25 0 -56 -34zM282 530q102 0 154 -81l18 71h110v-520h-134v63q-24 -40 -67 -56.5t-80 -16.5q-116 0 -181.5 77.5t-65.5 190.5
q0 119 66.5 195.5t179.5 76.5zM306 410q-56 0 -95 -41.5t-39 -108.5q0 -65 39 -107.5t95 -42.5q63 0 100.5 41.5t37.5 108.5q0 69 -40 109.5t-98 40.5z" />
    <glyph glyph-name="abreve.alt" horiz-adv-x="626" 
d="M137 730h66q10 -32 26.5 -47t51.5 -15t51.5 15t26.5 47h66q-11 -140 -144 -140q-131 0 -144 140zM282 530q102 0 154 -81l18 71h110v-520h-134v63q-24 -40 -67 -56.5t-80 -16.5q-116 0 -181.5 77.5t-65.5 190.5q0 119 66.5 195.5t179.5 76.5zM306 410q-56 0 -95 -41.5
t-39 -108.5q0 -65 39 -107.5t95 -42.5q63 0 100.5 41.5t37.5 108.5q0 69 -40 109.5t-98 40.5z" />
    <glyph glyph-name="gbreve.alt" horiz-adv-x="632" 
d="M140 730h66q10 -32 26.5 -47t51.5 -15t51.5 15t26.5 47h66q-11 -140 -144 -140q-131 0 -144 140zM75 -115l39 103q81 -39 171 -39q72 0 113.5 33.5t41.5 93.5v22q-56 -66 -164 -66q-43 0 -84 15t-76.5 44t-57.5 78.5t-22 111.5t22 111.5t57.5 78.5t76.5 44t84 15
q53 0 99.5 -19t69.5 -53l20 62h105v-427q-1 -128 -72 -195.5t-194 -67.5q-129 0 -229 55zM311 151q63 0 98 37.5t35 92.5t-35 92.5t-99 37.5q-60 0 -97.5 -38.5t-37.5 -91.5t37.5 -91.5t98.5 -38.5z" />
    <glyph glyph-name="gcircumflex.alt" horiz-adv-x="632" 
d="M204 590h-99l134 145h92l139 -145h-103l-80 68zM75 -115l39 103q81 -39 171 -39q72 0 113.5 33.5t41.5 93.5v22q-56 -66 -164 -66q-43 0 -84 15t-76.5 44t-57.5 78.5t-22 111.5t22 111.5t57.5 78.5t76.5 44t84 15q53 0 99.5 -19t69.5 -53l20 62h105v-427
q-1 -128 -72 -195.5t-194 -67.5q-129 0 -229 55zM311 151q63 0 98 37.5t35 92.5t-35 92.5t-99 37.5q-60 0 -97.5 -38.5t-37.5 -91.5t37.5 -91.5t98.5 -38.5z" />
    <glyph glyph-name="gcommaaccent.alt" horiz-adv-x="632" 
d="M289 590q-28 0 -44.5 19.5t-16.5 46.5q0 71 81 114l23 -33q-37 -28 -48 -63q6 8 19 8q17 0 28 -12.5t11 -31.5q0 -21 -16.5 -34.5t-36.5 -13.5zM75 -115l39 103q81 -39 171 -39q72 0 113.5 33.5t41.5 93.5v22q-56 -66 -164 -66q-43 0 -84 15t-76.5 44t-57.5 78.5
t-22 111.5t22 111.5t57.5 78.5t76.5 44t84 15q53 0 99.5 -19t69.5 -53l20 62h105v-427q-1 -128 -72 -195.5t-194 -67.5q-129 0 -229 55zM311 151q63 0 98 37.5t35 92.5t-35 92.5t-99 37.5q-60 0 -97.5 -38.5t-37.5 -91.5t37.5 -91.5t98.5 -38.5z" />
    <glyph glyph-name="gdotaccent.alt" horiz-adv-x="632" 
d="M351 652q0 -27 -18.5 -44.5t-46.5 -17.5q-29 0 -47.5 17.5t-18.5 44.5t19 45t47 18t46.5 -17.5t18.5 -45.5zM75 -115l39 103q81 -39 171 -39q72 0 113.5 33.5t41.5 93.5v22q-56 -66 -164 -66q-43 0 -84 15t-76.5 44t-57.5 78.5t-22 111.5t22 111.5t57.5 78.5t76.5 44
t84 15q53 0 99.5 -19t69.5 -53l20 62h105v-427q-1 -128 -72 -195.5t-194 -67.5q-129 0 -229 55zM311 151q63 0 98 37.5t35 92.5t-35 92.5t-99 37.5q-60 0 -97.5 -38.5t-37.5 -91.5t37.5 -91.5t98.5 -38.5z" />
    <glyph glyph-name="apple" horiz-adv-x="1125" 
d="M491 492v-192h-4v192h4zM44 479h18v-31h25v-17h-25v-56q0 -16 14 -16q2 0 6 0.5t7 0.5l4 -16q-12 -4 -20 -4q-33 0 -33 37v54h-15v14l15 3zM98 448h23l31 -84l30 84h24l-45 -113q-13 -30 -33 -30q-10 0 -21 3l4 20q6 -2 12 -2q10 0 17 14zM331 394q0 -24 -14 -40t-38 -16
t-34 15v-48h-23v143h18l3 -16q11 18 36 18q23 0 37.5 -16t14.5 -40zM243 394q0 -16 9 -26t24 -10q14 0 23 10t9 26t-9 26t-23 10t-23.5 -10t-9.5 -26zM400 450q23 0 36.5 -16t13.5 -39l-1 -10h-79q3 -28 34 -28q11 0 32 7l7 -16q-17 -10 -40 -10q-24 0 -40 15.5t-16 39.5
q0 25 15 41t38 16zM370 402h59q-2 28 -27 28q-27 0 -32 -28zM615 492h10v-152h-8l-1 25q-13 -27 -43 -27q-23 0 -38 16.5t-15 39.5t15 39t38 16q29 0 42 -25v68zM531 394q0 -20 12 -33.5t31 -13.5q18 0 30 13.5t12 33.5q0 19 -12.5 32.5t-29.5 13.5q-19 0 -31 -13t-12 -33z
M707 449q22 0 36 -16t14 -38l-1 -5h-91q1 -18 13.5 -30t31.5 -12q16 0 34 8l4 -8q-20 -10 -38 -10q-24 0 -40 16.5t-16 39.5t15.5 39t37.5 16zM665 398h81q0 16 -10.5 29t-27.5 13t-29.5 -12.5t-13.5 -29.5zM889 394q0 -23 -14.5 -39.5t-37.5 -16.5q-33 0 -42 26v-59h-11
v143h8l2 -25q12 26 43 26q22 0 37 -16t15 -39zM794 394q0 -20 12 -33t30 -13t30.5 13.5t12.5 32.5t-12.5 32.5t-30.5 13.5t-30 -13t-12 -33zM966 449q24 0 40 -15.5t16 -39.5q0 -23 -16.5 -39.5t-39.5 -16.5q-22 0 -38 16.5t-16 39.5t15.5 39t38.5 16zM922 394
q0 -19 12.5 -32.5t31.5 -13.5t32.5 13.5t13.5 32.5q0 20 -13 33t-33 13q-19 0 -31.5 -13t-12.5 -33zM1057 479h8v-31h30v-9h-30v-65q0 -25 19 -25q10 0 15 2l1 -8q-6 -3 -17 -3q-28 0 -28 35v64h-16v8l16 1z" />
    </font>
</defs>
</svg>
