<svg xmlns="http://www.w3.org/2000/svg" xmlns:xlink="http://www.w3.org/1999/xlink" width="18" height="18" viewBox="0 0 18 18"><defs><path id="vbuva" d="M113 714.2c.03.3-.06.55-.28.77l-2.53 2.52a1.85 1.85 0 0 1-1.35.51 8.79 8.79 0 0 1-3.16-.73c-.78-.33-1.66-.81-2.65-1.46-1-.65-2.05-1.54-3.17-2.67a20.9 20.9 0 0 1-2.2-2.52c-.6-.8-1.06-1.54-1.42-2.22a11.95 11.95 0 0 1-1.16-3.28 4.72 4.72 0 0 1-.06-1.33 1.85 1.85 0 0 1 .5-.99l2.53-2.53a.84.84 0 0 1 .61-.27c.17 0 .31.05.44.14.13.1.24.22.32.36l2.04 3.87c.12.2.15.42.1.66-.05.25-.16.45-.33.61l-.93.94a.32.32 0 0 0-.07.12.47.47 0 0 0-.02.15c.05.26.16.57.34.91.15.3.39.68.7 1.12.32.43.77.94 1.36 1.51.57.59 1.08 1.04 1.52 1.37.45.32.82.56 1.12.71.3.15.52.24.68.28l.24.04c.02 0 .07 0 .12-.02.06-.02.1-.05.13-.07l1.08-1.1c.23-.21.5-.31.8-.31a1 1 0 0 1 .52.11h.02l3.67 2.18c.27.16.43.37.48.63z"/></defs><g><g transform="translate(-95 -700)"><use fill="#fff" xlink:href="#vbuva"/></g></g></svg>