<svg xmlns="http://www.w3.org/2000/svg" xmlns:xlink="http://www.w3.org/1999/xlink" width="21" height="20" viewBox="0 0 21 20"><defs><path id="qaopa" d="M344.5 40.18l-17.45-17.45c-.28-.29-.76-.27-1.06.03-.3.3-.31.77-.03 1.06l17.46 17.45c.28.29.76.27 1.06-.03.3-.3.3-.77.03-1.06"/><path id="qaopb" d="M325.96 40.18l17.46-17.45c.28-.29.76-.27 1.06.03.3.3.31.77.03 1.06l-17.46 17.45a.75.75 0 0 1-1.06-.03c-.3-.3-.31-.77-.03-1.06"/></defs><g><g transform="translate(-325 -22)"><use fill="#231f20" xlink:href="#qaopa"/></g><g transform="translate(-325 -22)"><use fill="#231f20" xlink:href="#qaopb"/></g></g></svg>