<svg xmlns="http://www.w3.org/2000/svg" xmlns:xlink="http://www.w3.org/1999/xlink" width="21" height="21" viewBox="0 0 21 21"><defs><path id="isfea" d="M1346.23 112.1l-18.33-18.34c-.3-.3-.8-.28-1.11.04a.79.79 0 0 0-.03 1.1l18.33 18.34c.3.3.8.28 1.1-.04.32-.31.34-.8.04-1.1"/><path id="isfeb" d="M1326.76 112.1l18.33-18.34c.3-.3.8-.28 1.1.04.32.31.34.8.04 1.1l-18.33 18.34c-.3.3-.8.28-1.11-.04-.32-.31-.33-.8-.03-1.1"/></defs><g><g transform="translate(-1326 -93)"><use fill="#39696f" xlink:href="#isfea"/></g><g transform="translate(-1326 -93)"><use fill="#39696f" xlink:href="#isfeb"/></g></g></svg>