<svg xmlns="http://www.w3.org/2000/svg" xmlns:xlink="http://www.w3.org/1999/xlink" width="55" height="43" viewBox="0 0 55 43"><defs><path id="k8yoa" d="M1292 1155.06c1.36-.2 2.76-.3 4.2-.28 11.16.2 20.08 7.58 19.93 16.5-.07 4.16-2.1 7.92-5.39 10.72h.1l6.7 5 .78-7.52c5.17-2.84 8.59-7.57 8.68-12.98.15-8.92-8.78-16.3-19.93-16.5-5.94-.1-11.32 1.86-15.07 5.06z"/><path id="k8yob" d="M1292.46 1157.04c-1.46 0-2.88.12-4.25.34-9.26 1.51-16.21 7.84-16.21 15.43 0 5.3 3.38 9.97 8.57 12.83l.66 7.36 6.88-4.78c1.4.24 2.86.36 4.35.36 6.02 0 11.44-2 15.18-5.2 3.28-2.8 5.28-6.5 5.28-10.57 0-8.7-9.16-15.77-20.46-15.77"/></defs><g><g transform="translate(-1272 -1150)"><use fill="#56065f" xlink:href="#k8yoa"/></g><g transform="translate(-1272 -1150)"><use fill="#56065f" xlink:href="#k8yob"/></g></g></svg>