<svg xmlns="http://www.w3.org/2000/svg" xmlns:xlink="http://www.w3.org/1999/xlink" width="19" height="20" viewBox="0 0 19 20"><defs><path id="6h9va" d="M1212.9 965.94a.65.65 0 0 0 .98 0l4.5-5.05c.17-.2.21-.46.1-.68a.64.64 0 0 0-.58-.37h-2.58v-8.2a.64.64 0 0 0-.64-.64h-2.58a.64.64 0 0 0-.64.63v8.2h-2.58a.65.65 0 0 0-.58.38c-.1.22-.07.49.1.68l4.5 5.05"/><path id="6h9vb" d="M1220.28 964.94v3.64h-13.77v-3.64H1204v4.85c0 .67.56 1.21 1.25 1.21h16.29c.69 0 1.25-.54 1.25-1.21v-4.85h-2.5"/></defs><g><g transform="translate(-1204 -951)"><use fill="#fff" xlink:href="#6h9va"/></g><g transform="translate(-1204 -951)"><use fill="#fff" xlink:href="#6h9vb"/></g></g></svg>