<svg xmlns="http://www.w3.org/2000/svg" xmlns:xlink="http://www.w3.org/1999/xlink" width="20" height="15" viewBox="0 0 20 15"><defs><path id="fjfba" d="M100.64 853.64l-6.32 7.06c-.2-.36-.32-.76-.32-1.2v-10c0-.49.15-.94.39-1.33zm12.18 7.98c-.38.24-.83.38-1.32.38h-15c-.49 0-.94-.14-1.32-.38l6.4-7.16 2 1.76a.62.62 0 0 0 .83 0l2.01-1.76zm-17.51-14.3c.35-.2.76-.32 1.19-.32h15c.43 0 .83.12 1.2.31l-8.7 7.61zM114 859.5c0 .44-.12.84-.32 1.2l-6.32-7.06 6.25-5.47c.24.39.39.84.39 1.33z"/></defs><g><g transform="translate(-94 -847)"><use fill="#fff" xlink:href="#fjfba"/></g></g></svg>