<svg xmlns="http://www.w3.org/2000/svg" xmlns:xlink="http://www.w3.org/1999/xlink" width="21" height="20" viewBox="0 0 21 20"><defs><path id="rcf3a" d="M100.27 789h7.62v1.32h-7.62zm0-2.66h7.62v1.32h-7.62zM99 791.67h10.16V785H99z"/><path id="rcf3b" d="M110 776v-4h-10v6.67h10z"/><path id="rcf3c" d="M112.47 775h-1.32v4.08h-13.2V775h-1.3c-1.33 0-2.65 1.36-2.65 2.72v6.78c0 1.36 1.32 2.72 2.64 2.72h1.31v-4.07h13.2v4.07h1.32c1.32 0 2.64-1.36 2.64-2.72v-6.78c0-1.36-1.32-2.72-2.64-2.72z"/></defs><g><g transform="translate(-94 -772)"><g><use fill="#fff" xlink:href="#rcf3a"/></g><g><use fill="#fff" xlink:href="#rcf3b"/></g><g><use fill="#fff" xlink:href="#rcf3c"/></g></g></g></svg>