<svg xmlns="http://www.w3.org/2000/svg" xmlns:xlink="http://www.w3.org/1999/xlink" width="244" height="56" viewBox="0 0 244 56"><defs><path id="shdzc" d="M266.89 3647.32a4.51 4.51 0 0 0 4.41 4.55c2.55 0 4.07-2.2 4.07-2.2l2.72 2.87s-2.2 3.37-6.79 3.37c-4.92 0-9-4.04-9-8.6 0-4.55 4.08-8.6 9-8.6 4.58 0 6.79 3.38 6.79 3.38l-2.89 2.87s-1.35-2.2-3.9-2.2a4.51 4.51 0 0 0-4.41 4.56zm25.45 6.57s-1.7 2.02-4.75 2.02c-3.73 0-6.45-2.7-6.45-6.98v-9.88h4.58v9.44a3.1 3.1 0 0 0 3.23 3.2c2.03 0 3.4-1.34 3.4-3.87v-8.77h4.57v16.52h-4.58zm22.06-6.59c0-2.69-1.87-4.54-4.07-4.54-2.21 0-4.08 1.85-4.08 4.54 0 2.7 1.87 4.54 4.08 4.54 2.2 0 4.07-1.85 4.07-4.54zm4.75 0c0 4.9-3.73 8.6-7.98 8.6-3.22 0-4.92-2.36-4.92-2.36v2.02h-4.58v-23.58h4.58v9.1s1.7-2.36 4.92-2.36c4.25 0 7.98 3.7 7.98 8.59zm15.34 0c0-2.69-1.86-4.54-4.07-4.54-2.2 0-4.06 1.85-4.06 4.54 0 2.7 1.86 4.54 4.06 4.54 2.2 0 4.07-1.85 4.07-4.54zm4.76 0c0 4.9-3.73 8.6-7.97 8.6-3.22 0-4.92-2.36-4.92-2.36v2.02h-4.58v-23.58h4.58v9.1s1.7-2.36 4.92-2.36c4.24 0 7.97 3.7 7.97 8.59zm11.12 9.27c-1.53 4.04-3.56 6.07-6.45 6.07-1.7 0-2.88-.5-2.88-.5v-4.05s.68.34 1.7.34c1.52 0 2.44-.85 2.88-1.86l.5-1.18-6.44-16.34h4.75l3.9 10.95 3.9-10.95h4.75z"/><path id="shdza" d="M364.43 3638.78h65.5v17.18h-65.5z"/><path id="shdze" d="M373.43 3642.82c2.54 0 3.9 2.2 3.9 2.2l2.88-2.87s-2.2-3.37-6.78-3.37c-4.92 0-9 4.04-9 8.59s4.08 8.59 9 8.59c4.58 0 6.78-3.37 6.78-3.37l-2.71-2.86s-1.53 2.19-4.07 2.19a4.51 4.51 0 0 1-4.41-4.55 4.51 4.51 0 0 1 4.4-4.55zm15.49 6.49c.35.1.37-.06.5-.31.3-.62 1.19-1.2 1.97-.79.86.45.62 1.75.33 2.56-.32.92-1.58 2.21-2.5 2.18-.9-.03-1.5-.75-2.04-1.58-.59-.9-.7-2.45.35-2.6.8-.1 1.03.44 1.39.54zm-1.07 6.65c2.88 0 4.58-2.02 4.58-2.02v1.68h4.58v-10.27c0-3.7-2.88-6.57-7.12-6.57-4.42 0-6.62 3.2-6.62 3.2l2.54 2.53s1.2-1.69 3.74-1.69c1.86 0 2.88 1.01 2.88 2.36l-5.26.94c-3.05.54-4.92 2.43-4.92 5.12 0 2.53 2.2 4.72 5.6 4.72zm18.15-16.84h-4.58v16.49H406v-7.91c0-2.86 1.53-4.38 3.9-4.38 1.02 0 1.53.17 1.53.17v-4.54h-.68c-3.05 0-4.75 2.19-4.75 2.19zm11.71 6.55c.51-1.68 1.87-3.02 3.9-3.02 2.04 0 3.4 1.34 3.74 3.02zm-4.75 1.7a8.7 8.7 0 0 0 8.83 8.59c4.59 0 7.13-2.86 7.13-2.86l-2.38-3.04s-1.52 2.03-4.41 2.03c-2.55 0-4.08-1.52-4.42-3.2h12.06s.17-.68.17-1.86a8.1 8.1 0 0 0-8.32-8.25 8.66 8.66 0 0 0-8.66 8.59z"/><path id="shdzb" d="M186 3680.66h243.93V3625H186z"/><path id="shdzg" d="M417.48 3674.07l-2.59-6.56h1.91l1.57 4.4 1.57-4.4h1.9l-2.65 7.04c-.31.82-.67 1.43-1.1 1.83-.41.4-.91.6-1.5.6a3.73 3.73 0 0 1-.82-.1 6.93 6.93 0 0 1-.33-.1v-1.62c.05.02.12.05.19.06.14.05.3.07.49.07a1.18 1.18 0 0 0 1.16-.74zm-7.08-1.41a1.65 1.65 0 0 0 1.5-1.08c.1-.23.13-.48.13-.75s-.04-.52-.13-.75a1.65 1.65 0 0 0-.88-.95 1.5 1.5 0 0 0-1.25 0 1.65 1.65 0 0 0-.87.95c-.09.23-.13.48-.13.75s.04.52.13.74a1.65 1.65 0 0 0 .88.95c.2.1.4.14.62.14zm-.33-5.28c.31 0 .6.05.85.14.25.1.46.21.62.33.19.14.36.3.5.47v-3.65h1.84v9.46h-1.84v-.8a2.5 2.5 0 0 1-1.12.8 2.92 2.92 0 0 1-2.07-.12 3.32 3.32 0 0 1-1.73-1.82 3.58 3.58 0 0 1-.26-1.37 3.58 3.58 0 0 1 .96-2.46c.3-.3.64-.54 1.03-.72.38-.18.79-.26 1.22-.26zm-9.06.94a2.7 2.7 0 0 1 1.09-.8 2.7 2.7 0 0 1 1.85.05c.32.13.6.32.82.58.23.25.41.55.54.9.13.36.2.77.2 1.23v3.85h-1.85v-3.65c0-.4-.12-.73-.36-.98a1.24 1.24 0 0 0-.93-.37c-.4 0-.74.13-.99.4-.25.26-.37.64-.37 1.16v3.44h-1.84v-6.62h1.84zm-3.54-2.7c0 .3-.1.55-.29.74-.19.18-.45.27-.8.27a1 1 0 0 1-.74-.27 1 1 0 0 1-.28-.74c0-.3.1-.55.28-.74a1 1 0 0 1 .74-.27c.35 0 .61.09.8.27.2.19.29.43.29.74zm-.14 8.53h-1.83v-6.64h1.83zm-7.41-1.63v1.63h-1.84v-9.48h1.84v5.55l2.38-2.7h2.1l-2.51 2.84 2.65 3.79h-2.04l-1.77-2.58zm-5.93-3.18h-1.5v4.8h-1.83v-4.8h-.95v-1.63h.95v-.87c0-.79.18-1.37.54-1.74.37-.37.89-.56 1.57-.56a3.25 3.25 0 0 1 .87.1l.35.1v1.56a2 2 0 0 0-.68-.14.82.82 0 0 0-.58.22.7.7 0 0 0-.23.52v.81h1.5zm-5.1 1.48c0 .46-.1.9-.29 1.31a3.65 3.65 0 0 1-3.25 2.14c-.48 0-.93-.1-1.36-.29a3.78 3.78 0 0 1-1.9-1.85 3.1 3.1 0 0 1 0-2.62 3.65 3.65 0 0 1 3.26-2.13c.47 0 .92.1 1.36.28a3.76 3.76 0 0 1 1.9 1.85c.19.42.28.85.28 1.31zm-5.17 0c0 .25.04.48.13.7a1.66 1.66 0 0 0 1.5 1.05 1.7 1.7 0 0 0 1.15-.5c.15-.15.27-.34.36-.55.08-.22.12-.45.12-.7 0-.26-.04-.49-.12-.7a1.66 1.66 0 0 0-1.5-1.05c-.23 0-.44.04-.63.13a1.66 1.66 0 0 0-.88.92c-.09.21-.13.44-.13.7zm-9.6 1.84a1.65 1.65 0 0 0 1.5-1.08c.1-.23.14-.48.14-.75s-.05-.52-.13-.75a1.65 1.65 0 0 0-.88-.95 1.5 1.5 0 0 0-1.25 0 1.65 1.65 0 0 0-.88.95c-.09.23-.13.48-.13.75s.04.52.13.74a1.65 1.65 0 0 0 .88.95c.2.1.4.14.62.14zm-.33-5.28c.32 0 .6.05.85.14.25.1.46.21.62.33.2.14.36.3.5.47v-3.65h1.85v9.46h-1.84v-.8a2.5 2.5 0 0 1-1.13.8 2.92 2.92 0 0 1-2.07-.12 3.32 3.32 0 0 1-1.73-1.82 3.58 3.58 0 0 1-.26-1.37 3.58 3.58 0 0 1 .96-2.46c.3-.3.64-.54 1.03-.72.38-.18.8-.26 1.22-.26zm-9.06.94a2.71 2.71 0 0 1 1.1-.8 2.7 2.7 0 0 1 1.85.05c.32.13.6.32.83.58.23.25.4.55.53.9.13.36.2.77.2 1.23v3.85h-1.85v-3.65c0-.4-.12-.73-.36-.98a1.25 1.25 0 0 0-.93-.37c-.41 0-.74.13-1 .4-.24.26-.37.64-.37 1.16v3.44h-1.84v-6.62h1.84zm-3.55-2.7c0 .3-.1.55-.29.74a1.1 1.1 0 0 1-.8.27 1 1 0 0 1-.73-.27 1 1 0 0 1-.28-.74c0-.3.1-.55.28-.74a1 1 0 0 1 .74-.27c.34 0 .6.09.8.27.18.19.28.43.28.74zm-.12 8.53h-1.84v-6.64h1.84zm-7.43-1.63v1.63h-1.83v-9.48h1.83v5.55l2.38-2.7h2.1l-2.5 2.84 2.64 3.79h-2.04l-1.76-2.58zm-9.38-6.97h1.63v2.1h1.36v1.62h-1.36v2.63c0 .21.08.39.23.53.15.14.35.22.59.22a1.57 1.57 0 0 0 .68-.14v1.56l-.36.1a3.24 3.24 0 0 1-.87.1c-.68 0-1.2-.19-1.56-.56-.37-.38-.55-.96-.55-1.74v-2.7h-1.16v-1.62h.62a.7.7 0 0 0 .53-.24.91.91 0 0 0 .22-.64zm-3.34 3.92a1.63 1.63 0 0 0-.63-.46 1.2 1.2 0 0 0-.46-.08c-.27 0-.48.06-.61.17-.14.11-.2.24-.2.37 0 .15.07.28.22.37.15.1.34.18.56.26l.75.24c.26.09.51.2.74.35a1.65 1.65 0 0 1 .79 1.48 1.89 1.89 0 0 1-.69 1.48c-.22.19-.5.34-.83.45-.33.11-.71.17-1.14.17a3.61 3.61 0 0 1-2.08-.61 2.29 2.29 0 0 1-.64-.6l1.02-1.02a1.89 1.89 0 0 0 .83.63c.17.08.37.11.6.11.3 0 .53-.06.67-.17a.54.54 0 0 0 .22-.44c0-.17-.08-.3-.23-.4-.15-.09-.34-.18-.56-.26l-.75-.25c-.26-.08-.51-.2-.74-.34a1.89 1.89 0 0 1-.56-.56 1.59 1.59 0 0 1-.23-.89c0-.25.07-.5.2-.76.12-.25.3-.47.53-.67a2.78 2.78 0 0 1 1.86-.66c.39 0 .73.05 1.02.16a2.83 2.83 0 0 1 1.3.85zm-8.37-.54c-.4 0-.75.12-1.01.35a1.8 1.8 0 0 0-.56.87h3.07a1.58 1.58 0 0 0-.5-.87c-.26-.23-.6-.35-1-.35zm-1.57 2.5c.08.34.26.64.56.9.29.26.7.38 1.21.38.3 0 .55-.04.77-.12.21-.09.4-.18.55-.28.18-.12.33-.25.45-.4l.96 1.2c-.2.23-.45.43-.74.59a3.9 3.9 0 0 1-3.5.3 3.56 3.56 0 0 1-1.89-1.84 3.31 3.31 0 0 1 0-2.67 3.5 3.5 0 0 1 5.58-1.17 3.4 3.4 0 0 1 .91 2.92l-.02.19zm-6.8 1.23a1.65 1.65 0 0 0 1.5-1.08c.09-.23.13-.48.13-.75s-.04-.52-.13-.75a1.65 1.65 0 0 0-.88-.95 1.5 1.5 0 0 0-1.25 0 1.65 1.65 0 0 0-.88.95c-.08.23-.13.48-.13.75s.05.52.13.74a1.65 1.65 0 0 0 .88.95c.2.1.41.14.63.14zm-.34-5.28c.32 0 .6.05.86.14.25.1.45.21.62.33.19.14.36.3.5.47v-3.65h1.84v9.46h-1.84v-.8a2.5 2.5 0 0 1-1.12.8 2.92 2.92 0 0 1-2.07-.12 3.32 3.32 0 0 1-1.73-1.82 3.58 3.58 0 0 1-.26-1.37 3.58 3.58 0 0 1 .96-2.46c.3-.3.64-.54 1.02-.72.39-.18.8-.26 1.22-.26zm-9.05.94a2.71 2.71 0 0 1 1.1-.8 2.7 2.7 0 0 1 1.85.05c.31.13.59.32.82.58.23.25.41.55.54.9.13.36.2.77.2 1.23v3.85h-1.85v-3.65c0-.4-.12-.73-.36-.98a1.25 1.25 0 0 0-.94-.37c-.4 0-.73.13-.98.4-.25.26-.38.64-.38 1.16v3.44h-1.84v-6.62h1.84zm-3.56-2.7c0 .3-.09.55-.28.74a1.1 1.1 0 0 1-.8.27 1 1 0 0 1-.74-.27 1 1 0 0 1-.27-.74c0-.3.09-.55.27-.74a1 1 0 0 1 .74-.27c.34 0 .61.09.8.27.19.19.28.43.28.74zm-.12 8.53h-1.84v-6.64h1.84zm-7.42-1.63v1.63h-1.83v-9.48h1.83v5.55l2.38-2.7h2.1l-2.51 2.84 2.65 3.79h-2.04l-1.77-2.58zm-9.38-3.59c-.41 0-.75.12-1.02.35a1.8 1.8 0 0 0-.55.87h3.07a1.58 1.58 0 0 0-.5-.87c-.26-.23-.6-.35-1-.35zm-1.57 2.5c.07.34.25.64.55.9.3.26.7.38 1.22.38.29 0 .54-.04.76-.12a2.15 2.15 0 0 0 1-.68l.96 1.2c-.2.23-.45.43-.74.59a3.9 3.9 0 0 1-3.5.3 3.56 3.56 0 0 1-1.89-1.84 3.31 3.31 0 0 1 0-2.67 3.5 3.5 0 0 1 5.58-1.17 3.4 3.4 0 0 1 .91 2.92l-.02.19zm-7.76-3.1a2.71 2.71 0 0 1 1.09-.8c.23-.1.5-.15.81-.15.38 0 .72.07 1.04.2.32.13.59.32.82.57.23.25.41.56.54.91.13.36.19.77.19 1.23v3.86h-1.84v-3.66c0-.4-.12-.73-.36-.98a1.24 1.24 0 0 0-.93-.37c-.41 0-.74.13-.99.4-.25.25-.37.64-.37 1.16v3.45h-1.84v-9.48h1.84zm-3-3.66v1.83h-2.72v7.65h-2.04v-7.65h-2.72v-1.83z"/><path id="shdzh" d="M194.93 3631.9s-10.8 1.23-8.64 23.25c1.64 16.64 16.41 18.68 22.1 20.2 7.42 2 21.36 4.25 29.27 1.33 8.8-3.24 12.9-17.64 13.2-25.96.24-7.12.9-22.28-19.45-22.78-20.35-.5-31.09 1.7-36.48 3.95"/><path id="shdzi" d="M241.04 3626.85c-5.08-3.23-13.69-2.3-19.77 3.35-2.09 1.94-6.98 4.6-6.98 4.6-4.34-1.11-7.89-4.87-17.64-3.58-13.02 1.72-11.57 19.96-4.33 30.53-.77-1.13 15.2 24.77 33.74 17.67 11.22-4.3 18.53-16.16 20.27-20.9 3.47-9.48 6.63-24.1-5.29-31.67"/><path id="shdzj" d="M237.63 3652c.26 2.97-1.05 3.17-5.36 3.88-6.35 1.04-31 1.2-32.67.9-1.47-.24-1.67-2.5-.44-4 .62-.75 2.02-2.15 3.8-3.77-.26-1.44-.32-3.82-.45-5.92-.2-3.3 1.94-2.98 1.94-2.98.72-.07.98-.09 1.9-.14.9-.06 1.2-.07 1.6 1.43.16.63.28 1.82.36 3.04 1.81-1.44 4.88-4.37 9.83-5.55 8.58-2.05 19.24 10.28 19.49 13.12"/><path id="shdzk" d="M232.51 3654c.07-1.9-.37-3.2-2.26-3.38-.8-.08-19.09-.86-21.24-.48-2.16.39-2.19 1.22-2.25 2.97 0 0-.16 14.38 1.58 16.04a5.35 5.35 0 0 0 2.61 1.31c.28.07 2.45.23 3.52.28.49.05.7-.18.71-.33l.37-9.17c.04-1.23.63-2.11 1.56-2.02.84.08 5-.1 5.57.14.48.2.82.42 1.14.94.75 1.2.25 9.42.25 9.42-.04.97.28 1.08.78 1.2.5.12 2.01.08 2.58.1 1.88-.16 2.7-1.04 2.76-2.71.05-1.67 2.26-12.4 2.32-14.3"/><clipPath id="shdzd"><use xlink:href="#shdza"/></clipPath><clipPath id="shdzf"><use xlink:href="#shdzb"/></clipPath></defs><g><g transform="translate(-186 -3625)"><g><use fill="#fefefe" xlink:href="#shdzc"/></g><g><g/><g clip-path="url(#shdzd)"><use fill="#fefefe" xlink:href="#shdze"/></g></g><g/><g clip-path="url(#shdzf)"><use fill="#fefefe" xlink:href="#shdzg"/></g><g clip-path="url(#shdzf)"><use fill="#407373" xlink:href="#shdzh"/></g><g clip-path="url(#shdzf)"><use fill="#62c8d6" xlink:href="#shdzi"/></g><g clip-path="url(#shdzf)"><use fill="#f7fbfb" xlink:href="#shdzj"/></g><g clip-path="url(#shdzf)"><use fill="#f7fbfb" xlink:href="#shdzk"/></g></g></g></svg>