<svg xmlns="http://www.w3.org/2000/svg" xmlns:xlink="http://www.w3.org/1999/xlink" width="19" height="19" viewBox="0 0 19 19"><defs><path id="v9v1a" d="M99.44 937a4.46 4.46 0 0 1-3.14-7.63l4.04-4.06a4.42 4.42 0 0 1 6.29 0 1.28 1.28 0 0 1 0 1.8 1.3 1.3 0 0 1-1.79 0 1.9 1.9 0 0 0-2.69 0l-4.06 4.07a1.92 1.92 0 0 0 0 2.7 1.9 1.9 0 0 0 2.7 0l2.4-2.4c.09-.1.23-.13.35-.08.64.27 1.33.4 2.03.4h.13a.32.32 0 0 1 .22.55l-3.33 3.35a4.4 4.4 0 0 1-3.15 1.3"/><path id="v9v1b" d="M105.53 931h-.24a4.4 4.4 0 0 1-.86-.12l-.18-.06a2.51 2.51 0 0 1-.2-.06l-.2-.08c-.08-.03-.14-.05-.2-.09a4.4 4.4 0 0 1-1.28-.89 1.28 1.28 0 0 1 0-1.8 1.3 1.3 0 0 1 1.79 0 1.9 1.9 0 0 0 2.69 0l1.04-1.04.02-.03 2.98-3c.75-.74.75-1.95 0-2.7a1.9 1.9 0 0 0-2.7 0l-2.38 2.4c-.1.1-.23.12-.35.07a5.3 5.3 0 0 0-2.03-.4h-.12a.32.32 0 0 1-.23-.55l3.33-3.34a4.43 4.43 0 0 1 6.29 0 4.49 4.49 0 0 1 0 6.32l-4.04 4.06c-.57.58-1.28.98-2.06 1.18h-.04l-.18.04-.1.02-.22.03h-.11l-.23.02-.19.02"/></defs><g><g transform="translate(-95 -918)"><g><use fill="#fff" xlink:href="#v9v1a"/></g><g><use fill="#fff" xlink:href="#v9v1b"/></g></g></g></svg>