<svg xmlns="http://www.w3.org/2000/svg" xmlns:xlink="http://www.w3.org/1999/xlink" width="25" height="23" viewBox="0 0 25 23"><defs><path id="hylba" d="M586 688.25h.26V688l-.26.25"/><path id="hylbb" d="M586 688.25h.26V688H586z"/><path id="hylbc" d="M590.94 684h-15.88c-.03 0-.06.03-.06.08v1.84c0 .04.03.08.06.08h15.88c.03 0 .06-.03.06-.08v-1.84c0-.05-.03-.08-.06-.08"/><path id="hylbd" d="M572 695a2 2 0 1 1-4 0 2 2 0 0 1 4 0"/><path id="hylbe" d="M572 703a2 2 0 1 1-4 0 2 2 0 0 1 4 0"/><path id="hylbf" d="M575.06 689h6.88c.03 0 .06-.03.06-.08v-1.84c0-.04-.02-.08-.06-.08h-6.88c-.03 0-.06.03-.06.08v1.84c0 .05.03.08.06.08"/><path id="hylbg" d="M590.94 693h-15.88c-.03 0-.06.03-.06.08v1.84c0 .04.03.08.06.08h15.88c.03 0 .06-.03.06-.08v-1.84c0-.05-.03-.08-.06-.08"/><path id="hylbh" d="M575.06 698h6.88c.03 0 .06-.03.06-.08v-1.84c0-.04-.02-.08-.06-.08h-6.88c-.03 0-.06.03-.06.08v1.84c0 .04.03.08.06.08"/><path id="hylbi" d="M590.94 701h-15.88c-.03 0-.06.03-.06.08v1.84c0 .04.03.08.06.08h15.88c.03 0 .06-.03.06-.08v-1.84c0-.05-.03-.08-.06-.08"/><path id="hylbj" d="M581.94 704h-6.88c-.03 0-.06.03-.06.08v1.84c0 .04.02.08.06.08h6.88c.03 0 .06-.03.06-.08v-1.84c0-.05-.02-.08-.06-.08"/><path id="hylbk" d="M568.61 686.2l-1.27-1.36-1.34 1.4 1.28 1.35 1.33 1.41 1.33-1.4 3.06-3.2-1.33-1.4-3.06 3.2"/></defs><g><g transform="translate(-566 -683)"><g><use fill="#fff" xlink:href="#hylba"/></g><g/><g><use fill="#fff" xlink:href="#hylbb"/></g><g><use fill="#fff" xlink:href="#hylbc"/></g><g><use fill="#fff" xlink:href="#hylbd"/></g><g><use fill="#fff" xlink:href="#hylbe"/></g><g><use fill="#fff" xlink:href="#hylbf"/></g><g><use fill="#fff" xlink:href="#hylbg"/></g><g><use fill="#fff" xlink:href="#hylbh"/></g><g><use fill="#fff" xlink:href="#hylbi"/></g><g><use fill="#fff" xlink:href="#hylbj"/></g><g><use fill="#fff" xlink:href="#hylbk"/></g></g></g></svg>