<svg xmlns="http://www.w3.org/2000/svg" viewBox="0 0 25 23">
  <defs>
    <style>
      .cls-1 {
        fill: #63c9d7;
      }
    </style>
  </defs>
  <g id="list-white" transform="translate(0 0)">
    <g id="Group_12" data-name="Group 12" transform="translate(-566 -683)">
      <g id="Group_1" data-name="Group 1">
        <path id="Path_1" data-name="Path 1" class="cls-1" d="M586,688.25h.26V688l-.26.25"/>
      </g>
      <g id="Group_2" data-name="Group 2">
        <path id="Path_2" data-name="Path 2" class="cls-1" d="M586,688.25h.26V688H586Z"/>
      </g>
      <g id="Group_3" data-name="Group 3">
        <path id="Path_3" data-name="Path 3" class="cls-1" d="M590.94,684H575.06c-.03,0-.06.03-.06.08v1.84c0,.04.03.08.06.08h15.88c.03,0,.06-.03.06-.08v-1.84c0-.05-.03-.08-.06-.08"/>
      </g>
      <g id="Group_4" data-name="Group 4">
        <path id="Path_4" data-name="Path 4" class="cls-1" d="M572,695a2,2,0,1,1-2-2,2,2,0,0,1,2,2"/>
      </g>
      <g id="Group_5" data-name="Group 5">
        <path id="Path_5" data-name="Path 5" class="cls-1" d="M572,703a2,2,0,1,1-2-2,2,2,0,0,1,2,2"/>
      </g>
      <g id="Group_6" data-name="Group 6">
        <path id="Path_6" data-name="Path 6" class="cls-1" d="M575.06,689h6.88c.03,0,.06-.03.06-.08v-1.84c0-.04-.02-.08-.06-.08h-6.88c-.03,0-.06.03-.06.08v1.84c0,.05.03.08.06.08"/>
      </g>
      <g id="Group_7" data-name="Group 7">
        <path id="Path_7" data-name="Path 7" class="cls-1" d="M590.94,693H575.06c-.03,0-.06.03-.06.08v1.84c0,.04.03.08.06.08h15.88c.03,0,.06-.03.06-.08v-1.84c0-.05-.03-.08-.06-.08"/>
      </g>
      <g id="Group_8" data-name="Group 8">
        <path id="Path_8" data-name="Path 8" class="cls-1" d="M575.06,698h6.88c.03,0,.06-.03.06-.08v-1.84c0-.04-.02-.08-.06-.08h-6.88c-.03,0-.06.03-.06.08v1.84c0,.04.03.08.06.08"/>
      </g>
      <g id="Group_9" data-name="Group 9">
        <path id="Path_9" data-name="Path 9" class="cls-1" d="M590.94,701H575.06c-.03,0-.06.03-.06.08v1.84c0,.04.03.08.06.08h15.88c.03,0,.06-.03.06-.08v-1.84c0-.05-.03-.08-.06-.08"/>
      </g>
      <g id="Group_10" data-name="Group 10">
        <path id="Path_10" data-name="Path 10" class="cls-1" d="M581.94,704h-6.88c-.03,0-.06.03-.06.08v1.84c0,.04.02.08.06.08h6.88c.03,0,.06-.03.06-.08v-1.84c0-.05-.02-.08-.06-.08"/>
      </g>
      <g id="Group_11" data-name="Group 11">
        <path id="Path_11" data-name="Path 11" class="cls-1" d="M568.61,686.2l-1.27-1.36-1.34,1.4,1.28,1.35,1.33,1.41,1.33-1.4,3.06-3.2-1.33-1.4-3.06,3.2"/>
      </g>
    </g>
  </g>
</svg>
