<svg xmlns="http://www.w3.org/2000/svg" xmlns:xlink="http://www.w3.org/1999/xlink" width="262" height="61" viewBox="0 0 262 61"><defs><path id="weetc" d="M167.83 110.26a4.88 4.88 0 0 0 4.74 4.95c2.73 0 4.37-2.39 4.37-2.39l2.92 3.12s-2.37 3.66-7.29 3.66c-5.28 0-9.65-4.4-9.65-9.34 0-4.95 4.37-9.35 9.65-9.35 4.92 0 7.29 3.67 7.29 3.67l-3.1 3.11s-1.46-2.38-4.19-2.38a4.88 4.88 0 0 0-4.74 4.95zm27.32 7.13s-1.82 2.2-5.1 2.2c-4 0-6.92-2.93-6.92-7.58v-10.73h4.92v10.25a3.36 3.36 0 0 0 3.46 3.48c2.18 0 3.64-1.46 3.64-4.21v-9.52h4.91v17.94h-4.91zm23.69-7.15c0-2.92-2-4.93-4.37-4.93s-4.38 2-4.38 4.93c0 2.93 2 4.94 4.38 4.94 2.36 0 4.37-2.01 4.37-4.94zm5.11.01c0 5.31-4 9.34-8.57 9.34-3.46 0-5.28-2.57-5.28-2.57v2.2h-4.92V93.6h4.92v9.89s1.82-2.57 5.28-2.57c4.56 0 8.57 4.03 8.57 9.34zm16.46 0c0-2.93-2-4.94-4.37-4.94-2.36 0-4.36 2-4.36 4.93 0 2.93 2 4.94 4.36 4.94 2.37 0 4.37-2.01 4.37-4.94zm5.13 0c0 5.31-4.01 9.34-8.57 9.34-3.46 0-5.29-2.57-5.29-2.57v2.2h-4.92V93.6h4.92v9.89s1.83-2.57 5.3-2.57c4.55 0 8.56 4.03 8.56 9.34zm11.92 10.07c-1.64 4.4-3.83 6.6-6.93 6.6-1.82 0-3.1-.56-3.1-.56v-4.4s.73.37 1.83.37a3.2 3.2 0 0 0 3.1-2.01l.54-1.28-6.92-17.76h5.1l4.19 11.9 4.19-11.9h5.1z"/><path id="weeta" d="M272.57 100.98h70.3v18.67h-70.3z"/><path id="weete" d="M282.22 105.38c2.74 0 4.2 2.38 4.2 2.38l3.1-3.12s-2.38-3.66-7.3-3.66c-5.28 0-9.65 4.4-9.65 9.34 0 4.94 4.37 9.34 9.65 9.34 4.92 0 7.3-3.66 7.3-3.66l-2.92-3.12s-1.64 2.38-4.38 2.38a4.88 4.88 0 0 1-4.73-4.94 4.88 4.88 0 0 1 4.73-4.94zm16.64 7.05c.38.1.4-.07.53-.34.32-.67 1.28-1.3 2.12-.85.92.48.66 1.9.36 2.78-.35 1-1.7 2.42-2.68 2.38-.99-.03-1.61-.81-2.2-1.72-.63-.98-.76-2.67.38-2.83.86-.12 1.1.48 1.49.58zm-1.15 7.23a6.8 6.8 0 0 0 4.92-2.2v1.83h4.91v-11.17c0-4.03-3.1-7.14-7.65-7.14a8.92 8.92 0 0 0-7.1 3.48l2.73 2.75s1.28-1.83 4.01-1.83c2 0 3.1 1.1 3.1 2.56l-5.65 1.02c-3.28.59-5.28 2.64-5.28 5.57 0 2.75 2.37 5.13 6 5.13zm19.49-18.31h-4.92v17.96h4.92v-8.62c0-3.11 1.64-4.76 4.19-4.76 1.1 0 1.64.18 1.64.18v-4.94h-.73c-3.28 0-5.1 2.38-5.1 2.38zm12.57 7.14c.54-1.83 2-3.3 4.19-3.3a3.97 3.97 0 0 1 4 3.3zm-5.1 1.83a9.39 9.39 0 0 0 9.46 9.34c4.92 0 7.65-3.12 7.65-3.12l-2.55-3.3s-1.64 2.2-4.73 2.2c-2.73 0-4.37-1.64-4.74-3.47h12.93s.18-.74.18-2.02a8.73 8.73 0 0 0-8.92-8.97 9.35 9.35 0 0 0-9.28 9.34z"/><path id="weetb" d="M81 146.5h261.88V86H81z"/><path id="weetg" d="M329.5 138.56l-2.77-7.12h2.05l1.68 4.77 1.68-4.77h2.04l-2.85 7.64c-.33.89-.72 1.55-1.17 1.99-.44.43-.98.65-1.6.65a3.94 3.94 0 0 1-.9-.1 7.34 7.34 0 0 1-.34-.12v-1.76a1.66 1.66 0 0 0 .73.15 1.25 1.25 0 0 0 1.24-.81zm-7.6-1.55a1.78 1.78 0 0 0 1.61-1.17 2.25 2.25 0 0 0 0-1.61c-.08-.25-.2-.45-.37-.63-.16-.17-.35-.3-.56-.4a1.6 1.6 0 0 0-1.34 0 1.78 1.78 0 0 0-.95 1.03c-.09.24-.14.5-.14.8 0 .3.05.56.14.8a1.78 1.78 0 0 0 .94 1.02c.22.1.44.16.68.16zm-.35-5.72c.34 0 .65.06.91.17.27.1.5.22.67.35.2.15.39.33.54.51v-3.96h1.98v10.28h-1.98v-.88a2.7 2.7 0 0 1-1.2.87 3.1 3.1 0 0 1-2.23-.13 3.56 3.56 0 0 1-1.85-1.98 3.93 3.93 0 0 1-.28-1.48 3.93 3.93 0 0 1 1.03-2.67c.32-.34.68-.6 1.1-.79.41-.2.85-.29 1.31-.29zm-9.72 1.03c.14-.18.32-.36.52-.51.18-.13.4-.25.64-.35.26-.11.55-.17.88-.17.4 0 .77.07 1.11.22.34.14.64.35.89.62.24.27.44.6.57 1 .14.38.2.82.2 1.32v4.19h-1.97v-3.97c0-.44-.12-.8-.38-1.06-.26-.27-.6-.4-1-.4-.44 0-.8.13-1.06.42-.27.28-.4.7-.4 1.26v3.75h-1.98v-7.2h1.98zm-3.8-2.94c0 .34-.1.6-.31.8-.2.2-.5.3-.86.3-.33 0-.6-.1-.8-.3-.2-.2-.3-.46-.3-.8 0-.33.1-.6.3-.8.2-.2.47-.3.8-.3.37 0 .65.1.86.3.2.2.3.47.3.8zm-.15 9.26h-1.97v-7.2h1.97zm-7.96-1.77v1.77h-1.98v-10.28h1.98v6.02l2.55-2.94h2.27l-2.7 3.08 2.84 4.12h-2.19l-1.9-2.8zm-6.36-3.45h-1.6v5.22h-1.98v-5.22h-1.02v-1.76h1.02v-.95c0-.86.2-1.49.58-1.9.4-.4.95-.6 1.68-.6a3.45 3.45 0 0 1 .94.12l.38.1v1.69a2.13 2.13 0 0 0-.73-.15.88.88 0 0 0-.63.24.76.76 0 0 0-.25.57v.88h1.6zm-5.47 1.63c0 .5-.1.97-.3 1.42a3.98 3.98 0 0 1-3.5 2.33c-.52 0-1-.1-1.47-.31a4.07 4.07 0 0 1-2.03-2.02 3.41 3.41 0 0 1 0-2.85 3.98 3.98 0 0 1 3.5-2.33c.5 0 .99.1 1.45.31a4.04 4.04 0 0 1 2.05 2.02c.2.45.3.93.3 1.43zm-5.56-.02c0 .27.04.53.13.76a1.8 1.8 0 0 0 .94 1 1.6 1.6 0 0 0 1.34 0 1.83 1.83 0 0 0 1.08-1.76c0-.27-.05-.53-.14-.76a1.8 1.8 0 0 0-.94-1 1.6 1.6 0 0 0-1.34 0 1.83 1.83 0 0 0-1.07 1.76zm-10.3 1.98a1.78 1.78 0 0 0 1.61-1.17c.1-.25.14-.52.14-.8 0-.3-.05-.57-.14-.81a1.78 1.78 0 0 0-.94-1.02 1.6 1.6 0 0 0-1.35 0 1.78 1.78 0 0 0-.94 1.02c-.1.24-.14.5-.14.8 0 .3.05.56.14.8a1.78 1.78 0 0 0 .94 1.02c.22.1.44.16.67.16zm-.37-5.72c.34 0 .64.06.91.17.27.1.5.22.67.35.2.15.38.33.54.51v-3.96h1.97v10.28h-1.97v-.88a2.7 2.7 0 0 1-1.2.87 3.09 3.09 0 0 1-2.22-.13 3.55 3.55 0 0 1-1.86-1.98 3.94 3.94 0 0 1-.28-1.48 3.94 3.94 0 0 1 1.03-2.67c.32-.34.69-.6 1.1-.79.41-.2.85-.29 1.3-.29zm-9.72 1.03c.15-.18.32-.36.53-.51.17-.13.39-.25.64-.35.25-.11.54-.17.88-.17.4 0 .77.07 1.1.22.35.14.64.35.9.62.24.27.43.6.57 1 .13.38.2.82.2 1.32v4.19H265v-3.97c0-.44-.13-.8-.39-1.06-.26-.27-.59-.4-1-.4-.44 0-.79.13-1.06.42-.27.28-.4.7-.4 1.26v3.75h-1.97v-7.2h1.97zm-3.8-2.94c0 .34-.1.6-.3.8-.21.2-.5.3-.87.3-.33 0-.6-.1-.8-.3-.2-.2-.3-.46-.3-.8 0-.33.1-.6.3-.8.2-.2.47-.3.8-.3.37 0 .66.1.86.3.2.2.31.47.31.8zm-.15 9.26h-1.97v-7.2h1.97zm-7.96-1.77v1.77h-1.97v-10.28h1.97v6.02l2.56-2.94h2.26l-2.7 3.08 2.85 4.12H253l-1.9-2.8zm-10.08-7.56h1.75v2.28h1.46v1.76h-1.46v2.86c0 .23.08.42.25.58.16.15.37.23.63.23a1.66 1.66 0 0 0 .73-.15v1.7l-.38.11a3.44 3.44 0 0 1-.94.1c-.73 0-1.29-.2-1.68-.6-.39-.41-.58-1.04-.58-1.9v-2.93h-1.24v-1.76h.65c.23 0 .42-.09.57-.26a1 1 0 0 0 .24-.7zm-3.58 4.26a1.76 1.76 0 0 0-.68-.5c-.14-.05-.3-.08-.5-.08-.28 0-.5.06-.65.18-.15.12-.22.26-.22.4 0 .17.08.3.24.4.16.11.37.2.6.29l.8.26c.3.1.56.22.8.39a1.82 1.82 0 0 1 .85 1.61 2.08 2.08 0 0 1-.74 1.6c-.24.2-.53.37-.89.5-.36.12-.76.18-1.22.18a3.83 3.83 0 0 1-2.24-.66c-.28-.19-.5-.41-.68-.67l1.1-1.1a2.04 2.04 0 0 0 .88.7c.19.07.4.11.65.11.33 0 .57-.06.72-.2a.6.6 0 0 0 .23-.46.49.49 0 0 0-.24-.44c-.16-.1-.37-.2-.61-.28-.24-.1-.5-.18-.8-.28a3.4 3.4 0 0 1-.8-.37 2.04 2.04 0 0 1-.6-.6 1.75 1.75 0 0 1-.24-.98c0-.27.07-.54.2-.82.14-.27.33-.52.58-.74a2.98 2.98 0 0 1 2-.72c.41 0 .78.06 1.1.18a3.05 3.05 0 0 1 1.39.93zm-8.99-.59c-.44 0-.8.13-1.09.38-.29.26-.48.57-.6.94h3.3a1.72 1.72 0 0 0-.54-.94 1.53 1.53 0 0 0-1.07-.38zm-1.68 2.73c.07.37.27.7.59.98.31.28.75.42 1.3.42.31 0 .58-.05.82-.14.23-.1.43-.2.6-.3.18-.13.34-.28.48-.45l1.02 1.33a3 3 0 0 1-.79.63 4.11 4.11 0 0 1-3.76.32 3.81 3.81 0 0 1-2.01-2 3.66 3.66 0 0 1 .8-4.1 3.55 3.55 0 0 1 2.63-1.1 3.65 3.65 0 0 1 2.54 1.02c.33.33.58.71.76 1.15a3.75 3.75 0 0 1 .22 2.03c0 .08-.02.15-.03.2zm-7.3 1.3a1.78 1.78 0 0 0 1.61-1.17c.09-.25.14-.52.14-.8 0-.3-.05-.57-.14-.81a1.78 1.78 0 0 0-.94-1.02 1.6 1.6 0 0 0-1.35 0 1.78 1.78 0 0 0-.94 1.02c-.1.24-.14.5-.14.8 0 .3.05.56.14.8a1.78 1.78 0 0 0 .94 1.02c.21.1.44.16.67.16zm-.37-5.72c.34 0 .64.06.91.17.27.1.49.22.67.35.2.15.38.33.54.51v-3.96h1.97v10.28h-1.97v-.88a2.7 2.7 0 0 1-1.2.87 3.09 3.09 0 0 1-2.22-.13 3.55 3.55 0 0 1-1.86-1.98 3.94 3.94 0 0 1-.28-1.48 3.94 3.94 0 0 1 1.03-2.67c.32-.34.69-.6 1.1-.79.41-.2.85-.29 1.3-.29zm-9.72 1.03c.15-.18.32-.36.53-.51.17-.13.39-.25.64-.35.25-.11.54-.17.88-.17.4 0 .77.07 1.1.22.35.14.64.35.89.62s.44.6.58 1c.13.38.2.82.2 1.32v4.19h-1.97v-3.97c0-.44-.13-.8-.39-1.06-.26-.27-.59-.4-1-.4-.44 0-.8.13-1.06.42-.27.28-.4.7-.4 1.26v3.75h-1.97v-7.2h1.97zm-3.8-2.94c0 .34-.1.6-.3.8-.21.2-.5.3-.87.3-.33 0-.6-.1-.8-.3-.2-.2-.3-.46-.3-.8 0-.33.1-.6.3-.8.2-.2.47-.3.8-.3.37 0 .66.1.86.3.2.2.31.47.31.8zm-.13 9.26h-1.99v-7.2h1.99zm-7.98-1.77v1.77h-1.97v-10.28h1.97v6.02l2.56-2.94h2.26l-2.7 3.08 2.85 4.12h-2.2l-1.9-2.8zm-10.08-3.89c-.44 0-.8.13-1.1.38-.28.26-.48.57-.58.94h3.28a1.72 1.72 0 0 0-.53-.94 1.53 1.53 0 0 0-1.07-.38zm-1.69 2.73c.08.37.28.7.6.98.3.28.74.42 1.3.42.3 0 .58-.05.81-.14a2.31 2.31 0 0 0 1.08-.74l1.02 1.32a3 3 0 0 1-.78.63 4.11 4.11 0 0 1-3.76.32 3.81 3.81 0 0 1-2.02-2 3.66 3.66 0 0 1 .8-4.1 3.55 3.55 0 0 1 2.63-1.1 3.65 3.65 0 0 1 2.55 1.02 3.75 3.75 0 0 1 .98 3.18l-.03.2zm-8.32-3.39c.14-.18.32-.36.52-.51.18-.13.4-.25.65-.35.25-.11.54-.17.87-.17.4 0 .77.07 1.11.22.34.14.64.35.89.62s.44.6.57 1c.14.38.2.82.2 1.32v4.19h-1.96v-3.97c0-.44-.13-.8-.4-1.06-.25-.27-.58-.4-1-.4-.43 0-.78.13-1.05.42-.27.28-.4.7-.4 1.26v3.75h-1.98v-10.28h1.98zm-3.22-3.96v1.98h-2.92v8.3h-2.2v-8.3h-2.92v-1.98z"/><path id="weeth" d="M90.59 93.5s-11.6 1.34-9.28 25.28c1.76 18.1 17.62 20.3 23.73 21.96 7.96 2.17 22.93 4.62 31.42 1.45 9.45-3.53 13.86-19.19 14.17-28.22.26-7.74.97-24.24-20.88-24.78-21.85-.54-33.37 1.86-39.16 4.3"/><path id="weeti" d="M140.08 88.01c-5.45-3.51-14.7-2.5-21.22 3.64-2.25 2.11-7.5 5-7.5 5-4.65-1.2-8.46-5.3-18.93-3.9-13.97 1.88-12.42 21.7-4.64 33.2-.84-1.23 16.31 26.92 36.2 19.2 12.06-4.67 19.9-17.56 21.77-22.73 3.72-10.3 7.1-26.18-5.68-34.41"/><path id="weetj" d="M136.43 115.36c.28 3.22-1.13 3.44-5.76 4.2-6.8 1.14-33.27 1.3-35.07 1-1.58-.28-1.8-2.73-.47-4.36.67-.82 2.17-2.34 4.07-4.1-.27-1.57-.33-4.15-.47-6.44-.22-3.6 2.08-3.24 2.08-3.24a54.4 54.4 0 0 1 2.03-.15c.97-.06 1.3-.08 1.72 1.56.18.68.3 1.97.39 3.3 1.95-1.56 5.24-4.75 10.56-6.03 9.21-2.23 20.65 11.17 20.92 14.26"/><path id="weetk" d="M130.92 117.53c.07-2.07-.4-3.5-2.43-3.69-.86-.08-20.48-.92-22.79-.5-2.31.4-2.34 1.31-2.4 3.22 0 0-.19 15.63 1.68 17.43.8.77 1.63 1.12 2.8 1.43.3.07 2.63.25 3.78.3.53.06.76-.2.76-.37.06-1.52.36-8.62.4-9.96.05-1.34.68-2.3 1.67-2.2.9.1 5.36-.1 5.99.16.5.2.87.46 1.22 1.02.8 1.3.27 10.23.27 10.23-.05 1.06.3 1.18.83 1.3.54.14 2.16.1 2.76.12 2.03-.17 2.9-1.13 2.96-2.94.07-1.82 2.43-13.49 2.5-15.55"/><clipPath id="weetd"><use xlink:href="#weeta"/></clipPath><clipPath id="weetf"><use xlink:href="#weetb"/></clipPath></defs><g><g transform="translate(-81 -86)"><g><use fill="#39696f" xlink:href="#weetc"/></g><g><g/><g clip-path="url(#weetd)"><use fill="#39696f" xlink:href="#weete"/></g></g><g/><g clip-path="url(#weetf)"><use fill="#39696f" xlink:href="#weetg"/></g><g clip-path="url(#weetf)"><use fill="#407373" xlink:href="#weeth"/></g><g clip-path="url(#weetf)"><use fill="#62c8d6" xlink:href="#weeti"/></g><g clip-path="url(#weetf)"><use fill="#f7fbfb" xlink:href="#weetj"/></g><g clip-path="url(#weetf)"><use fill="#f7fbfb" xlink:href="#weetk"/></g></g></g></svg>