<svg xmlns="http://www.w3.org/2000/svg" xmlns:xlink="http://www.w3.org/1999/xlink" width="32" height="25" viewBox="0 0 32 25"><defs><path id="r800a" d="M771.62 700c.44-.4.9-.75 1.38-1.08l-.52-.92c-.51.35-1 .73-1.48 1.15z"/><path id="r800b" d="M774.42 699c.5-.15 1.04-.28 1.58-.4l-.3-.6c-.58.12-1.15.26-1.7.42z"/><path id="r800c" d="M770.82 702c.37-.46.77-.9 1.18-1.3l-.74-.7c-.44.43-.86.9-1.26 1.38z"/><path id="r800d" d="M770.02 704c.3-.5.63-1 .98-1.47l-.96-.53c-.38.5-.72 1.02-1.04 1.55z"/><path id="r800e" d="M785 691.1l-.77-.1c-.05.6-.12 1.19-.23 1.74l.75.26c.12-.6.2-1.24.25-1.9"/><path id="r800f" d="M783 695.4l.9.6a8.6 8.6 0 0 0 1.1-1.58l-1.03-.42c-.27.5-.6.98-.97 1.4"/><path id="r800g" d="M782.37 695c-.42.38-.88.73-1.37 1.02l.46.98a8.65 8.65 0 0 0 1.54-1.15z"/><path id="r800h" d="M780.7 697c-.53.12-1.1.2-1.7.28l.16.72c.64-.07 1.26-.17 1.84-.3z"/><path id="r800i" d="M776.2 698c.58-.09 1.19-.15 1.8-.19l-.08-.81c-.65.04-1.3.1-1.92.2z"/><path id="r800j" d="M775.5 695l3.84-7.1a4.53 4.53 0 0 0-3.84-6.9 4.51 4.51 0 0 0-3.84 6.9zm0-11.32a1.84 1.84 0 1 1 0 3.69 1.84 1.84 0 0 1 0-3.7z"/><path id="r800k" d="M793.93 704.19l-4.75-15.08c-.2-.64-.85-1.11-1.53-1.11h-6.46l-.26.46-1.06 1.92h7.17l4.17 13.24H764.8l4.17-13.24h3.11l-1.06-1.92c-.1-.15-.18-.3-.26-.46h-2.4c-.68 0-1.33.47-1.53 1.1l-4.75 15.09c-.14.43-.06.89.2 1.25.27.35.7.56 1.16.56h29.14c.47 0 .89-.2 1.16-.56.26-.36.34-.82.2-1.25"/></defs><g><g transform="translate(-762 -681)"><g><use fill="#63c9d7" xlink:href="#r800a"/></g><g><use fill="#63c9d7" xlink:href="#r800b"/></g><g><use fill="#63c9d7" xlink:href="#r800c"/></g><g><use fill="#63c9d7" xlink:href="#r800d"/></g><g><use fill="#63c9d7" xlink:href="#r800e"/></g><g><use fill="#63c9d7" xlink:href="#r800f"/></g><g><use fill="#63c9d7" xlink:href="#r800g"/></g><g><use fill="#63c9d7" xlink:href="#r800h"/></g><g><use fill="#63c9d7" xlink:href="#r800i"/></g><g><use fill="#63c9d7" xlink:href="#r800j"/></g><g><use fill="#63c9d7" xlink:href="#r800k"/></g></g></g></svg>