<svg xmlns="http://www.w3.org/2000/svg" xmlns:xlink="http://www.w3.org/1999/xlink" width="37" height="45" viewBox="0 0 37 45"><defs><path id="vvjka" d="M848.44 1158.14a1.4 1.4 0 0 1-1.4-1.4c0-2.65-1.38-5.03-3.37-5.81a1.4 1.4 0 0 1 1.01-2.6c3.09 1.2 5.16 4.57 5.16 8.4 0 .78-.62 1.4-1.4 1.4m5.75 32.82c-3.02 0-3.2-.92-6-.92-2.81 0-2.98.92-6 .92-7.47 0-14.97-17.02-11.17-26.05a10.87 10.87 0 0 1 9.53-6.58c3.84 0 4.66 1.62 7.64 1.62 2.98 0 3.8-1.62 7.64-1.62 3.29 0 7.67 2.2 9.52 6.58 3.81 9.03-3.7 26.05-11.16 26.05m-12.39-28.54a1.12 1.12 0 0 0-.96-1.24c-3.02-.3-6.94 2.2-7.72 6.3-.12.62.26 1.22.84 1.34l.24.03c.49-.02.93-.38 1.03-.91.58-3.03 3.58-4.7 5.4-4.5.59.07 1.12-.4 1.17-1.02m10.45-7.22a9.19 9.19 0 0 1 9.9-9.15 9.19 9.19 0 0 1-9.87 9.88 9.1 9.1 0 0 1-.03-.73"/></defs><g><g clip-path="url(#clip-9F621373-5009-4932-9B60-99DFCCD862B0)" transform="translate(-830 -1146)"><use fill="#56065f" xlink:href="#vvjka"/></g></g></svg>