<svg xmlns="http://www.w3.org/2000/svg" xmlns:xlink="http://www.w3.org/1999/xlink" width="19" height="13" viewBox="0 0 19 13"><defs><path id="4n2aa" d="M326.1 2728a3.35 3.35 0 0 0-3.42 3.37c0 1.8 1.05 3.1 2.76 3.1.74 0 1.18-.3 1.18-.3-.13 2.06-3.37 4.03-3.63 4.2l1.53 2.41c2.89-1.49 5.86-3.98 5.86-7.88 0-2.5-1.53-4.9-4.29-4.9m-10.68 0a3.35 3.35 0 0 0-3.41 3.37c0 1.8 1.05 3.1 2.76 3.1.74 0 1.18-.3 1.18-.3-.13 2.06-3.37 4.03-3.63 4.2l1.53 2.41c2.89-1.49 5.86-3.98 5.86-7.88 0-2.5-1.53-4.9-4.29-4.9"/></defs><g><g transform="translate(-312 -2728)"><use fill="#fefefe" xlink:href="#4n2aa"/></g></g></svg>