<svg xmlns="http://www.w3.org/2000/svg" xmlns:xlink="http://www.w3.org/1999/xlink" width="22" height="15" viewBox="0 0 22 15"><defs><path id="nbzda" d="M122.96 2615.78a3.88 3.88 0 0 0 3.95-3.9c0-2.07-1.22-3.6-3.19-3.6-.86 0-1.37.36-1.37.36.16-2.38 3.9-4.65 4.2-4.86l-1.77-2.78c-3.34 1.72-6.78 4.6-6.78 9.11 0 2.89 1.77 5.67 4.96 5.67m12.35 0a3.88 3.88 0 0 0 3.95-3.9c0-2.07-1.21-3.6-3.19-3.6-.86 0-1.37.36-1.37.36.16-2.38 3.9-4.65 4.2-4.86l-1.77-2.78c-3.34 1.72-6.78 4.6-6.78 9.11 0 2.89 1.77 5.67 4.96 5.67"/></defs><g><g transform="translate(-118 -2601)"><use fill="#fefefe" xlink:href="#nbzda"/></g></g></svg>