<svg xmlns="http://www.w3.org/2000/svg" viewBox="0 0 16 16.011">
  <defs>
    <style>
      .cls-1 {
        fill: #63c9d7;
      }
    </style>
  </defs>
  <g id="searchcolor" transform="translate(0 0.011)">
    <g id="Group_1" data-name="Group 1" transform="translate(-1337 -104)">
      <path id="Path_1" data-name="Path 1" class="cls-1" d="M1346.68,113.68a4.491,4.491,0,1,1,1.32-3.18A4.33,4.33,0,0,1,1346.68,113.68Zm5.96,4.22-3.3-3.3a6.59,6.59,0,0,0,1.2-3.83,6.78,6.78,0,0,0-4.14-6.24,6.66,6.66,0,0,0-5.26,0,6.771,6.771,0,1,0,6.46,11.82l3.3,3.28a1.127,1.127,0,0,0,.87.37,1.265,1.265,0,0,0,1.23-1.23,1.185,1.185,0,0,0-.36-.87Z"/>
    </g>
  </g>
</svg>
