<svg xmlns="http://www.w3.org/2000/svg" xmlns:xlink="http://www.w3.org/1999/xlink" width="16" height="16" viewBox="0 0 16 16"><defs><path id="4p0ha" d="M1346.68 113.68a4.33 4.33 0 0 1-3.18 1.32c-1.24 0-2.3-.44-3.18-1.32a4.33 4.33 0 0 1-1.32-3.18c0-1.24.44-2.3 1.32-3.18a4.33 4.33 0 0 1 3.18-1.32c1.24 0 2.3.44 3.18 1.32a4.33 4.33 0 0 1 1.32 3.18c0 1.24-.44 2.3-1.32 3.18zm5.96 4.22l-3.3-3.3a6.59 6.59 0 0 0 1.2-3.83 6.78 6.78 0 0 0-4.14-6.24 6.66 6.66 0 0 0-5.26 0 6.77 6.77 0 0 0-4.14 6.24 6.76 6.76 0 0 0 10.6 5.58l3.3 3.28c.23.25.52.37.87.37.33 0 .62-.12.86-.37.25-.24.37-.53.37-.86 0-.34-.12-.63-.36-.87z"/></defs><g><g transform="translate(-1337 -104)"><use fill="#fff" xlink:href="#4p0ha"/></g></g></svg>