<svg xmlns="http://www.w3.org/2000/svg" xmlns:xlink="http://www.w3.org/1999/xlink" width="43" height="45" viewBox="0 0 43 45"><defs><path id="itpga" d="M1323.7 871.63l-10.81-2.84v6.99l5.38 1.41c.4.1.64.51.53.9-.1.4-.52.63-.92.52l-4.99-1.3v4.59l3.6.95c.4.1.64.5.53.9-.1.4-.51.62-.91.52l-3.22-.85v4.6l2.04.54c.4.1.64.5.53.9-.1.4-.51.63-.91.52l-1.66-.44v4.6l.49.13c.4.1.63.51.53.9-.11.4-.52.63-.92.52l-.1-.02v5.78c0 1.5-1.25 2.73-2.78 2.73h-14.71l18.11 4.76c1 .26 2.03-.32 2.3-1.3l9.2-33.76a1.84 1.84 0 0 0-1.32-2.25"/><path id="itpgb" d="M1282 871.33l.01.56h5.76a2.06 2.06 0 0 0 2.03-2.06V864h20.03c1.02 0 1.85.84 1.85 1.87v35.52c0 1.03-.83 1.87-1.85 1.87h-25.98a1.86 1.86 0 0 1-1.85-1.87zm24.12 1.01a.74.74 0 1 0 0-1.49h-12.66c-.41.01-.74.34-.74.75s.33.74.74.74zm-19.07 23.3c0 .42.33.76.74.76h18.1c.4 0 .73-.34.73-.75a.74.74 0 0 0-.74-.75h-18.1c-.4 0-.73.34-.73.75zm0-6c0 .41.33.75.74.75h18.1c.4 0 .73-.34.73-.75a.74.74 0 0 0-.74-.75h-18.1c-.4 0-.73.33-.73.75zm0-6.01c0 .41.33.75.74.75h18.1c.4 0 .73-.34.73-.75a.74.74 0 0 0-.74-.75h-18.1c-.4 0-.73.33-.73.75zm0-6.01c0 .41.33.75.74.75h18.1c.4 0 .73-.34.73-.75a.74.74 0 0 0-.74-.75h-18.1c-.4 0-.73.33-.73.75z"/></defs><g><g transform="translate(-1282 -864)"><use fill="#56065f" xlink:href="#itpga"/></g><g transform="translate(-1282 -864)"><use fill="#56065f" xlink:href="#itpgb"/></g></g></svg>