<svg xmlns="http://www.w3.org/2000/svg" xmlns:xlink="http://www.w3.org/1999/xlink" width="46" height="42" viewBox="0 0 46 42"><defs><path id="inpsa" d="M831.18 879.32c-.08.02-.17.02-.26.03a7.75 7.75 0 0 1-1.97-.16c-1.23-.26-1.23-1.33-.22-1.16.45.08.97.13 1.46.04a3.59 3.59 0 0 1-.16-.36 3.66 3.66 0 0 1-.23-2.04 1.9 1.9 0 0 1 .97-1.31c.76-.41 1.67-.22 2.34.27.44.32.74.76.86 1.3.19.8-.1 1.64-.62 2.26-.18.2-.38.38-.6.54.4.16.85.26 1.28.33a13.06 13.06 0 0 1 5.17-4.3c4.77-2.14 10.96-1.78 17.12-1.52 2.14-2.18 6.62-3.4 9.57-3 .62.09 1.2.9.91 1.45-.89 1.76-1.91 3.44-2.07 5.49 1.15 1 2.17 2.03 2.92 3.12 1.31 1.9 2.15 2.8 3.06 3.12.65.24 1.95.34 2.54.9.82.8.82 2.24.84 3.87.05 2.87-.35 4.41-1.66 4.67a6.46 6.46 0 0 0-4.04 2.31c-1.92 2.37-4.7 3.15-6.4 5.21-.43.5-.6 1.2-.7 1.97-.29 2.22-.28 2.65-2.55 2.65h-3.3c-1.76 0-1.68-1.22-1.9-2.05-.11-.4-.34-.8-1.1-.68-2.09.3-3.58.4-5.49.12-.62-.1-1.25-.14-1.46.2-.5.8-.09 2.41-1.54 2.41h-4.92c-.86 0-1.15-.69-1.34-1.44-.45-1.81-.56-3.46-1.8-4.94-5.04-6.02-5.42-11.37-3.61-16.26.27-.74.6-1.45 1-2.12a5.22 5.22 0 0 1-2-.85l-.1-.07M849.51 863a4.1 4.1 0 1 1 0 8.2 4.1 4.1 0 0 1 0-8.2m4.36 12.47c-2.8-.27-5.95-.26-8.76.24-.98.17-.95 1.75.04 1.62 2.87-.34 5.98-.34 8.77-.24.98.04.94-1.52-.05-1.62m10.5 4.94a1.54 1.54 0 1 0 0 3.08 1.54 1.54 0 0 0 0-3.08m-32.64-3.07c.36-.1.68-.25.94-.46.31-.25.53-.6.42-.94-.06-.18-.22-.33-.43-.44-.32-.16-.8-.29-1.18-.15-.67.25-.36 1.09-.15 1.45.1.2.24.38.4.54"/></defs><g><g clip-path="url(#clip-0E81C5C1-4D84-43FF-8542-E5C9CC8CBA4E)" transform="translate(-828 -863)"><use fill="#56065f" xlink:href="#inpsa"/></g></g></svg>