<svg xmlns="http://www.w3.org/2000/svg" xmlns:xlink="http://www.w3.org/1999/xlink" width="59" height="82" viewBox="0 0 59 82"><defs><path id="foeaa" d="M749.5 1118c-16.27 0-29.5 13.32-29.5 29.7 0 20.32 26.4 50.15 27.52 51.41a2.65 2.65 0 0 0 3.96 0c1.12-1.26 27.52-31.1 27.52-51.41 0-16.38-13.23-29.7-29.5-29.7zm0 44.64a14.9 14.9 0 0 1-14.84-14.94 14.9 14.9 0 0 1 14.84-14.94 14.9 14.9 0 0 1 14.84 14.94 14.9 14.9 0 0 1-14.84 14.94z"/></defs><g><g transform="translate(-720 -1118)"><use fill="#63c9d7" xlink:href="#foeaa"/></g></g></svg>